<svg id="svg" version="1.1" xmlns="http://www.w3.org/2000/svg" xmlns:xlink="http://www.w3.org/1999/xlink" width="400" height="400" viewBox="0, 0, 400,400"><g id="svgg"><path id="path0" d="M188.400 84.066 C 183.401 84.648,177.587 85.619,174.400 86.405 C 173.630 86.594,172.100 86.962,171.000 87.221 C 168.832 87.731,166.667 88.342,165.400 88.800 C 164.960 88.959,163.880 89.306,163.000 89.571 C 162.120 89.836,161.040 90.204,160.600 90.389 C 160.160 90.574,159.080 90.993,158.200 91.320 C 128.756 102.262,102.705 128.121,91.630 157.400 C 91.131 158.720,90.571 160.160,90.387 160.600 C 90.203 161.040,89.836 162.120,89.571 163.000 C 89.306 163.880,88.959 164.960,88.800 165.400 C 88.342 166.667,87.731 168.832,87.221 171.000 C 86.962 172.100,86.594 173.630,86.405 174.400 C 83.944 184.389,82.812 201.490,84.004 210.684 C 85.262 220.393,85.483 221.759,86.411 225.600 C 86.597 226.370,86.962 227.900,87.221 229.000 C 87.731 231.168,88.342 233.333,88.800 234.600 C 88.959 235.040,89.306 236.120,89.571 237.000 C 89.836 237.880,90.204 238.960,90.389 239.400 C 90.574 239.840,91.027 241.010,91.396 242.000 C 92.745 245.624,96.805 254.257,98.294 256.669 C 100.313 259.937,106.314 269.090,106.937 269.851 C 107.274 270.263,108.410 271.680,109.460 273.000 C 113.903 278.584,121.416 286.097,127.000 290.540 C 128.320 291.590,129.705 292.698,130.079 293.002 C 135.288 297.248,148.639 304.785,156.800 308.089 C 157.350 308.311,158.113 308.652,158.495 308.847 C 158.877 309.041,159.464 309.200,159.800 309.200 C 160.136 309.200,160.723 309.371,161.105 309.581 C 162.468 310.329,167.741 311.880,174.800 313.609 C 189.387 317.183,210.663 317.177,225.200 313.595 C 225.970 313.406,227.500 313.042,228.600 312.787 C 229.700 312.532,231.050 312.182,231.600 312.010 C 232.150 311.838,233.950 311.283,235.600 310.776 C 237.250 310.270,238.771 309.708,238.980 309.528 C 239.189 309.348,239.686 309.200,240.085 309.200 C 240.484 309.200,241.123 309.041,241.505 308.847 C 241.887 308.652,242.650 308.311,243.200 308.089 C 244.116 307.718,245.921 306.910,250.200 304.955 C 254.874 302.820,266.579 295.725,269.927 292.998 C 270.297 292.696,271.680 291.590,273.000 290.540 C 278.666 286.032,286.032 278.666,290.540 273.000 C 291.590 271.680,292.726 270.263,293.063 269.851 C 294.666 267.894,300.815 258.244,300.692 257.877 C 300.616 257.649,299.484 256.890,298.177 256.191 C 296.870 255.492,295.080 254.506,294.200 254.000 C 293.320 253.494,291.250 252.360,289.600 251.481 C 287.950 250.603,284.980 248.987,283.000 247.892 C 281.020 246.797,278.410 245.359,277.200 244.695 C 273.952 242.915,271.993 241.823,270.200 240.796 C 269.320 240.292,267.430 239.256,266.000 238.493 C 263.593 237.210,262.594 236.660,258.800 234.526 C 258.030 234.093,255.834 232.887,253.919 231.847 L 250.438 229.956 249.358 231.678 C 243.218 241.466,232.928 249.922,221.600 254.490 C 221.050 254.712,220.287 255.052,219.905 255.247 C 219.523 255.441,218.859 255.600,218.429 255.600 C 217.999 255.600,217.536 255.780,217.400 256.000 C 217.264 256.220,216.634 256.400,216.000 256.400 C 215.366 256.400,214.748 256.561,214.626 256.758 C 214.505 256.955,213.729 257.218,212.903 257.343 C 206.132 258.370,204.031 258.570,200.000 258.570 C 195.969 258.570,193.868 258.370,187.097 257.343 C 186.271 257.218,185.495 256.955,185.374 256.758 C 185.252 256.561,184.634 256.400,184.000 256.400 C 183.366 256.400,182.736 256.220,182.600 256.000 C 182.464 255.780,182.001 255.600,181.571 255.600 C 181.141 255.600,180.477 255.441,180.095 255.247 C 179.713 255.052,178.950 254.711,178.400 254.488 C 162.122 247.891,150.064 235.126,144.499 218.600 C 143.742 216.353,143.242 214.452,142.391 210.600 C 140.214 200.745,141.712 187.230,146.093 177.200 C 147.589 173.777,147.787 173.387,149.558 170.400 C 157.575 156.880,171.174 146.680,185.800 143.217 C 190.127 142.193,191.157 142.022,195.520 141.604 C 211.761 140.047,229.240 146.545,241.358 158.646 C 244.044 161.329,249.200 167.782,249.200 168.461 C 249.200 169.455,250.936 168.668,258.900 164.067 C 259.725 163.590,261.030 162.840,261.800 162.400 C 262.570 161.960,263.830 161.240,264.600 160.800 C 265.370 160.360,266.630 159.640,267.400 159.200 C 268.170 158.760,269.430 158.040,270.200 157.600 C 270.970 157.160,272.230 156.440,273.000 156.000 C 273.770 155.560,274.985 154.864,275.700 154.453 C 282.028 150.819,290.529 146.000,290.614 146.000 C 290.671 146.000,291.862 145.320,293.259 144.490 C 294.657 143.659,296.265 142.745,296.834 142.458 C 297.402 142.171,298.353 141.545,298.946 141.068 L 300.025 140.200 297.656 136.545 C 284.754 116.637,264.042 99.740,242.600 91.630 C 241.280 91.131,239.840 90.571,239.400 90.387 C 238.960 90.203,237.880 89.836,237.000 89.571 C 236.120 89.306,235.040 88.959,234.600 88.800 C 233.069 88.247,230.979 87.674,227.600 86.883 C 221.100 85.360,220.959 85.336,210.684 84.004 C 207.001 83.527,192.685 83.566,188.400 84.066 " stroke="none" fill="#fbfbfb" fill-rule="evenodd"></path><path id="path1" d="M193.833 25.100 C 193.668 25.265,193.413 25.420,193.267 25.444 C 191.703 25.703,190.400 26.171,190.400 26.474 C 190.400 26.679,190.240 26.749,190.045 26.628 C 189.850 26.507,189.468 26.677,189.196 27.004 C 188.924 27.332,188.364 27.600,187.951 27.600 C 187.538 27.600,187.200 27.768,187.200 27.974 C 187.200 28.180,186.570 28.576,185.800 28.854 C 185.030 29.133,184.400 29.505,184.400 29.680 C 184.400 29.856,184.130 30.000,183.800 30.000 C 183.470 30.000,183.199 30.135,183.199 30.300 C 183.198 30.465,182.208 31.050,181.000 31.600 C 179.792 32.150,178.802 32.735,178.801 32.900 C 178.801 33.065,178.530 33.200,178.200 33.200 C 177.870 33.200,177.600 33.380,177.600 33.600 C 177.600 33.820,177.330 34.000,177.000 34.000 C 176.670 34.000,176.400 34.180,176.400 34.400 C 176.400 34.620,176.055 34.800,175.633 34.800 C 175.212 34.800,174.807 34.935,174.733 35.100 C 174.613 35.370,172.511 36.578,170.103 37.760 C 169.610 38.002,169.205 38.335,169.203 38.500 C 169.201 38.665,168.840 38.800,168.400 38.800 C 167.960 38.800,167.600 38.980,167.600 39.200 C 167.600 39.420,167.240 39.600,166.800 39.600 C 166.360 39.600,166.000 39.780,166.000 40.000 C 166.000 40.220,165.730 40.400,165.400 40.400 C 165.070 40.400,164.800 40.580,164.800 40.800 C 164.800 41.020,164.530 41.200,164.200 41.200 C 163.870 41.200,163.600 41.366,163.600 41.568 C 163.600 41.771,163.079 42.051,162.443 42.191 C 161.807 42.330,160.451 42.975,159.429 43.622 C 158.408 44.270,157.398 44.800,157.186 44.800 C 156.974 44.800,156.800 44.980,156.800 45.200 C 156.800 45.420,156.440 45.600,156.000 45.600 C 155.560 45.600,155.197 45.735,155.194 45.900 C 155.190 46.065,154.290 46.640,153.194 47.179 C 152.097 47.717,151.200 48.302,151.200 48.479 C 151.200 48.655,150.840 48.800,150.400 48.800 C 149.960 48.800,149.599 48.935,149.597 49.100 C 149.595 49.265,149.190 49.587,148.697 49.817 C 147.431 50.405,144.239 52.161,144.000 52.401 C 143.890 52.511,143.260 52.871,142.600 53.200 C 141.940 53.529,141.310 53.889,141.200 53.999 C 140.757 54.444,139.179 55.200,138.694 55.200 C 138.409 55.200,137.917 55.560,137.600 56.000 C 137.283 56.440,136.703 56.800,136.312 56.800 C 135.920 56.800,135.600 56.980,135.600 57.200 C 135.600 57.420,135.255 57.600,134.833 57.600 C 134.412 57.600,134.007 57.735,133.933 57.900 C 133.860 58.065,132.368 58.920,130.618 59.800 C 128.868 60.680,127.202 61.613,126.915 61.874 C 126.629 62.134,126.036 62.462,125.598 62.601 C 125.159 62.740,124.800 63.032,124.800 63.251 C 124.800 63.469,124.640 63.549,124.445 63.428 C 124.250 63.307,123.868 63.477,123.596 63.804 C 123.324 64.132,122.764 64.400,122.351 64.400 C 121.938 64.400,121.600 64.580,121.600 64.800 C 121.600 65.020,121.364 65.200,121.075 65.200 C 120.787 65.200,120.164 65.560,119.692 66.000 C 119.220 66.440,118.556 66.800,118.217 66.800 C 117.878 66.800,117.600 66.980,117.600 67.200 C 117.600 67.420,117.255 67.600,116.833 67.600 C 116.412 67.600,116.007 67.735,115.933 67.900 C 115.766 68.276,113.636 69.575,112.700 69.871 C 112.315 69.993,112.000 70.252,112.000 70.447 C 112.000 70.641,111.730 70.800,111.400 70.800 C 111.070 70.800,110.800 70.980,110.800 71.200 C 110.800 71.420,110.440 71.600,110.000 71.600 C 109.560 71.600,109.200 71.780,109.200 72.000 C 109.200 72.220,108.840 72.400,108.400 72.400 C 107.960 72.400,107.600 72.580,107.600 72.800 C 107.600 73.020,107.364 73.200,107.075 73.200 C 106.787 73.200,106.195 73.515,105.760 73.900 C 105.325 74.285,104.706 74.659,104.384 74.730 C 104.063 74.802,103.740 75.027,103.667 75.230 C 103.593 75.434,103.314 75.600,103.046 75.600 C 102.370 75.600,100.407 76.542,100.403 76.868 C 100.401 77.016,99.860 77.255,99.200 77.400 C 98.540 77.545,98.000 77.829,98.000 78.032 C 98.000 78.234,97.775 78.404,97.500 78.409 C 97.225 78.414,96.550 78.770,96.000 79.200 C 95.450 79.630,94.685 79.986,94.300 79.991 C 93.915 79.996,93.600 80.180,93.600 80.400 C 93.600 80.620,93.319 80.800,92.976 80.800 C 92.633 80.800,92.464 80.980,92.600 81.200 C 92.736 81.420,92.477 81.600,92.024 81.600 C 91.571 81.600,91.200 81.780,91.200 82.000 C 91.200 82.220,90.840 82.400,90.400 82.400 C 89.960 82.400,89.600 82.536,89.600 82.702 C 89.600 83.014,87.415 84.099,86.982 84.002 C 86.849 83.972,86.417 84.319,86.023 84.774 C 85.629 85.228,85.012 85.600,84.653 85.600 C 84.294 85.600,84.000 85.780,84.000 86.000 C 84.000 86.220,83.640 86.400,83.200 86.400 C 82.760 86.400,82.400 86.580,82.400 86.800 C 82.400 87.020,82.029 87.200,81.576 87.200 C 81.123 87.200,80.845 87.350,80.958 87.532 C 81.071 87.715,80.550 88.106,79.800 88.400 C 79.050 88.694,78.529 89.085,78.642 89.268 C 78.755 89.450,78.387 89.600,77.824 89.600 C 77.261 89.600,76.800 89.780,76.800 90.000 C 76.800 90.220,76.530 90.400,76.200 90.400 C 75.870 90.400,75.600 90.580,75.600 90.800 C 75.600 91.020,75.306 91.200,74.947 91.200 C 74.588 91.200,73.958 91.588,73.547 92.061 C 73.045 92.640,72.798 92.738,72.794 92.361 C 72.790 91.983,72.692 91.945,72.494 92.247 C 72.332 92.493,70.850 93.390,69.200 94.241 C 67.550 95.092,66.110 95.882,66.000 95.997 C 65.890 96.112,64.540 96.835,63.000 97.603 C 61.460 98.371,59.909 99.315,59.553 99.700 C 59.197 100.085,58.612 100.400,58.253 100.400 C 57.894 100.400,57.600 100.580,57.600 100.800 C 57.600 101.020,57.240 101.200,56.800 101.200 C 56.360 101.200,56.000 101.380,56.000 101.600 C 56.000 101.820,55.764 102.000,55.475 102.000 C 55.187 102.000,54.564 102.360,54.092 102.800 C 53.620 103.240,52.956 103.600,52.617 103.600 C 52.278 103.600,52.000 103.780,52.000 104.000 C 52.000 104.220,51.640 104.400,51.200 104.400 C 50.760 104.400,50.400 104.580,50.400 104.800 C 50.400 105.020,50.130 105.200,49.800 105.200 C 49.470 105.200,49.200 105.380,49.200 105.600 C 49.200 105.820,48.970 106.000,48.688 106.000 C 48.407 106.000,47.917 106.360,47.600 106.800 C 47.283 107.240,46.763 107.600,46.445 107.600 C 46.127 107.600,45.968 107.702,46.093 107.826 C 46.217 107.950,45.617 108.790,44.759 109.692 C 43.901 110.594,43.289 111.423,43.400 111.533 C 43.511 111.644,43.344 112.020,43.029 112.368 C 42.715 112.715,42.456 113.090,42.454 113.200 C 42.451 113.453,42.235 114.219,41.656 116.028 C 41.052 117.920,40.996 281.600,41.600 281.600 C 41.820 281.600,42.000 282.095,42.001 282.700 C 42.001 283.322,42.483 284.363,43.111 285.098 L 44.220 286.395 45.810 285.550 C 46.685 285.085,48.570 284.031,50.000 283.207 C 51.430 282.384,53.410 281.261,54.400 280.711 C 55.390 280.162,56.875 279.328,57.700 278.857 C 61.000 276.972,62.055 276.369,63.300 275.652 C 68.566 272.620,92.919 258.753,95.741 257.180 C 96.809 256.585,97.514 255.994,97.308 255.867 C 96.823 255.567,92.845 247.438,91.549 244.100 C 91.357 243.605,91.044 242.795,90.854 242.300 C 90.663 241.805,90.312 240.950,90.074 240.400 C 89.836 239.850,89.248 238.140,88.768 236.600 C 88.288 235.060,87.752 233.440,87.578 233.000 C 87.403 232.560,87.173 231.750,87.067 231.200 C 86.961 230.650,86.579 229.030,86.218 227.600 C 84.936 222.518,84.798 221.776,83.540 213.200 C 82.886 208.746,82.892 191.334,83.548 186.600 C 84.460 180.023,84.943 177.456,86.218 172.400 C 86.579 170.970,86.961 169.350,87.067 168.800 C 87.173 168.250,87.403 167.440,87.578 167.000 C 87.752 166.560,88.288 164.940,88.768 163.400 C 89.248 161.860,89.836 160.150,90.074 159.600 C 90.312 159.050,90.663 158.195,90.854 157.700 C 91.753 155.363,91.957 154.870,92.796 153.000 C 96.255 145.297,103.250 133.295,106.652 129.227 C 107.475 128.243,108.099 127.487,110.305 124.800 C 112.219 122.468,122.468 112.219,124.800 110.305 C 127.487 108.099,128.243 107.475,129.227 106.652 C 133.962 102.691,148.715 94.338,155.900 91.549 C 157.263 91.020,158.699 90.442,159.700 90.021 C 160.195 89.812,161.860 89.248,163.400 88.768 C 164.940 88.288,166.560 87.752,167.000 87.578 C 167.440 87.403,168.340 87.149,169.000 87.012 C 169.660 86.876,170.920 86.584,171.800 86.364 C 176.510 85.185,178.315 84.829,183.800 83.996 C 191.826 82.778,205.916 82.603,213.600 83.627 C 218.322 84.256,222.095 84.861,223.400 85.198 C 224.060 85.369,225.680 85.725,227.000 85.989 C 228.320 86.254,229.713 86.635,230.095 86.835 C 230.477 87.036,231.154 87.200,231.600 87.200 C 232.046 87.200,232.723 87.359,233.105 87.554 C 233.487 87.749,235.060 88.298,236.600 88.774 C 238.140 89.251,239.850 89.836,240.400 90.074 C 241.582 90.586,243.087 91.191,244.200 91.603 C 250.667 93.994,266.066 102.715,270.773 106.652 C 271.757 107.475,272.513 108.099,275.200 110.305 C 277.203 111.950,287.526 122.210,289.400 124.418 C 290.060 125.196,291.092 126.485,291.694 127.282 C 292.296 128.079,293.028 128.971,293.321 129.265 C 294.327 130.276,300.400 139.577,300.400 140.108 C 300.400 140.401,300.184 140.856,299.920 141.120 C 299.547 141.493,299.549 141.600,299.933 141.600 C 300.203 141.600,300.530 141.327,300.658 140.992 C 300.872 140.435,302.927 139.100,307.600 136.482 C 309.125 135.627,323.418 127.485,327.500 125.145 C 328.215 124.735,329.430 124.040,330.200 123.600 C 330.970 123.160,332.275 122.413,333.100 121.941 C 333.925 121.469,335.590 120.541,336.800 119.880 C 338.010 119.219,339.478 118.345,340.062 117.939 C 340.646 117.533,341.211 117.200,341.318 117.200 C 342.152 117.200,354.400 109.737,354.400 109.229 C 354.400 108.753,351.711 106.000,351.246 106.000 C 351.001 106.000,350.800 105.864,350.800 105.698 C 350.800 105.531,350.215 105.141,349.500 104.830 C 348.785 104.519,348.110 104.160,348.000 104.032 C 347.766 103.761,346.442 102.993,344.200 101.830 C 343.320 101.374,342.510 100.910,342.400 100.800 C 342.002 100.402,340.401 99.600,340.005 99.600 C 339.782 99.600,339.240 99.240,338.800 98.800 C 338.360 98.360,337.730 98.000,337.400 98.000 C 337.070 98.000,336.800 97.820,336.800 97.600 C 336.800 97.380,336.530 97.200,336.200 97.200 C 335.870 97.200,335.600 97.020,335.600 96.800 C 335.600 96.580,335.326 96.400,334.992 96.400 C 334.658 96.400,333.623 95.916,332.692 95.324 C 331.761 94.732,329.560 93.526,327.800 92.644 C 326.040 91.762,324.540 90.896,324.467 90.720 C 324.393 90.544,323.978 90.400,323.543 90.400 C 323.108 90.400,322.864 90.220,323.000 90.000 C 323.136 89.780,323.002 89.600,322.703 89.600 C 321.949 89.600,320.007 88.665,320.003 88.300 C 320.001 88.135,319.730 88.000,319.400 88.000 C 319.070 88.000,318.800 87.854,318.800 87.675 C 318.800 87.496,318.170 87.102,317.400 86.800 C 316.630 86.498,316.000 86.104,316.000 85.925 C 316.000 85.746,315.640 85.600,315.200 85.600 C 314.760 85.600,314.400 85.420,314.400 85.200 C 314.400 84.980,314.040 84.800,313.600 84.800 C 313.160 84.800,312.800 84.648,312.800 84.463 C 312.800 84.277,311.945 83.695,310.900 83.168 C 309.855 82.642,308.910 82.109,308.800 81.985 C 308.690 81.860,307.970 81.439,307.200 81.050 C 306.430 80.660,304.900 79.809,303.800 79.160 C 302.700 78.510,301.485 77.872,301.100 77.742 C 300.715 77.613,300.400 77.337,300.400 77.130 C 300.400 76.922,300.220 76.864,300.000 77.000 C 299.780 77.136,299.600 77.046,299.600 76.800 C 299.600 76.554,299.420 76.464,299.200 76.600 C 298.980 76.736,298.800 76.691,298.800 76.501 C 298.800 76.129,296.038 74.800,295.266 74.800 C 295.010 74.800,294.800 74.620,294.800 74.400 C 294.800 74.180,294.455 74.000,294.033 74.000 C 293.612 74.000,293.207 73.834,293.133 73.630 C 293.060 73.427,292.730 73.202,292.400 73.130 C 292.070 73.059,291.530 72.727,291.200 72.393 C 290.870 72.059,289.700 71.339,288.600 70.793 C 287.500 70.247,286.540 69.665,286.467 69.500 C 286.393 69.335,286.078 69.200,285.767 69.200 C 285.455 69.200,285.199 69.065,285.199 68.900 C 285.198 68.735,284.208 68.150,283.000 67.600 C 281.792 67.050,280.802 66.499,280.801 66.375 C 280.801 66.251,280.178 65.905,279.418 65.607 C 278.640 65.302,278.144 64.876,278.282 64.632 C 278.418 64.395,278.384 64.330,278.208 64.489 C 277.936 64.735,275.830 63.832,275.200 63.199 C 275.090 63.089,274.460 62.729,273.800 62.400 C 273.140 62.071,272.510 61.699,272.400 61.574 C 272.031 61.155,267.849 59.200,267.321 59.200 C 267.035 59.200,266.800 59.020,266.800 58.800 C 266.800 58.580,266.519 58.400,266.176 58.400 C 265.833 58.400,265.664 58.220,265.800 58.000 C 265.936 57.780,265.802 57.600,265.503 57.600 C 264.749 57.600,262.807 56.665,262.803 56.300 C 262.801 56.135,262.440 56.000,262.000 56.000 C 261.560 56.000,261.200 55.820,261.200 55.600 C 261.200 55.380,260.829 55.200,260.376 55.200 C 259.923 55.200,259.664 55.020,259.800 54.800 C 259.936 54.580,259.677 54.400,259.224 54.400 C 258.771 54.400,258.400 54.220,258.400 54.000 C 258.400 53.780,258.130 53.600,257.800 53.600 C 257.470 53.600,257.200 53.462,257.200 53.294 C 257.200 53.126,256.525 52.682,255.700 52.306 C 254.169 51.610,251.960 50.365,251.600 49.995 C 251.490 49.882,250.500 49.343,249.400 48.797 C 246.772 47.494,243.476 45.506,243.106 45.001 C 242.944 44.781,242.809 44.737,242.806 44.903 C 242.799 45.259,238.263 42.783,238.067 42.316 C 237.993 42.142,237.588 42.000,237.167 42.000 C 236.745 42.000,236.400 41.820,236.400 41.600 C 236.400 41.380,236.040 41.200,235.600 41.200 C 235.160 41.200,234.800 41.020,234.800 40.800 C 234.800 40.580,234.440 40.400,234.000 40.400 C 233.560 40.400,233.200 40.220,233.200 40.000 C 233.200 39.780,232.919 39.600,232.576 39.600 C 232.207 39.600,232.069 39.412,232.238 39.138 C 232.407 38.864,232.349 38.785,232.094 38.942 C 231.858 39.088,231.393 38.936,231.061 38.604 C 230.729 38.272,230.174 38.000,229.829 38.000 C 229.483 38.000,229.200 37.820,229.200 37.600 C 229.200 37.380,228.840 37.200,228.400 37.200 C 227.960 37.200,227.600 37.020,227.600 36.800 C 227.600 36.580,227.240 36.400,226.800 36.400 C 226.360 36.400,226.000 36.253,226.000 36.074 C 226.000 35.754,224.865 35.077,220.308 32.681 C 219.048 32.018,217.698 31.178,217.308 30.815 C 216.919 30.452,216.459 30.133,216.288 30.106 C 215.532 29.986,213.600 28.977,213.600 28.702 C 213.600 28.536,213.443 28.400,213.250 28.400 C 213.058 28.400,212.023 27.909,210.950 27.309 C 208.903 26.164,208.600 26.056,206.496 25.720 C 205.779 25.605,205.094 25.351,204.973 25.156 C 204.707 24.726,194.260 24.674,193.833 25.100 M191.000 142.792 C 190.560 142.986,189.536 143.156,188.724 143.172 C 187.912 143.187,187.136 143.380,187.000 143.600 C 186.864 143.820,186.371 144.000,185.905 144.000 C 185.117 144.000,183.300 144.491,181.400 145.216 C 180.960 145.384,179.520 145.935,178.200 146.440 C 164.346 151.742,151.686 164.405,146.447 178.200 C 145.946 179.520,145.370 180.913,145.168 181.295 C 144.966 181.677,144.800 182.341,144.800 182.771 C 144.800 183.201,144.620 183.664,144.400 183.800 C 144.180 183.936,144.000 184.656,144.000 185.400 C 144.000 186.144,143.843 186.850,143.652 186.968 C 142.300 187.803,142.289 211.560,143.639 212.980 C 143.837 213.189,144.000 213.943,144.000 214.656 C 144.000 215.369,144.180 216.064,144.400 216.200 C 144.620 216.336,144.800 216.851,144.800 217.344 C 144.800 217.837,144.943 218.411,145.118 218.620 C 145.293 218.829,145.679 219.720,145.975 220.600 C 146.470 222.070,147.572 224.716,148.724 227.200 C 149.005 227.806,149.151 227.917,149.094 227.482 C 149.040 227.070,149.427 226.518,150.000 226.188 C 152.964 224.482,163.652 218.387,165.200 217.521 C 166.871 216.585,167.621 216.160,171.400 214.000 C 172.170 213.560,173.430 212.840,174.200 212.400 C 174.970 211.960,176.230 211.240,177.000 210.800 C 177.770 210.360,178.985 209.661,179.700 209.247 C 183.614 206.982,195.363 200.341,197.600 199.131 C 199.030 198.357,200.830 197.359,201.600 196.913 C 203.624 195.742,211.093 191.496,213.200 190.319 C 214.870 189.386,215.597 188.973,219.400 186.800 C 220.170 186.360,221.430 185.640,222.200 185.200 C 222.970 184.760,224.230 184.040,225.000 183.600 C 228.496 181.602,229.504 181.028,231.000 180.182 C 231.880 179.684,235.453 177.640,238.940 175.639 C 242.427 173.637,245.362 172.000,245.461 172.000 C 245.561 172.000,246.305 171.550,247.114 171.000 C 247.923 170.450,248.980 170.000,249.461 170.000 C 249.943 170.000,251.895 169.100,253.800 168.000 C 255.705 166.900,257.429 166.000,257.632 166.000 C 257.834 166.000,258.000 165.805,258.000 165.567 C 258.000 165.329,257.416 165.487,256.700 165.918 C 255.985 166.349,254.500 167.190,253.400 167.787 C 252.300 168.385,251.229 169.037,251.020 169.237 C 250.144 170.074,249.192 169.484,247.575 167.100 C 242.069 158.981,234.251 152.276,225.371 148.056 C 223.407 147.123,221.487 146.189,221.105 145.980 C 220.723 145.771,220.059 145.600,219.629 145.600 C 219.199 145.600,218.736 145.420,218.600 145.200 C 218.464 144.980,217.924 144.800,217.400 144.800 C 216.876 144.800,216.348 144.640,216.227 144.444 C 216.106 144.249,215.331 143.974,214.504 143.833 C 213.677 143.693,212.010 143.380,210.800 143.138 C 208.069 142.592,192.092 142.312,191.000 142.792 M293.100 145.077 C 292.056 145.658,291.269 146.203,291.353 146.287 C 291.521 146.454,294.373 144.941,294.980 144.362 C 295.599 143.772,295.113 143.957,293.100 145.077 M282.287 151.257 C 278.374 153.485,275.242 155.375,275.326 155.459 C 275.454 155.588,278.408 153.978,284.700 150.350 C 285.415 149.937,286.675 149.223,287.500 148.762 C 288.940 147.958,289.958 147.196,289.580 147.204 C 289.481 147.206,286.199 149.030,282.287 151.257 M273.500 156.229 C 272.895 156.557,272.400 156.910,272.400 157.013 C 272.400 157.399,273.032 157.157,274.000 156.400 C 275.189 155.470,275.011 155.409,273.500 156.229 M267.900 159.429 C 267.295 159.757,266.800 160.110,266.800 160.213 C 266.800 160.599,267.432 160.357,268.400 159.600 C 269.589 158.670,269.411 158.609,267.900 159.429 M265.065 161.047 C 264.440 161.386,264.003 161.737,264.094 161.827 C 264.332 162.065,266.393 161.056,266.397 160.700 C 266.401 160.319,266.415 160.316,265.065 161.047 M260.913 163.485 C 259.545 164.296,258.488 165.022,258.564 165.098 C 258.641 165.174,259.633 164.688,260.769 164.018 C 261.905 163.348,263.007 162.800,263.218 162.800 C 263.428 162.800,263.600 162.620,263.600 162.400 C 263.600 161.867,263.735 161.813,260.913 163.485 M249.753 229.700 C 248.378 232.032,248.286 232.235,248.985 231.400 C 249.353 230.960,249.813 230.330,250.007 230.000 C 250.383 229.359,251.180 229.707,257.700 233.357 C 259.185 234.189,260.399 234.718,260.397 234.534 C 260.395 234.350,259.990 234.013,259.497 233.783 C 259.004 233.554,256.852 232.429,254.715 231.283 C 250.537 229.043,250.203 228.936,249.753 229.700 M150.015 229.800 C 150.017 230.020,150.386 230.650,150.836 231.200 C 151.379 231.864,151.515 231.931,151.240 231.400 C 150.566 230.095,150.012 229.372,150.015 229.800 M261.200 235.222 C 261.530 235.447,262.520 236.004,263.400 236.459 C 265.369 237.479,264.776 236.794,262.688 235.638 C 261.128 234.774,260.137 234.497,261.200 235.222 M265.200 237.356 C 265.200 237.479,265.740 237.859,266.400 238.200 C 267.060 238.541,267.600 238.657,267.600 238.457 C 267.600 238.257,267.285 237.982,266.900 237.846 C 266.515 237.711,265.975 237.495,265.700 237.366 C 265.425 237.238,265.200 237.234,265.200 237.356 M274.000 242.179 C 274.000 242.289,274.540 242.659,275.200 243.000 C 275.860 243.341,276.400 243.531,276.400 243.421 C 276.400 243.311,275.860 242.941,275.200 242.600 C 274.540 242.259,274.000 242.069,274.000 242.179 M279.200 245.167 C 280.163 245.952,280.800 246.208,280.800 245.810 C 280.800 245.706,280.215 245.335,279.500 244.986 L 278.200 244.352 279.200 245.167 M283.000 247.107 C 283.220 247.338,284.210 247.968,285.200 248.508 C 286.190 249.048,288.035 250.060,289.300 250.757 C 290.565 251.454,291.599 251.884,291.597 251.712 C 291.595 251.540,291.190 251.209,290.697 250.976 C 290.204 250.743,288.180 249.683,286.200 248.621 C 284.220 247.558,282.780 246.877,283.000 247.107 M168.800 249.164 C 169.350 249.614,169.980 249.983,170.200 249.985 C 170.628 249.988,169.905 249.434,168.600 248.760 C 168.069 248.485,168.136 248.621,168.800 249.164 M230.600 249.200 C 229.940 249.637,229.580 249.992,229.800 249.988 C 230.201 249.982,232.376 248.423,232.000 248.412 C 231.890 248.408,231.260 248.763,230.600 249.200 M292.400 252.422 C 292.730 252.647,293.720 253.204,294.600 253.659 C 296.569 254.679,295.976 253.994,293.888 252.838 C 292.328 251.974,291.337 251.697,292.400 252.422 M300.956 258.034 C 300.926 258.848,301.026 259.085,301.250 258.733 C 301.670 258.070,301.704 256.800,301.300 256.801 C 301.135 256.801,300.980 257.356,300.956 258.034 M194.700 257.889 C 195.415 257.978,196.585 257.978,197.300 257.889 C 198.015 257.801,197.430 257.728,196.000 257.728 C 194.570 257.728,193.985 257.801,194.700 257.889 M202.700 257.889 C 203.415 257.978,204.585 257.978,205.300 257.889 C 206.015 257.801,205.430 257.728,204.000 257.728 C 202.570 257.728,201.985 257.801,202.700 257.889 M199.300 258.276 C 199.685 258.376,200.315 258.376,200.700 258.276 C 201.085 258.175,200.770 258.093,200.000 258.093 C 199.230 258.093,198.915 258.175,199.300 258.276 M100.609 261.826 C 100.981 262.501,101.641 263.491,102.076 264.026 L 102.867 265.000 102.191 263.774 C 101.819 263.099,101.159 262.109,100.724 261.574 L 99.933 260.600 100.609 261.826 M298.553 262.500 C 297.176 264.836,297.086 265.035,297.787 264.200 C 298.600 263.232,299.300 262.000,299.038 262.000 C 298.933 262.000,298.715 262.225,298.553 262.500 M103.986 266.980 C 104.659 267.958,105.401 268.877,105.634 269.021 C 105.868 269.165,105.399 268.365,104.592 267.242 C 102.790 264.734,102.293 264.519,103.986 266.980 M295.408 267.242 C 294.601 268.365,294.132 269.165,294.366 269.021 C 294.852 268.720,297.332 265.200,297.057 265.200 C 296.957 265.200,296.215 266.119,295.408 267.242 M114.800 280.200 C 115.995 281.410,117.063 282.400,117.173 282.400 C 117.283 282.400,116.395 281.410,115.200 280.200 C 114.005 278.990,112.937 278.000,112.827 278.000 C 112.717 278.000,113.605 278.990,114.800 280.200 M284.786 280.300 L 282.600 282.600 284.900 280.414 C 287.037 278.382,287.383 278.000,287.086 278.000 C 287.024 278.000,285.989 279.035,284.786 280.300 M119.600 285.000 C 120.795 286.210,121.863 287.200,121.973 287.200 C 122.083 287.200,121.195 286.210,120.000 285.000 C 118.805 283.790,117.737 282.800,117.627 282.800 C 117.517 282.800,118.405 283.790,119.600 285.000 M279.986 285.100 L 277.800 287.400 280.100 285.214 C 282.237 283.182,282.583 282.800,282.286 282.800 C 282.224 282.800,281.189 283.835,279.986 285.100 M267.600 295.249 C 266.206 296.471,266.205 296.472,267.488 295.619 C 268.196 295.148,268.882 294.591,269.012 294.381 C 269.397 293.757,269.077 293.954,267.600 295.249 M132.033 295.330 C 132.125 295.401,132.830 295.866,133.600 296.363 L 135.000 297.266 133.800 296.235 C 133.140 295.668,132.435 295.203,132.233 295.202 C 132.032 295.201,131.942 295.258,132.033 295.330 M135.800 297.807 C 136.240 298.166,136.960 298.635,137.400 298.851 L 138.200 299.244 137.400 298.593 C 136.960 298.234,136.240 297.765,135.800 297.549 L 135.000 297.156 135.800 297.807 M262.993 298.256 C 260.952 299.609,260.232 300.323,261.826 299.414 C 263.230 298.614,265.101 297.222,264.793 297.209 C 264.679 297.204,263.869 297.675,262.993 298.256 M167.200 312.382 C 167.530 312.605,168.145 312.791,168.567 312.794 C 169.590 312.802,169.271 312.573,167.800 312.244 C 166.924 312.048,166.762 312.085,167.200 312.382 M183.300 315.876 C 183.685 315.976,184.315 315.976,184.700 315.876 C 185.085 315.775,184.770 315.693,184.000 315.693 C 183.230 315.693,182.915 315.775,183.300 315.876 M215.300 315.876 C 215.685 315.976,216.315 315.976,216.700 315.876 C 217.085 315.775,216.770 315.693,216.000 315.693 C 215.230 315.693,214.915 315.775,215.300 315.876 M190.700 316.689 C 191.415 316.778,192.585 316.778,193.300 316.689 C 194.015 316.601,193.430 316.528,192.000 316.528 C 190.570 316.528,189.985 316.601,190.700 316.689 M206.700 316.689 C 207.415 316.778,208.585 316.778,209.300 316.689 C 210.015 316.601,209.430 316.528,208.000 316.528 C 206.570 316.528,205.985 316.601,206.700 316.689 M198.100 317.094 C 199.145 317.176,200.855 317.176,201.900 317.094 C 202.945 317.012,202.090 316.944,200.000 316.944 C 197.910 316.944,197.055 317.012,198.100 317.094 " stroke="none" fill="#5c6cc4" fill-rule="evenodd"></path><path id="path2" d="M353.981 109.791 C 353.415 110.357,341.719 117.200,341.318 117.200 C 341.211 117.200,340.646 117.533,340.062 117.939 C 339.478 118.345,338.010 119.219,336.800 119.880 C 335.590 120.541,333.925 121.469,333.100 121.941 C 332.275 122.413,330.970 123.160,330.200 123.600 C 329.430 124.040,328.215 124.735,327.500 125.145 C 323.418 127.485,309.125 135.627,307.600 136.482 C 302.927 139.100,300.872 140.435,300.658 140.992 C 300.530 141.327,300.149 141.600,299.813 141.600 C 299.476 141.600,299.200 141.736,299.200 141.902 C 299.200 142.069,298.615 142.459,297.900 142.770 C 297.185 143.081,296.510 143.440,296.400 143.568 C 296.166 143.839,294.842 144.607,292.600 145.770 C 291.720 146.226,290.910 146.690,290.800 146.800 C 290.690 146.910,290.170 147.242,289.645 147.538 C 287.767 148.595,285.979 149.612,284.700 150.350 C 280.075 153.020,274.271 156.274,272.200 157.361 C 271.320 157.822,270.510 158.290,270.400 158.400 C 270.213 158.587,269.302 159.122,267.400 160.162 C 266.960 160.403,266.510 160.690,266.400 160.801 C 266.290 160.911,265.660 161.271,265.000 161.600 C 264.340 161.929,263.710 162.289,263.600 162.399 C 263.361 162.639,260.169 164.395,258.903 164.983 C 258.410 165.213,258.005 165.535,258.003 165.700 C 258.001 165.865,257.834 166.000,257.632 166.000 C 257.429 166.000,255.705 166.900,253.800 168.000 C 251.895 169.100,249.943 170.000,249.461 170.000 C 248.980 170.000,247.923 170.450,247.114 171.000 C 246.305 171.550,245.561 172.000,245.461 172.000 C 245.362 172.000,242.427 173.637,238.940 175.639 C 235.453 177.640,231.880 179.684,231.000 180.182 C 229.504 181.028,228.496 181.602,225.000 183.600 C 224.230 184.040,222.970 184.760,222.200 185.200 C 221.430 185.640,220.170 186.360,219.400 186.800 C 215.597 188.973,214.870 189.386,213.200 190.319 C 211.093 191.496,203.624 195.742,201.600 196.913 C 200.830 197.359,199.030 198.357,197.600 199.131 C 195.363 200.341,183.614 206.982,179.700 209.247 C 178.985 209.661,177.770 210.360,177.000 210.800 C 176.230 211.240,174.970 211.960,174.200 212.400 C 173.430 212.840,172.170 213.560,171.400 214.000 C 167.621 216.160,166.871 216.585,165.200 217.521 C 163.652 218.387,152.964 224.482,150.000 226.188 C 148.797 226.881,148.866 227.434,150.498 230.136 C 156.879 240.702,166.517 248.779,179.000 254.023 C 180.873 254.810,185.625 256.146,190.327 257.207 C 193.133 257.841,206.867 257.841,209.673 257.207 C 214.375 256.146,219.127 254.810,221.000 254.023 C 233.207 248.895,243.164 240.649,249.161 230.700 C 250.279 228.845,250.205 228.843,253.934 230.852 C 255.620 231.760,257.720 232.885,258.600 233.352 C 259.480 233.818,260.290 234.290,260.400 234.400 C 260.510 234.510,261.365 235.005,262.300 235.500 C 263.235 235.995,264.765 236.805,265.700 237.300 C 266.635 237.795,267.490 238.304,267.600 238.432 C 267.710 238.560,268.385 238.919,269.100 239.230 C 269.815 239.541,270.400 239.931,270.400 240.098 C 270.400 240.264,270.760 240.400,271.200 240.400 C 271.640 240.400,272.000 240.559,272.000 240.753 C 272.000 240.948,272.315 241.207,272.700 241.330 C 273.085 241.452,274.570 242.210,276.000 243.013 C 277.430 243.816,279.950 245.203,281.600 246.095 C 283.250 246.987,285.590 248.254,286.800 248.911 C 288.010 249.567,289.540 250.396,290.200 250.752 C 290.860 251.109,291.490 251.490,291.600 251.600 C 291.710 251.710,292.565 252.205,293.500 252.700 C 294.435 253.195,295.965 254.005,296.900 254.500 C 297.835 254.995,298.690 255.504,298.800 255.632 C 298.910 255.760,299.585 256.119,300.300 256.430 C 301.015 256.741,301.599 257.266,301.598 257.598 C 301.594 258.597,294.305 269.837,292.778 271.200 C 292.655 271.310,292.285 271.794,291.956 272.276 C 289.025 276.572,276.572 289.025,272.276 291.956 C 271.794 292.285,271.310 292.654,271.200 292.777 C 268.751 295.509,256.042 303.105,247.400 307.002 C 243.638 308.698,241.993 309.359,239.800 310.055 C 238.920 310.335,238.029 310.707,237.820 310.882 C 237.611 311.057,237.037 311.200,236.544 311.200 C 236.051 311.200,235.549 311.359,235.429 311.554 C 235.308 311.749,234.713 312.001,234.105 312.116 C 233.497 312.230,231.560 312.705,229.800 313.170 C 208.228 318.873,180.148 317.887,162.200 310.797 C 161.760 310.623,160.770 310.264,160.000 310.000 C 158.642 309.534,157.774 309.201,155.900 308.429 C 148.680 305.455,133.470 297.043,132.000 295.211 C 131.890 295.074,131.170 294.529,130.400 294.000 C 129.630 293.471,128.910 292.929,128.800 292.796 C 128.690 292.663,128.206 292.285,127.724 291.956 C 123.428 289.025,110.975 276.572,108.044 272.276 C 107.715 271.794,107.346 271.310,107.223 271.200 C 106.192 270.276,101.359 263.219,99.279 259.600 C 97.193 255.971,97.516 256.153,95.341 257.389 C 94.273 257.995,92.590 258.950,91.600 259.511 C 89.308 260.809,65.032 274.654,63.300 275.652 C 62.055 276.369,61.000 276.972,57.700 278.857 C 56.875 279.328,55.390 280.162,54.400 280.711 C 53.410 281.261,51.430 282.384,50.000 283.207 C 48.570 284.031,46.685 285.085,45.810 285.550 L 44.220 286.395 43.111 285.098 C 42.209 284.043,42.002 283.942,42.001 284.560 C 41.998 286.672,46.586 293.200,48.072 293.200 C 48.375 293.200,48.883 293.560,49.200 294.000 C 49.517 294.440,50.097 294.800,50.488 294.800 C 50.880 294.800,51.200 294.980,51.200 295.200 C 51.200 295.420,51.478 295.600,51.817 295.600 C 52.156 295.600,52.820 295.960,53.292 296.400 C 53.764 296.840,54.387 297.200,54.675 297.200 C 54.964 297.200,55.200 297.380,55.200 297.600 C 55.200 297.820,55.560 298.000,56.000 298.000 C 56.440 298.000,56.800 298.180,56.800 298.400 C 56.800 298.620,57.160 298.800,57.600 298.800 C 58.040 298.800,58.400 298.980,58.400 299.200 C 58.400 299.420,58.670 299.600,59.000 299.600 C 59.330 299.600,59.600 299.780,59.600 300.000 C 59.600 300.220,59.870 300.400,60.200 300.400 C 60.530 300.400,60.800 300.546,60.800 300.725 C 60.800 300.904,61.430 301.298,62.200 301.600 C 62.970 301.902,63.600 302.296,63.600 302.475 C 63.600 302.654,63.960 302.800,64.400 302.800 C 64.840 302.800,65.200 302.980,65.200 303.200 C 65.200 303.420,65.560 303.600,66.000 303.600 C 66.440 303.600,66.800 303.752,66.800 303.937 C 66.800 304.123,67.655 304.708,68.700 305.237 C 69.745 305.767,70.660 306.335,70.733 306.500 C 70.807 306.665,71.135 306.800,71.462 306.800 C 71.789 306.800,72.327 307.070,72.657 307.400 C 72.987 307.730,73.604 308.000,74.029 308.000 C 74.453 308.000,74.800 308.146,74.800 308.325 C 74.800 308.504,75.430 308.898,76.200 309.200 C 76.970 309.502,77.600 309.896,77.600 310.075 C 77.600 310.254,77.878 310.400,78.217 310.400 C 78.556 310.400,79.220 310.760,79.692 311.200 C 80.164 311.640,80.787 312.000,81.075 312.000 C 81.364 312.000,81.600 312.180,81.600 312.400 C 81.600 312.620,81.960 312.800,82.400 312.800 C 82.840 312.800,83.200 312.980,83.200 313.200 C 83.200 313.420,83.478 313.600,83.817 313.600 C 84.156 313.600,84.820 313.960,85.292 314.400 C 85.764 314.840,86.387 315.200,86.675 315.200 C 86.964 315.200,87.200 315.380,87.200 315.600 C 87.200 315.820,87.560 316.000,88.000 316.000 C 88.440 316.000,88.800 316.180,88.800 316.400 C 88.800 316.620,89.160 316.800,89.600 316.800 C 90.040 316.800,90.400 316.980,90.400 317.200 C 90.400 317.420,90.694 317.600,91.053 317.600 C 91.412 317.600,91.997 317.929,92.353 318.330 C 92.709 318.732,93.585 319.316,94.300 319.628 C 95.015 319.940,95.600 320.331,95.600 320.498 C 95.600 320.664,95.960 320.800,96.400 320.800 C 96.840 320.800,97.201 320.935,97.203 321.100 C 97.205 321.265,97.610 321.595,98.103 321.834 C 101.221 323.343,105.020 325.427,105.133 325.690 C 105.207 325.860,105.612 326.000,106.033 326.000 C 106.455 326.000,106.800 326.180,106.800 326.400 C 106.800 326.620,107.160 326.800,107.600 326.800 C 108.040 326.800,108.400 326.980,108.400 327.200 C 108.400 327.420,108.670 327.600,109.000 327.600 C 109.330 327.600,109.600 327.780,109.600 328.000 C 109.600 328.220,109.878 328.400,110.217 328.400 C 110.556 328.400,111.220 328.760,111.692 329.200 C 112.164 329.640,112.787 330.000,113.075 330.000 C 113.364 330.000,113.600 330.180,113.600 330.400 C 113.600 330.620,113.960 330.800,114.400 330.800 C 114.840 330.800,115.200 330.980,115.200 331.200 C 115.200 331.420,115.478 331.600,115.817 331.600 C 116.156 331.600,116.820 331.960,117.292 332.400 C 117.764 332.840,118.387 333.200,118.675 333.200 C 118.964 333.200,119.200 333.380,119.200 333.600 C 119.200 333.820,119.560 334.000,120.000 334.000 C 120.440 334.000,120.800 334.180,120.800 334.400 C 120.800 334.620,121.160 334.800,121.600 334.800 C 122.040 334.800,122.400 334.980,122.400 335.200 C 122.400 335.420,122.760 335.600,123.200 335.600 C 123.640 335.600,124.000 335.780,124.000 336.000 C 124.000 336.220,124.270 336.400,124.600 336.400 C 124.930 336.400,125.200 336.580,125.200 336.800 C 125.200 337.020,125.470 337.200,125.800 337.200 C 126.130 337.200,126.400 337.336,126.400 337.502 C 126.400 337.669,126.952 338.049,127.627 338.348 C 128.302 338.647,129.867 339.501,131.104 340.246 C 132.341 340.991,133.679 341.600,134.076 341.600 C 134.474 341.600,134.800 341.780,134.800 342.000 C 134.800 342.220,135.160 342.400,135.600 342.400 C 136.040 342.400,136.400 342.580,136.400 342.800 C 136.400 343.020,136.681 343.200,137.024 343.200 C 137.367 343.200,137.536 343.380,137.400 343.600 C 137.264 343.820,137.523 344.000,137.976 344.000 C 138.429 344.000,138.800 344.180,138.800 344.400 C 138.800 344.620,139.160 344.800,139.600 344.800 C 140.040 344.800,140.400 344.980,140.400 345.200 C 140.400 345.420,140.745 345.600,141.167 345.600 C 141.588 345.600,141.993 345.735,142.067 345.900 C 142.269 346.355,144.710 348.000,145.184 348.000 C 145.413 348.000,145.600 348.180,145.600 348.400 C 145.600 348.620,145.960 348.800,146.400 348.800 C 146.840 348.800,147.200 348.980,147.200 349.200 C 147.200 349.420,147.478 349.600,147.817 349.600 C 148.156 349.600,148.820 349.960,149.292 350.400 C 149.764 350.840,150.387 351.200,150.675 351.200 C 150.964 351.200,151.200 351.380,151.200 351.600 C 151.200 351.820,151.560 352.000,152.000 352.000 C 152.440 352.000,152.800 352.180,152.800 352.400 C 152.800 352.620,153.160 352.800,153.600 352.800 C 154.040 352.800,154.400 352.980,154.400 353.200 C 154.400 353.420,154.760 353.600,155.200 353.600 C 155.640 353.600,156.000 353.750,156.000 353.932 C 156.000 354.115,156.495 354.520,157.100 354.832 C 157.705 355.144,158.290 355.490,158.400 355.602 C 158.510 355.713,159.680 356.343,161.000 357.002 C 162.320 357.661,163.460 358.335,163.533 358.500 C 163.607 358.665,164.012 358.800,164.433 358.800 C 164.855 358.800,165.200 358.980,165.200 359.200 C 165.200 359.420,165.560 359.600,166.000 359.600 C 166.440 359.600,166.800 359.780,166.800 360.000 C 166.800 360.220,167.120 360.400,167.512 360.400 C 167.903 360.400,168.483 360.760,168.800 361.200 C 169.117 361.640,169.697 362.000,170.088 362.000 C 170.480 362.000,170.800 362.180,170.800 362.400 C 170.800 362.620,171.160 362.800,171.600 362.800 C 172.040 362.800,172.400 362.980,172.400 363.200 C 172.400 363.420,172.678 363.600,173.017 363.600 C 173.356 363.600,174.020 363.960,174.492 364.400 C 174.964 364.840,175.587 365.200,175.875 365.200 C 176.164 365.200,176.400 365.380,176.400 365.600 C 176.400 365.820,176.670 366.000,177.000 366.000 C 177.330 366.000,177.600 366.180,177.600 366.400 C 177.600 366.620,177.960 366.800,178.400 366.800 C 178.840 366.800,179.200 366.980,179.200 367.200 C 179.200 367.420,179.478 367.600,179.817 367.600 C 180.156 367.600,180.820 367.960,181.292 368.400 C 181.764 368.840,182.387 369.200,182.675 369.200 C 182.964 369.200,183.200 369.380,183.200 369.600 C 183.200 369.820,183.560 370.000,184.000 370.000 C 184.440 370.000,184.800 370.180,184.800 370.400 C 184.800 370.620,185.160 370.800,185.600 370.800 C 186.040 370.800,186.400 370.947,186.400 371.127 C 186.400 371.306,187.975 372.251,189.900 373.227 L 193.400 375.000 200.000 375.000 L 206.600 375.000 210.100 373.227 C 212.025 372.251,213.600 371.306,213.600 371.127 C 213.600 370.947,213.960 370.800,214.400 370.800 C 214.840 370.800,215.200 370.620,215.200 370.400 C 215.200 370.180,215.560 370.000,216.000 370.000 C 216.440 370.000,216.800 369.820,216.800 369.600 C 216.800 369.380,217.036 369.200,217.325 369.200 C 217.613 369.200,218.236 368.840,218.708 368.400 C 219.180 367.960,219.844 367.600,220.183 367.600 C 220.522 367.600,220.800 367.420,220.800 367.200 C 220.800 366.980,221.160 366.800,221.600 366.800 C 222.040 366.800,222.400 366.620,222.400 366.400 C 222.400 366.180,222.670 366.000,223.000 366.000 C 223.330 366.000,223.600 365.820,223.600 365.600 C 223.600 365.380,223.920 365.200,224.312 365.200 C 224.703 365.200,225.283 364.840,225.600 364.400 C 225.917 363.960,226.497 363.600,226.888 363.600 C 227.280 363.600,227.600 363.420,227.600 363.200 C 227.600 362.980,227.960 362.800,228.400 362.800 C 228.840 362.800,229.200 362.620,229.200 362.400 C 229.200 362.180,229.560 362.000,230.000 362.000 C 230.440 362.000,230.800 361.820,230.800 361.600 C 230.800 361.380,231.081 361.200,231.424 361.200 C 231.767 361.200,231.936 361.020,231.800 360.800 C 231.664 360.580,231.923 360.400,232.376 360.400 C 232.829 360.400,233.200 360.220,233.200 360.000 C 233.200 359.780,233.560 359.600,234.000 359.600 C 234.440 359.600,234.800 359.420,234.800 359.200 C 234.800 358.980,235.160 358.800,235.600 358.800 C 236.040 358.800,236.400 358.659,236.400 358.486 C 236.400 358.314,237.570 357.639,238.999 356.986 C 240.429 356.334,241.599 355.665,241.599 355.500 C 241.600 355.335,241.836 355.200,242.125 355.200 C 242.413 355.200,243.036 354.840,243.508 354.400 C 243.980 353.960,244.644 353.600,244.983 353.600 C 245.322 353.600,245.600 353.420,245.600 353.200 C 245.600 352.980,245.960 352.800,246.400 352.800 C 246.840 352.800,247.200 352.620,247.200 352.400 C 247.200 352.180,247.560 352.000,248.000 352.000 C 248.440 352.000,248.800 351.820,248.800 351.600 C 248.800 351.380,249.036 351.200,249.325 351.200 C 249.613 351.200,250.236 350.840,250.708 350.400 C 251.180 349.960,251.844 349.600,252.183 349.600 C 252.522 349.600,252.800 349.420,252.800 349.200 C 252.800 348.980,253.160 348.800,253.600 348.800 C 254.040 348.800,254.400 348.664,254.400 348.498 C 254.400 348.331,254.906 347.971,255.525 347.697 C 256.144 347.424,257.036 346.840,257.508 346.400 C 257.980 345.960,258.644 345.600,258.983 345.600 C 259.322 345.600,259.600 345.420,259.600 345.200 C 259.600 344.980,259.960 344.800,260.400 344.800 C 260.840 344.800,261.200 344.620,261.200 344.400 C 261.200 344.180,261.520 344.000,261.912 344.000 C 262.303 344.000,262.883 343.640,263.200 343.200 C 263.517 342.760,264.097 342.400,264.488 342.400 C 264.880 342.400,265.200 342.220,265.200 342.000 C 265.200 341.780,265.491 341.600,265.846 341.600 C 266.423 341.600,270.298 339.721,270.800 339.198 C 270.910 339.083,271.900 338.545,273.000 338.001 C 274.100 337.458,275.270 336.741,275.600 336.407 C 275.930 336.073,276.470 335.742,276.800 335.670 C 277.130 335.599,277.460 335.374,277.533 335.170 C 277.607 334.967,278.012 334.800,278.433 334.800 C 278.855 334.800,279.200 334.620,279.200 334.400 C 279.200 334.180,279.560 334.000,280.000 334.000 C 280.440 334.000,280.800 333.820,280.800 333.600 C 280.800 333.380,281.036 333.200,281.325 333.200 C 281.613 333.200,282.236 332.840,282.708 332.400 C 283.180 331.960,283.844 331.600,284.183 331.600 C 284.522 331.600,284.800 331.420,284.800 331.200 C 284.800 330.980,285.160 330.800,285.600 330.800 C 286.040 330.800,286.400 330.655,286.400 330.479 C 286.400 330.302,287.297 329.717,288.394 329.179 C 289.490 328.640,290.390 328.065,290.394 327.900 C 290.397 327.735,290.670 327.600,291.000 327.600 C 291.330 327.600,291.600 327.420,291.600 327.200 C 291.600 326.980,291.960 326.800,292.400 326.800 C 292.840 326.800,293.200 326.620,293.200 326.400 C 293.200 326.180,293.605 325.997,294.100 325.994 C 294.828 325.989,294.885 325.914,294.400 325.600 C 293.903 325.279,293.937 325.211,294.600 325.205 C 295.040 325.201,296.660 324.546,298.200 323.750 C 299.740 322.954,301.404 322.100,301.897 321.851 C 302.390 321.603,302.795 321.265,302.797 321.100 C 302.799 320.935,303.160 320.800,303.600 320.800 C 304.040 320.800,304.400 320.664,304.400 320.498 C 304.400 320.331,304.985 319.940,305.700 319.628 C 306.415 319.316,307.291 318.732,307.647 318.330 C 308.003 317.929,308.588 317.600,308.947 317.600 C 309.306 317.600,309.600 317.420,309.600 317.200 C 309.600 316.980,309.960 316.800,310.400 316.800 C 310.840 316.800,311.200 316.620,311.200 316.400 C 311.200 316.180,311.560 316.000,312.000 316.000 C 312.440 316.000,312.800 315.820,312.800 315.600 C 312.800 315.380,313.036 315.200,313.325 315.200 C 313.613 315.200,314.236 314.840,314.708 314.400 C 315.180 313.960,315.844 313.600,316.183 313.600 C 316.522 313.600,316.800 313.420,316.800 313.200 C 316.800 312.980,317.160 312.800,317.600 312.800 C 318.040 312.800,318.400 312.620,318.400 312.400 C 318.400 312.180,318.720 312.000,319.112 312.000 C 319.503 312.000,320.083 311.640,320.400 311.200 C 320.717 310.760,321.297 310.400,321.688 310.400 C 322.080 310.400,322.400 310.220,322.400 310.000 C 322.400 309.780,322.760 309.600,323.200 309.600 C 323.640 309.600,324.000 309.420,324.000 309.200 C 324.000 308.980,324.270 308.800,324.600 308.800 C 324.930 308.800,325.200 308.620,325.200 308.400 C 325.200 308.180,325.547 308.000,325.971 308.000 C 326.396 308.000,327.013 307.730,327.343 307.400 C 327.673 307.070,328.226 306.800,328.571 306.800 C 328.917 306.800,329.200 306.620,329.200 306.400 C 329.200 306.180,329.545 306.000,329.967 306.000 C 330.388 306.000,330.793 305.865,330.867 305.700 C 331.034 305.324,333.164 304.025,334.100 303.729 C 334.485 303.607,334.800 303.348,334.800 303.153 C 334.800 302.959,335.160 302.800,335.600 302.800 C 336.040 302.800,336.400 302.632,336.400 302.426 C 336.400 302.220,337.020 301.827,337.779 301.553 C 338.537 301.279,339.066 300.907,338.955 300.727 C 338.844 300.547,339.123 300.400,339.576 300.400 C 340.029 300.400,340.400 300.220,340.400 300.000 C 340.400 299.780,340.670 299.600,341.000 299.600 C 341.330 299.600,341.600 299.420,341.600 299.200 C 341.600 298.980,341.960 298.800,342.400 298.800 C 342.840 298.800,343.200 298.620,343.200 298.400 C 343.200 298.180,343.560 298.000,344.000 298.000 C 344.440 298.000,344.800 297.820,344.800 297.600 C 344.800 297.380,345.036 297.200,345.325 297.200 C 345.613 297.200,346.236 296.840,346.708 296.400 C 347.180 295.960,347.844 295.600,348.183 295.600 C 348.522 295.600,348.800 295.420,348.800 295.200 C 348.800 294.980,349.120 294.800,349.512 294.800 C 349.903 294.800,350.483 294.440,350.800 294.000 C 351.117 293.560,351.625 293.200,351.928 293.200 C 353.401 293.200,356.828 288.416,358.196 284.450 C 359.620 280.323,358.989 114.400,357.549 114.400 C 357.371 114.400,357.334 114.117,357.466 113.771 C 357.599 113.425,357.324 112.623,356.854 111.987 C 356.384 111.352,356.000 110.722,356.000 110.588 C 356.000 109.588,354.698 109.074,353.981 109.791 M41.200 282.376 C 41.200 282.803,41.380 283.264,41.600 283.400 C 41.827 283.540,42.000 283.204,42.000 282.624 C 42.000 282.061,41.820 281.600,41.600 281.600 C 41.380 281.600,41.200 281.949,41.200 282.376 " stroke="none" fill="#333f9f" fill-rule="evenodd"></path><path id="path3" d="M197.500 83.096 C 198.875 83.174,201.125 83.174,202.500 83.096 C 203.875 83.018,202.750 82.954,200.000 82.954 C 197.250 82.954,196.125 83.018,197.500 83.096 M189.511 83.493 C 190.451 83.578,191.891 83.577,192.711 83.491 C 193.530 83.405,192.760 83.336,191.000 83.337 C 189.240 83.339,188.570 83.409,189.511 83.493 M207.511 83.493 C 208.451 83.578,209.891 83.577,210.711 83.491 C 211.530 83.405,210.760 83.336,209.000 83.337 C 207.240 83.339,206.570 83.409,207.511 83.493 M182.700 84.282 C 183.195 84.378,184.005 84.378,184.500 84.282 C 184.995 84.187,184.590 84.109,183.600 84.109 C 182.610 84.109,182.205 84.187,182.700 84.282 M214.833 84.144 C 214.925 84.223,216.170 84.386,217.600 84.506 C 219.160 84.637,219.800 84.595,219.200 84.402 C 218.212 84.084,214.511 83.865,214.833 84.144 M176.600 85.210 C 176.066 85.447,176.398 85.486,177.600 85.327 C 178.590 85.196,179.475 85.024,179.567 84.944 C 179.914 84.643,177.364 84.872,176.600 85.210 M220.433 84.944 C 220.525 85.024,221.410 85.196,222.400 85.327 C 223.602 85.486,223.934 85.447,223.400 85.210 C 222.636 84.872,220.086 84.643,220.433 84.944 M173.200 86.006 C 172.778 86.282,173.015 86.323,174.000 86.142 C 175.725 85.825,176.051 85.598,174.767 85.606 C 174.235 85.609,173.530 85.789,173.200 86.006 M170.000 86.818 C 169.562 87.115,169.724 87.152,170.600 86.956 C 172.071 86.627,172.390 86.398,171.367 86.406 C 170.945 86.409,170.330 86.595,170.000 86.818 M228.000 86.555 C 228.000 86.640,228.530 86.787,229.179 86.882 C 229.827 86.977,230.267 86.908,230.155 86.728 C 229.957 86.407,228.000 86.250,228.000 86.555 M167.000 87.600 C 166.708 88.073,167.099 88.073,168.200 87.600 C 168.971 87.269,168.969 87.255,168.124 87.228 C 167.642 87.213,167.136 87.380,167.000 87.600 M141.900 98.229 C 140.405 99.040,140.496 99.378,142.000 98.600 C 142.660 98.259,143.200 97.894,143.200 97.790 C 143.200 97.532,143.157 97.547,141.900 98.229 M256.800 97.779 C 256.800 97.889,257.340 98.259,258.000 98.600 C 258.660 98.941,259.200 99.131,259.200 99.021 C 259.200 98.911,258.660 98.541,258.000 98.200 C 257.340 97.859,256.800 97.669,256.800 97.779 M137.995 100.654 C 135.612 102.231,134.249 103.410,136.200 102.206 C 139.475 100.183,140.815 99.200,140.295 99.200 C 140.237 99.200,139.202 99.854,137.995 100.654 M260.200 99.807 C 260.640 100.166,261.360 100.635,261.800 100.851 L 262.600 101.244 261.800 100.593 C 261.360 100.234,260.640 99.765,260.200 99.549 L 259.400 99.156 260.200 99.807 M130.905 105.325 C 130.193 105.806,129.608 106.347,129.605 106.527 C 129.599 106.888,131.835 105.390,132.212 104.781 C 132.534 104.260,132.396 104.317,130.905 105.325 M267.769 104.749 C 268.159 105.382,270.401 106.899,270.395 106.527 C 270.392 106.347,269.743 105.781,268.952 105.268 C 268.160 104.755,267.628 104.522,267.769 104.749 M121.715 113.100 C 119.737 115.001,119.675 115.094,121.361 113.637 C 124.224 111.160,124.603 110.800,124.340 110.800 C 124.213 110.800,123.032 111.835,121.715 113.100 M276.000 111.268 C 277.662 112.944,280.855 115.621,279.800 114.453 C 279.140 113.723,277.880 112.572,277.000 111.894 C 276.120 111.217,275.670 110.935,276.000 111.268 M114.010 120.590 C 112.820 121.795,111.926 122.836,112.023 122.905 C 112.121 122.973,113.174 121.988,114.363 120.715 C 117.106 117.781,116.867 117.697,114.010 120.590 M286.173 121.200 C 288.900 124.271,289.548 124.874,288.106 123.000 C 287.428 122.120,286.277 120.860,285.547 120.200 C 284.776 119.503,285.039 119.923,286.173 121.200 M105.268 131.048 C 104.755 131.840,104.522 132.372,104.749 132.231 C 105.382 131.841,106.899 129.599,106.527 129.605 C 106.347 129.608,105.781 130.257,105.268 131.048 M293.991 130.788 C 295.228 132.524,295.825 132.734,294.732 131.048 C 294.219 130.257,293.653 129.608,293.473 129.605 C 293.293 129.602,293.526 130.135,293.991 130.788 M101.046 137.400 C 100.691 137.950,100.109 138.895,99.753 139.500 L 99.105 140.600 99.910 139.626 C 100.860 138.476,102.121 136.400,101.869 136.400 C 101.771 136.400,101.401 136.850,101.046 137.400 M298.615 137.500 C 299.956 139.585,300.400 140.177,300.400 139.880 C 300.400 139.496,298.355 136.400,298.101 136.400 C 297.995 136.400,298.226 136.895,298.615 137.500 M98.200 142.000 C 97.859 142.660,97.669 143.200,97.779 143.200 C 97.889 143.200,98.259 142.660,98.600 142.000 C 98.941 141.340,99.131 140.800,99.021 140.800 C 98.911 140.800,98.541 141.340,98.200 142.000 M196.600 142.022 C 194.524 142.198,195.395 142.277,199.967 142.329 C 203.358 142.368,206.058 142.334,205.967 142.254 C 205.622 141.952,199.293 141.795,196.600 142.022 M189.400 142.800 C 188.311 143.077,188.293 143.107,189.200 143.125 C 189.750 143.135,190.560 142.989,191.000 142.800 C 191.986 142.376,191.066 142.376,189.400 142.800 M208.800 142.779 C 209.130 143.004,209.925 143.191,210.567 143.194 C 212.104 143.202,211.784 142.970,209.800 142.638 C 208.654 142.446,208.370 142.486,208.800 142.779 M185.800 143.600 C 185.029 143.931,185.031 143.945,185.876 143.972 C 186.358 143.987,186.864 143.820,187.000 143.600 C 187.292 143.127,186.901 143.127,185.800 143.600 M220.800 145.789 C 220.800 146.106,223.700 147.233,223.928 147.005 C 224.041 146.892,224.035 146.800,223.916 146.800 C 223.796 146.800,223.046 146.528,222.249 146.195 C 221.452 145.862,220.800 145.679,220.800 145.789 M167.065 152.022 C 164.053 154.179,164.156 154.446,167.200 152.368 C 169.323 150.919,169.920 150.400,169.465 150.400 C 169.391 150.400,168.311 151.130,167.065 152.022 M230.400 150.542 C 230.400 150.645,231.525 151.477,232.900 152.389 C 234.674 153.567,234.993 153.701,234.000 152.852 C 232.519 151.587,230.400 150.227,230.400 150.542 M162.000 156.043 L 159.800 158.077 161.899 156.402 C 163.756 154.920,164.696 153.991,164.324 154.004 C 164.256 154.007,163.210 154.924,162.000 156.043 M235.600 154.114 C 235.600 154.218,236.628 155.180,237.884 156.251 C 239.140 157.323,240.039 157.991,239.883 157.736 C 239.539 157.177,235.600 153.846,235.600 154.114 M156.768 161.100 C 154.630 163.495,153.821 164.517,154.264 164.263 C 154.519 164.117,155.481 163.098,156.401 161.999 C 158.168 159.888,158.437 159.230,156.768 161.100 M243.749 162.116 C 244.820 163.372,245.782 164.400,245.886 164.400 C 246.154 164.400,242.823 160.461,242.264 160.117 C 242.009 159.961,242.677 160.860,243.749 162.116 M152.298 166.700 C 150.689 168.930,150.283 169.600,150.541 169.600 C 150.645 169.600,151.467 168.520,152.368 167.200 C 154.313 164.351,154.260 163.979,152.298 166.700 M247.602 167.156 C 249.158 169.436,250.382 170.201,250.964 169.258 C 251.081 169.070,250.770 168.993,250.275 169.088 C 249.550 169.226,249.118 168.865,248.065 167.240 C 247.345 166.129,246.571 165.105,246.345 164.966 C 246.119 164.826,246.684 165.812,247.602 167.156 M86.649 170.215 C 86.512 170.573,86.415 171.166,86.434 171.533 C 86.453 171.900,86.627 171.669,86.821 171.020 C 87.198 169.758,87.065 169.133,86.649 170.215 M85.856 173.284 C 85.721 173.788,85.627 174.560,85.646 175.000 C 85.665 175.440,85.845 175.098,86.046 174.240 C 86.436 172.578,86.270 171.740,85.856 173.284 M85.056 176.884 C 84.921 177.388,84.828 178.250,84.849 178.800 C 84.872 179.389,85.031 179.071,85.236 178.025 C 85.603 176.152,85.473 175.327,85.056 176.884 M146.250 177.591 C 145.347 179.847,145.487 180.183,146.437 178.042 C 146.866 177.075,147.145 176.212,147.058 176.125 C 146.971 176.038,146.608 176.698,146.250 177.591 M84.253 181.236 C 84.114 181.931,84.023 183.153,84.051 183.950 C 84.085 184.930,84.210 184.563,84.435 182.818 C 84.789 180.083,84.677 179.113,84.253 181.236 M143.646 185.467 C 143.621 185.724,143.484 186.264,143.341 186.667 C 143.140 187.236,143.194 187.297,143.579 186.942 C 143.852 186.691,143.989 186.151,143.884 185.742 C 143.779 185.334,143.672 185.210,143.646 185.467 M83.337 191.000 C 83.339 192.760,83.409 193.430,83.493 192.489 C 83.578 191.549,83.577 190.109,83.491 189.289 C 83.405 188.470,83.336 189.240,83.337 191.000 M142.849 189.000 C 142.816 189.440,142.696 190.250,142.583 190.800 L 142.377 191.800 142.806 190.819 C 143.042 190.279,143.161 189.469,143.072 189.019 C 142.913 188.221,142.907 188.221,142.849 189.000 M141.940 197.100 C 141.850 198.805,141.888 201.550,142.024 203.200 C 142.221 205.595,142.284 204.970,142.335 200.100 C 142.405 193.556,142.206 192.046,141.940 197.100 M82.954 200.000 C 82.954 202.750,83.018 203.875,83.096 202.500 C 83.174 201.125,83.174 198.875,83.096 197.500 C 83.018 196.125,82.954 197.250,82.954 200.000 M83.337 209.000 C 83.339 210.760,83.409 211.430,83.493 210.489 C 83.578 209.549,83.577 208.109,83.491 207.289 C 83.405 206.470,83.336 207.240,83.337 209.000 M142.638 209.800 C 142.970 211.784,143.202 212.104,143.194 210.567 C 143.191 209.925,143.004 209.130,142.779 208.800 C 142.486 208.370,142.446 208.654,142.638 209.800 M143.228 213.076 C 143.318 214.115,143.944 214.996,143.972 214.124 C 143.987 213.642,143.820 213.136,143.600 213.000 C 143.380 212.864,143.213 212.898,143.228 213.076 M84.109 216.400 C 84.109 217.390,84.187 217.795,84.282 217.300 C 84.378 216.805,84.378 215.995,84.282 215.500 C 84.187 215.005,84.109 215.410,84.109 216.400 M84.828 221.433 C 84.844 222.075,85.016 222.960,85.210 223.400 C 85.447 223.934,85.486 223.602,85.327 222.400 C 85.046 220.280,84.788 219.780,84.828 221.433 M85.628 225.233 C 85.644 225.765,85.819 226.560,86.019 227.000 C 86.271 227.558,86.307 227.315,86.138 226.200 C 85.855 224.343,85.587 223.836,85.628 225.233 M86.406 228.633 C 86.409 229.055,86.595 229.670,86.818 230.000 C 87.115 230.438,87.152 230.276,86.956 229.400 C 86.627 227.929,86.398 227.610,86.406 228.633 M158.600 241.200 C 159.906 242.520,161.065 243.600,161.175 243.600 C 161.285 243.600,160.306 242.520,159.000 241.200 C 157.694 239.880,156.535 238.800,156.425 238.800 C 156.315 238.800,157.294 239.880,158.600 241.200 M240.987 241.300 L 238.600 243.800 241.100 241.413 C 242.475 240.099,243.600 238.974,243.600 238.913 C 243.600 238.617,243.205 238.978,240.987 241.300 M196.705 258.283 C 197.202 258.379,197.922 258.375,198.305 258.275 C 198.687 258.175,198.280 258.096,197.400 258.101 C 196.520 258.105,196.207 258.187,196.705 258.283 M201.905 258.283 C 202.402 258.379,203.122 258.375,203.505 258.275 C 203.887 258.175,203.480 258.096,202.600 258.101 C 201.720 258.105,201.407 258.187,201.905 258.283 M112.400 277.325 C 112.400 277.394,112.985 277.979,113.700 278.625 L 115.000 279.800 113.825 278.500 C 112.730 277.288,112.400 277.016,112.400 277.325 M286.175 278.500 L 285.000 279.800 286.300 278.625 C 287.015 277.979,287.600 277.394,287.600 277.325 C 287.600 277.016,287.270 277.288,286.175 278.500 M120.400 285.325 C 120.400 285.394,120.985 285.979,121.700 286.625 L 123.000 287.800 121.825 286.500 C 120.730 285.288,120.400 285.016,120.400 285.325 M278.175 286.500 L 277.000 287.800 278.300 286.625 C 279.015 285.979,279.600 285.394,279.600 285.325 C 279.600 285.016,279.270 285.288,278.175 286.500 M197.100 316.697 C 198.695 316.773,201.305 316.773,202.900 316.697 C 204.495 316.621,203.190 316.559,200.000 316.559 C 196.810 316.559,195.505 316.621,197.100 316.697 " stroke="none" fill="#8c94cd" fill-rule="evenodd"></path><path id="path4" d="M196.900 83.497 C 198.605 83.572,201.395 83.572,203.100 83.497 C 204.805 83.422,203.410 83.361,200.000 83.361 C 196.590 83.361,195.195 83.422,196.900 83.497 M186.400 84.000 L 185.000 84.295 186.400 84.318 C 187.170 84.330,188.610 84.197,189.600 84.020 L 191.400 83.700 189.600 83.703 C 188.610 83.704,187.170 83.838,186.400 84.000 M210.400 84.020 C 211.390 84.197,212.830 84.333,213.600 84.324 L 215.000 84.308 213.400 83.977 C 212.520 83.795,211.080 83.658,210.200 83.673 L 208.600 83.700 210.400 84.020 M180.600 84.800 L 179.400 85.105 180.600 85.113 C 181.260 85.117,182.250 84.976,182.800 84.800 L 183.800 84.480 182.800 84.487 C 182.250 84.491,181.260 84.632,180.600 84.800 M217.000 84.800 C 217.660 84.968,218.740 85.105,219.400 85.105 L 220.600 85.105 219.400 84.800 C 218.740 84.632,217.660 84.495,217.000 84.495 L 215.800 84.495 217.000 84.800 M176.400 85.600 L 175.400 85.920 176.400 85.932 C 176.950 85.938,177.760 85.789,178.200 85.600 L 179.000 85.256 178.200 85.268 C 177.760 85.274,176.950 85.424,176.400 85.600 M221.800 85.600 C 222.240 85.789,223.050 85.938,223.600 85.932 L 224.600 85.920 223.600 85.600 C 223.050 85.424,222.240 85.274,221.800 85.268 L 221.000 85.256 221.800 85.600 M172.800 86.400 L 171.800 86.720 172.800 86.754 C 173.350 86.773,174.070 86.613,174.400 86.400 C 175.164 85.906,174.342 85.906,172.800 86.400 M225.800 86.400 C 226.240 86.589,226.960 86.744,227.400 86.744 L 228.200 86.744 227.400 86.400 C 226.960 86.211,226.240 86.056,225.800 86.056 L 225.000 86.056 225.800 86.400 M169.600 87.200 C 168.796 87.457,168.757 87.523,169.400 87.532 C 169.840 87.538,170.560 87.389,171.000 87.200 C 172.019 86.762,170.968 86.762,169.600 87.200 M229.000 87.200 C 229.440 87.389,230.160 87.544,230.600 87.544 L 231.400 87.544 230.600 87.200 C 230.160 87.011,229.440 86.856,229.000 86.856 L 228.200 86.856 229.000 87.200 M166.800 88.000 C 165.976 88.264,165.941 88.326,166.600 88.354 C 167.040 88.373,167.670 88.213,168.000 88.000 C 168.701 87.547,168.214 87.547,166.800 88.000 M232.000 88.000 C 232.330 88.213,232.960 88.378,233.400 88.366 L 234.200 88.344 233.400 88.000 C 232.204 87.486,231.205 87.486,232.000 88.000 M164.200 88.800 C 163.429 89.131,163.431 89.145,164.276 89.172 C 164.758 89.187,165.264 89.020,165.400 88.800 C 165.692 88.327,165.301 88.327,164.200 88.800 M234.600 88.800 C 234.736 89.020,235.242 89.187,235.724 89.172 C 236.569 89.145,236.571 89.131,235.800 88.800 C 234.699 88.327,234.308 88.327,234.600 88.800 M156.800 91.423 C 152.698 93.098,150.800 93.979,150.800 94.209 C 150.800 94.421,152.216 93.889,154.924 92.658 C 156.066 92.138,157.720 91.471,158.600 91.175 C 160.204 90.635,161.318 89.984,160.580 90.017 C 160.371 90.027,158.670 90.659,156.800 91.423 M239.400 90.400 C 239.536 90.620,239.899 90.800,240.206 90.800 C 240.924 90.800,248.439 94.009,252.480 96.040 C 254.196 96.903,255.600 97.514,255.600 97.397 C 255.600 96.888,240.491 90.000,239.374 90.000 C 239.252 90.000,239.264 90.180,239.400 90.400 M147.900 95.426 C 146.855 95.970,146.000 96.505,146.000 96.614 C 146.000 96.793,149.960 94.923,150.367 94.552 C 150.862 94.101,149.561 94.562,147.900 95.426 M140.800 99.253 C 139.370 100.137,138.020 101.059,137.800 101.303 C 137.580 101.547,137.850 101.470,138.400 101.132 C 138.950 100.793,140.435 99.933,141.700 99.220 C 143.861 98.002,144.404 97.568,143.700 97.623 C 143.535 97.636,142.230 98.370,140.800 99.253 M256.220 97.940 C 256.859 98.512,261.200 100.873,261.200 100.649 C 261.200 100.533,260.110 99.800,258.779 99.019 C 256.457 97.658,255.413 97.218,256.220 97.940 M261.600 100.935 C 261.600 101.035,262.544 101.720,263.697 102.458 C 275.428 109.965,290.490 124.943,297.159 135.733 C 298.252 137.502,298.748 137.713,297.723 135.973 C 294.191 129.980,284.489 118.827,277.362 112.570 C 271.959 107.825,261.600 100.179,261.600 100.935 M134.789 103.065 C 130.038 106.258,120.885 113.803,117.600 117.234 C 111.726 123.369,110.145 125.216,105.754 131.073 C 102.983 134.769,101.393 137.200,101.745 137.200 C 101.849 137.200,102.343 136.540,102.841 135.733 C 109.225 125.404,123.037 111.489,135.212 103.121 C 135.755 102.748,136.105 102.433,135.989 102.421 C 135.873 102.409,135.333 102.699,134.789 103.065 M299.174 138.861 L 300.017 140.321 298.908 141.183 C 297.871 141.989,297.864 142.013,298.800 141.562 C 300.556 140.716,300.590 140.123,298.995 138.200 C 298.613 137.740,298.689 138.021,299.174 138.861 M99.002 141.250 C 98.213 142.597,97.650 143.783,97.751 143.884 C 97.852 143.986,98.154 143.648,98.423 143.134 C 98.691 142.620,99.352 141.435,99.893 140.500 C 100.434 139.565,100.778 138.800,100.657 138.800 C 100.537 138.800,99.792 139.902,99.002 141.250 M193.695 141.789 C 191.218 142.057,189.058 142.411,188.895 142.575 C 188.733 142.740,189.410 142.759,190.400 142.617 C 194.846 141.978,200.312 141.744,203.900 142.038 C 206.045 142.214,208.610 142.474,209.600 142.617 C 210.590 142.759,211.273 142.746,211.117 142.588 C 210.804 142.270,201.296 141.193,199.400 141.260 C 198.740 141.284,196.173 141.522,193.695 141.789 M185.200 143.290 C 181.361 144.408,176.400 146.262,176.400 146.577 C 176.400 146.669,177.843 146.217,179.607 145.574 C 181.372 144.930,184.117 144.053,185.707 143.626 C 187.298 143.198,188.150 142.856,187.600 142.865 C 187.050 142.874,185.970 143.065,185.200 143.290 M212.200 143.071 C 212.848 143.216,218.108 144.783,221.488 145.838 C 222.064 146.018,222.085 145.988,221.600 145.680 C 221.075 145.347,218.699 144.506,214.572 143.191 C 213.896 142.976,212.906 142.821,212.372 142.846 C 211.564 142.885,211.535 142.923,212.200 143.071 M293.500 144.229 C 292.005 145.040,292.096 145.378,293.600 144.600 C 294.260 144.259,294.800 143.894,294.800 143.790 C 294.800 143.532,294.757 143.547,293.500 144.229 M95.779 147.241 C 94.992 148.804,94.414 150.147,94.494 150.227 C 94.573 150.307,95.303 149.028,96.116 147.386 C 96.929 145.744,97.507 144.400,97.402 144.400 C 97.296 144.400,96.566 145.678,95.779 147.241 M222.433 146.134 C 222.525 146.207,224.580 147.293,227.000 148.546 C 229.420 149.799,230.951 150.470,230.402 150.037 C 229.355 149.210,223.141 146.000,222.588 146.000 C 222.411 146.000,222.342 146.060,222.433 146.134 M172.200 148.460 C 168.047 150.806,168.047 151.177,172.200 148.974 C 176.327 146.784,176.324 146.787,175.567 146.840 C 175.255 146.861,173.740 147.591,172.200 148.460 M287.900 147.429 C 286.405 148.240,286.496 148.578,288.000 147.800 C 288.660 147.459,289.200 147.094,289.200 146.990 C 289.200 146.732,289.157 146.747,287.900 147.429 M285.100 149.029 C 283.605 149.840,283.696 150.178,285.200 149.400 C 285.860 149.059,286.400 148.694,286.400 148.590 C 286.400 148.332,286.357 148.347,285.100 149.029 M282.300 150.629 C 281.695 150.957,281.200 151.310,281.200 151.413 C 281.200 151.799,281.832 151.557,282.800 150.800 C 283.989 149.870,283.811 149.809,282.300 150.629 M93.246 152.500 C 91.696 155.902,89.973 160.506,90.175 160.708 C 90.288 160.822,90.492 160.574,90.627 160.157 C 90.934 159.213,92.890 154.308,93.761 152.300 C 94.660 150.225,94.200 150.404,93.246 152.500 M165.170 153.014 C 160.150 156.756,153.105 164.214,151.014 168.000 C 150.460 169.003,151.326 167.993,153.415 165.200 C 156.271 161.383,160.539 157.063,164.400 154.083 C 168.346 151.037,168.632 150.800,168.350 150.800 C 168.235 150.800,166.804 151.796,165.170 153.014 M231.800 151.071 C 232.020 151.284,233.730 152.640,235.600 154.083 C 240.485 157.853,246.894 164.781,248.753 168.300 C 249.014 168.795,249.537 169.198,249.914 169.196 C 250.604 169.192,254.800 166.953,254.800 166.588 C 254.800 166.481,253.840 166.935,252.668 167.597 C 250.565 168.783,249.200 169.123,249.200 168.461 C 249.200 166.842,240.454 157.298,235.600 153.619 C 232.688 151.412,230.952 150.248,231.800 151.071 M278.500 152.812 C 277.345 153.474,276.400 154.110,276.400 154.225 C 276.400 154.443,279.921 152.514,280.580 151.934 C 281.281 151.318,280.615 151.599,278.500 152.812 M274.400 155.236 C 273.736 155.779,273.669 155.915,274.200 155.640 C 275.505 154.966,276.228 154.412,275.800 154.415 C 275.580 154.417,274.950 154.786,274.400 155.236 M271.600 156.836 C 270.936 157.379,270.869 157.515,271.400 157.240 C 272.705 156.566,273.428 156.012,273.000 156.015 C 272.780 156.017,272.150 156.386,271.600 156.836 M268.800 158.436 C 268.136 158.979,268.069 159.115,268.600 158.840 C 269.905 158.166,270.628 157.612,270.200 157.615 C 269.980 157.617,269.350 157.986,268.800 158.436 M266.000 160.033 L 265.000 160.848 266.300 160.214 C 267.015 159.865,267.600 159.494,267.600 159.390 C 267.600 158.992,266.963 159.248,266.000 160.033 M263.200 161.633 L 262.200 162.448 263.500 161.814 C 264.215 161.465,264.800 161.094,264.800 160.990 C 264.800 160.592,264.163 160.848,263.200 161.633 M88.846 163.867 C 88.821 164.124,88.684 164.664,88.541 165.067 C 88.340 165.636,88.394 165.697,88.779 165.342 C 89.052 165.091,89.189 164.551,89.084 164.142 C 88.979 163.734,88.872 163.610,88.846 163.867 M257.600 164.833 L 256.600 165.648 257.900 165.014 C 258.615 164.665,259.200 164.294,259.200 164.190 C 259.200 163.792,258.563 164.048,257.600 164.833 M87.829 167.029 C 87.681 167.615,87.651 168.184,87.761 168.294 C 87.871 168.404,88.081 168.015,88.229 167.429 C 88.376 166.842,88.406 166.273,88.296 166.163 C 88.186 166.053,87.976 166.442,87.829 167.029 M87.050 170.050 C 86.717 171.717,87.040 172.040,87.400 170.400 C 87.552 169.709,87.593 169.059,87.491 168.958 C 87.389 168.856,87.191 169.347,87.050 170.050 M149.116 171.100 C 147.218 174.400,146.642 175.576,146.833 175.763 C 146.925 175.853,147.852 174.323,148.893 172.363 C 151.009 168.378,151.155 167.554,149.116 171.100 M86.449 172.400 C 86.416 172.730,86.289 173.450,86.167 174.000 C 85.975 174.864,86.007 174.903,86.399 174.288 C 86.648 173.897,86.775 173.177,86.681 172.688 C 86.586 172.200,86.482 172.070,86.449 172.400 M85.422 177.022 C 85.272 177.825,85.238 178.572,85.348 178.682 C 85.458 178.792,85.672 178.225,85.822 177.422 C 85.973 176.619,86.006 175.873,85.896 175.763 C 85.786 175.653,85.573 176.219,85.422 177.022 M145.092 179.691 C 144.748 180.631,144.249 182.120,143.983 183.000 C 143.716 183.880,143.341 185.013,143.149 185.519 C 142.957 186.024,142.811 186.924,142.824 187.519 C 142.838 188.148,143.166 187.429,143.606 185.800 C 144.023 184.260,144.733 181.935,145.183 180.634 C 145.634 179.333,145.938 178.204,145.859 178.125 C 145.780 178.047,145.435 178.751,145.092 179.691 M84.618 181.418 C 84.465 182.439,84.430 183.363,84.540 183.473 C 84.650 183.583,84.865 182.839,85.018 181.818 C 85.171 180.798,85.206 179.873,85.096 179.763 C 84.986 179.653,84.771 180.398,84.618 181.418 M83.899 186.600 C 83.739 187.480,83.628 188.920,83.651 189.800 C 83.691 191.301,83.716 191.263,84.061 189.200 C 84.263 187.990,84.374 186.550,84.309 186.000 C 84.216 185.226,84.124 185.362,83.899 186.600 M142.227 190.100 C 141.147 196.820,141.372 209.918,142.589 211.118 C 142.746 211.273,142.759 210.590,142.617 209.600 C 141.711 203.288,141.706 196.716,142.604 190.500 C 142.739 189.565,142.756 188.800,142.643 188.800 C 142.529 188.800,142.342 189.385,142.227 190.100 M83.361 200.000 C 83.361 203.410,83.422 204.805,83.497 203.100 C 83.572 201.395,83.572 198.605,83.497 196.900 C 83.422 195.195,83.361 196.590,83.361 200.000 M83.673 210.200 C 83.658 211.080,83.795 212.520,83.977 213.400 L 84.308 215.000 84.324 213.600 C 84.333 212.830,84.197 211.390,84.020 210.400 L 83.700 208.600 83.673 210.200 M142.824 212.080 C 142.779 213.339,144.372 218.720,145.802 222.142 C 146.913 224.801,146.763 223.651,145.574 220.393 C 144.930 218.628,144.053 215.883,143.626 214.293 C 143.198 212.702,142.838 211.706,142.824 212.080 M84.495 217.000 C 84.495 217.660,84.632 218.740,84.800 219.400 L 85.105 220.600 85.105 219.400 C 85.105 218.740,84.968 217.660,84.800 217.000 L 84.495 215.800 84.495 217.000 M85.268 221.800 C 85.274 222.240,85.424 223.050,85.600 223.600 L 85.920 224.600 85.932 223.600 C 85.938 223.050,85.789 222.240,85.600 221.800 L 85.256 221.000 85.268 221.800 M146.818 224.239 C 146.793 224.857,148.044 227.289,148.271 227.063 C 148.374 226.960,148.093 226.184,147.647 225.338 C 147.200 224.492,146.827 223.997,146.818 224.239 M86.046 225.600 C 86.065 225.930,86.224 226.650,86.400 227.200 L 86.720 228.200 86.754 227.200 C 86.773 226.650,86.613 225.930,86.400 225.600 C 86.055 225.067,86.016 225.067,86.046 225.600 M86.868 228.800 C 86.888 229.839,87.518 231.546,87.532 230.600 C 87.538 230.160,87.389 229.440,87.200 229.000 C 86.989 228.510,86.861 228.432,86.868 228.800 M150.030 230.700 C 151.132 232.545,153.750 236.150,155.269 237.914 C 157.122 240.067,156.551 238.974,154.527 236.494 C 153.496 235.232,151.946 233.075,151.082 231.700 C 149.397 229.020,148.541 228.205,150.030 230.700 M249.928 230.315 C 249.615 230.692,248.884 231.744,248.304 232.654 C 247.724 233.564,246.428 235.316,245.425 236.549 C 244.421 237.781,243.600 238.901,243.600 239.038 C 243.600 239.481,246.793 235.477,248.650 232.704 L 250.456 230.008 251.628 230.614 C 252.273 230.948,252.800 231.131,252.800 231.021 C 252.800 230.244,250.464 229.670,249.928 230.315 M253.600 231.620 C 254.987 232.561,255.778 232.835,254.800 232.036 C 254.250 231.586,253.620 231.217,253.400 231.215 C 253.180 231.213,253.270 231.396,253.600 231.620 M87.634 232.000 C 87.646 232.330,87.811 232.960,88.000 233.400 L 88.344 234.200 88.366 233.400 C 88.378 232.960,88.213 232.330,88.000 232.000 C 87.655 231.467,87.615 231.467,87.634 232.000 M88.428 234.676 C 88.518 235.715,89.144 236.596,89.172 235.724 C 89.187 235.242,89.020 234.736,88.800 234.600 C 88.580 234.464,88.413 234.498,88.428 234.676 M262.000 236.179 C 262.000 236.289,262.540 236.659,263.200 237.000 C 263.860 237.341,264.400 237.531,264.400 237.421 C 264.400 237.311,263.860 236.941,263.200 236.600 C 262.540 236.259,262.000 236.069,262.000 236.179 M90.000 239.310 C 90.000 240.056,93.883 249.200,94.200 249.200 C 94.421 249.200,93.903 247.815,92.658 245.076 C 92.138 243.934,91.471 242.280,91.175 241.400 C 90.670 239.899,90.000 238.707,90.000 239.310 M271.600 241.567 C 272.563 242.352,273.200 242.608,273.200 242.210 C 273.200 242.106,272.615 241.735,271.900 241.386 L 270.600 240.752 271.600 241.567 M273.800 242.689 C 274.020 242.910,275.460 243.772,277.000 244.603 C 278.540 245.435,280.745 246.646,281.900 247.296 C 283.055 247.945,284.000 248.386,284.000 248.276 C 284.000 248.059,281.592 246.666,276.600 243.997 C 274.840 243.056,273.580 242.467,273.800 242.689 M162.086 244.719 C 163.920 246.281,166.486 248.209,167.200 248.563 C 167.530 248.726,167.260 248.441,166.600 247.930 C 165.940 247.418,164.458 246.235,163.306 245.300 C 160.985 243.416,160.012 242.953,162.086 244.719 M237.000 245.049 C 236.120 245.828,234.140 247.290,232.600 248.297 C 229.370 250.411,228.259 251.357,230.600 250.001 C 233.492 248.325,239.677 243.576,238.914 243.617 C 238.741 243.626,237.880 244.270,237.000 245.049 M284.800 248.822 C 285.833 249.526,288.400 250.825,288.400 250.642 C 288.400 250.433,284.805 248.397,284.450 248.406 C 284.312 248.409,284.470 248.596,284.800 248.822 M168.600 249.407 C 169.040 249.766,169.760 250.235,170.200 250.451 L 171.000 250.844 170.200 250.193 C 169.760 249.834,169.040 249.365,168.600 249.149 L 167.800 248.756 168.600 249.407 M94.400 249.743 C 94.400 250.178,97.187 255.600,97.410 255.600 C 97.520 255.600,96.957 254.295,96.158 252.700 C 94.660 249.707,94.400 249.270,94.400 249.743 M171.200 250.979 C 171.200 251.089,171.740 251.459,172.400 251.800 C 173.060 252.141,173.600 252.331,173.600 252.221 C 173.600 252.111,173.060 251.741,172.400 251.400 C 171.740 251.059,171.200 250.869,171.200 250.979 M227.500 251.429 C 226.005 252.240,226.096 252.578,227.600 251.800 C 228.260 251.459,228.800 251.094,228.800 250.990 C 228.800 250.732,228.757 250.747,227.500 251.429 M295.600 254.767 C 296.563 255.552,297.200 255.808,297.200 255.410 C 297.200 255.306,296.615 254.935,295.900 254.586 L 294.600 253.952 295.600 254.767 M98.657 257.791 C 99.213 258.786,99.747 259.600,99.842 259.600 C 100.123 259.600,98.448 256.477,98.029 256.218 C 97.818 256.088,98.101 256.795,98.657 257.791 M185.400 256.800 C 185.536 257.020,186.042 257.187,186.524 257.172 C 187.369 257.145,187.371 257.131,186.600 256.800 C 185.499 256.327,185.108 256.327,185.400 256.800 M213.400 256.800 C 212.629 257.131,212.631 257.145,213.476 257.172 C 213.958 257.187,214.464 257.020,214.600 256.800 C 214.892 256.327,214.501 256.327,213.400 256.800 M188.800 257.579 C 189.130 257.804,189.925 257.991,190.567 257.994 C 192.104 258.002,191.784 257.770,189.800 257.438 C 188.654 257.246,188.370 257.286,188.800 257.579 M209.400 257.600 L 208.200 257.905 209.400 257.947 C 210.060 257.969,210.870 257.813,211.200 257.600 C 211.943 257.120,211.287 257.120,209.400 257.600 M194.623 258.453 C 195.270 258.592,197.690 258.705,200.000 258.705 C 202.310 258.705,204.730 258.592,205.377 258.453 C 206.025 258.314,203.605 258.200,200.000 258.200 C 196.395 258.200,193.975 258.314,194.623 258.453 M101.600 262.587 C 101.600 262.901,104.912 267.622,105.301 267.862 C 105.500 267.986,104.813 266.807,103.773 265.243 C 102.025 262.614,101.600 262.095,101.600 262.587 M296.627 264.638 C 295.805 265.876,295.318 266.774,295.545 266.634 C 296.107 266.287,298.477 262.743,298.279 262.546 C 298.192 262.459,297.449 263.401,296.627 264.638 M111.600 276.017 C 111.600 276.520,123.510 288.400,124.014 288.400 C 124.234 288.400,122.746 286.884,120.707 285.031 C 118.668 283.179,116.658 281.244,116.240 280.731 C 114.576 278.693,111.600 275.669,111.600 276.017 M285.800 278.478 C 284.480 279.995,281.645 282.848,279.499 284.818 C 277.353 286.788,275.707 288.400,275.840 288.400 C 276.681 288.400,288.811 276.222,288.349 275.842 C 288.267 275.775,287.120 276.961,285.800 278.478 M265.095 296.288 C 263.608 297.298,262.463 298.196,262.551 298.284 C 262.731 298.464,267.524 295.246,267.842 294.732 C 268.154 294.228,268.006 294.312,265.095 296.288 M133.366 295.545 C 133.713 296.107,137.257 298.477,137.454 298.279 C 137.541 298.192,136.599 297.449,135.362 296.627 C 134.124 295.805,133.226 295.318,133.366 295.545 M257.500 301.077 C 256.456 301.658,255.663 302.197,255.740 302.273 C 255.900 302.434,259.600 300.414,259.600 300.166 C 259.600 299.915,259.543 299.940,257.500 301.077 M142.800 301.564 C 143.350 302.014,143.980 302.383,144.200 302.385 C 144.628 302.388,143.905 301.834,142.600 301.160 C 142.069 300.885,142.136 301.021,142.800 301.564 M144.800 302.588 C 144.800 302.698,145.880 303.334,147.200 304.000 C 148.520 304.666,149.600 305.122,149.600 305.012 C 149.600 304.902,148.520 304.266,147.200 303.600 C 145.880 302.934,144.800 302.478,144.800 302.588 M253.500 303.227 C 252.675 303.663,252.000 304.108,252.000 304.218 C 252.000 304.327,252.720 304.049,253.600 303.600 C 254.480 303.151,255.200 302.697,255.200 302.592 C 255.200 302.330,255.197 302.331,253.500 303.227 M150.054 305.387 C 150.390 305.723,153.200 306.816,153.200 306.611 C 153.200 306.501,152.548 306.138,151.751 305.805 C 150.275 305.189,149.718 305.051,150.054 305.387 M248.100 305.834 C 247.385 306.146,246.800 306.494,246.800 306.607 C 246.800 306.815,249.606 305.727,249.946 305.387 C 250.286 305.047,249.420 305.257,248.100 305.834 M170.400 312.800 C 170.730 313.013,171.270 313.188,171.600 313.188 C 172.133 313.188,172.133 313.145,171.600 312.800 C 171.270 312.587,170.730 312.412,170.400 312.412 C 169.867 312.412,169.867 312.455,170.400 312.800 M225.200 313.600 C 224.405 314.114,225.404 314.114,226.600 313.600 L 227.400 313.256 226.600 313.234 C 226.160 313.222,225.530 313.387,225.200 313.600 M177.400 314.400 C 177.840 314.589,178.560 314.738,179.000 314.732 C 179.643 314.723,179.604 314.657,178.800 314.400 C 177.432 313.962,176.381 313.962,177.400 314.400 M221.400 314.400 C 220.896 314.617,220.822 314.744,221.200 314.744 C 221.530 314.744,222.160 314.589,222.600 314.400 C 223.104 314.183,223.178 314.056,222.800 314.056 C 222.470 314.056,221.840 314.211,221.400 314.400 M182.000 315.200 C 182.550 315.376,183.450 315.517,184.000 315.513 C 184.898 315.506,184.878 315.474,183.800 315.200 C 182.108 314.769,180.656 314.769,182.000 315.200 M216.200 315.200 C 215.130 315.472,215.108 315.505,216.000 315.505 C 216.550 315.505,217.540 315.368,218.200 315.200 C 219.270 314.928,219.292 314.895,218.400 314.895 C 217.850 314.895,216.860 315.032,216.200 315.200 M188.200 316.014 C 189.784 316.350,193.888 316.535,193.567 316.255 C 193.475 316.175,191.870 316.012,190.000 315.892 C 187.627 315.740,187.083 315.777,188.200 316.014 M208.600 316.000 L 206.200 316.266 208.200 316.310 C 209.300 316.334,210.920 316.205,211.800 316.023 C 213.801 315.609,212.236 315.598,208.600 316.000 " stroke="none" fill="#a6aed9" fill-rule="evenodd"></path></g></svg>