<svg id="svg" version="1.1" xmlns="http://www.w3.org/2000/svg" xmlns:xlink="http://www.w3.org/1999/xlink" width="400" height="400" viewBox="0, 0, 400,400"><g id="svgg"><path id="path0" d="M161.813 108.437 C 131.423 108.488,123.498 108.566,123.489 108.813 C 123.483 108.985,124.015 116.391,124.672 125.271 L 125.867 141.418 183.230 141.589 C 214.779 141.683,240.648 141.815,240.716 141.882 C 240.783 141.950,240.287 149.429,239.613 158.503 L 238.388 175.000 200.069 175.000 L 161.750 175.000 161.768 175.938 C 161.778 176.453,162.144 183.906,162.581 192.500 L 163.375 208.125 200.075 208.188 L 236.775 208.252 236.630 209.688 C 236.551 210.478,235.975 218.887,235.351 228.375 C 234.727 237.863,234.139 245.704,234.045 245.800 C 233.952 245.896,226.246 248.580,216.921 251.764 L 199.967 257.552 182.921 251.738 C 173.546 248.540,165.857 245.913,165.835 245.899 C 165.785 245.869,164.996 226.924,164.998 225.813 L 165.000 225.000 148.375 225.000 C 132.707 225.000,131.750 225.025,131.755 225.438 C 131.785 228.377,134.269 270.615,134.420 270.755 C 134.533 270.861,149.342 275.784,167.330 281.697 L 200.035 292.448 232.705 281.702 C 250.674 275.792,265.474 270.862,265.594 270.746 C 265.715 270.631,267.199 247.775,268.892 219.956 C 270.586 192.136,272.821 155.804,273.861 139.217 C 274.900 122.630,275.750 108.877,275.750 108.655 C 275.750 108.215,284.534 108.232,161.813 108.437 " stroke="none" fill="#f4f5f5" fill-rule="evenodd"></path><path id="path1" d="M200.000 87.500 L 200.000 108.250 237.982 108.250 L 275.964 108.250 275.846 109.563 C 275.652 111.722,271.459 179.523,268.607 226.625 C 267.141 250.825,265.869 270.706,265.779 270.804 C 265.638 270.960,200.453 292.500,200.123 292.500 C 200.055 292.500,200.000 301.512,200.000 312.527 C 200.000 328.444,200.064 332.529,200.313 332.435 C 200.484 332.370,221.469 326.368,246.945 319.096 C 287.381 307.555,293.279 305.811,293.371 305.375 C 293.428 305.100,298.095 251.606,303.740 186.500 C 309.386 121.394,314.057 67.816,314.121 67.438 L 314.238 66.750 257.119 66.750 L 200.000 66.750 200.000 87.500 M200.000 158.375 L 200.000 175.000 219.105 175.000 L 238.210 175.000 238.362 173.438 C 238.445 172.578,238.960 165.800,239.506 158.375 C 240.052 150.950,240.568 144.172,240.653 143.313 L 240.808 141.750 220.404 141.750 L 200.000 141.750 200.000 158.375 M200.000 232.957 L 200.000 257.414 216.813 251.687 C 226.059 248.537,233.734 245.853,233.868 245.724 C 234.068 245.531,236.446 212.580,236.488 209.438 L 236.500 208.500 218.250 208.500 L 200.000 208.500 200.000 232.957 " stroke="none" fill="#049ce4" fill-rule="evenodd"></path><path id="path2" d="M58.251 41.813 C 58.253 42.576,83.227 325.058,83.297 325.109 C 83.340 325.140,109.616 332.658,141.687 341.815 L 200.000 358.464 258.312 341.815 C 290.384 332.658,316.660 325.140,316.703 325.109 C 316.773 325.058,341.747 42.576,341.749 41.813 C 341.750 41.563,313.234 41.500,200.000 41.500 C 86.766 41.500,58.250 41.563,58.251 41.813 M314.121 67.438 C 314.057 67.816,309.386 121.394,303.740 186.500 C 298.095 251.606,293.428 305.100,293.371 305.375 C 293.279 305.811,287.381 307.555,246.945 319.096 C 221.469 326.368,200.484 332.370,200.313 332.435 C 200.064 332.529,200.000 328.444,200.000 312.527 C 200.000 301.512,199.945 292.500,199.877 292.500 C 199.547 292.500,134.362 270.960,134.222 270.804 C 134.133 270.706,133.540 260.837,132.906 248.875 C 132.271 236.912,131.697 226.647,131.631 226.063 L 131.510 225.000 148.255 225.000 C 157.465 225.000,165.010 225.028,165.022 225.063 C 165.033 225.097,165.232 229.706,165.464 235.304 C 165.700 241.040,165.991 245.588,166.129 245.722 C 166.265 245.852,173.941 248.537,183.188 251.687 L 200.000 257.414 200.000 232.957 L 200.000 208.500 181.625 208.500 C 170.999 208.500,163.250 208.406,163.250 208.277 C 163.250 207.755,161.762 177.985,161.664 176.563 L 161.558 175.000 180.779 175.000 L 200.000 175.000 200.000 158.375 L 200.000 141.750 162.875 141.750 C 142.456 141.750,125.750 141.695,125.750 141.629 C 125.750 141.562,125.188 134.052,124.501 124.941 C 123.813 115.830,123.251 108.347,123.251 108.313 C 123.250 108.278,140.519 108.250,161.625 108.250 L 200.000 108.250 200.000 87.500 L 200.000 66.750 257.119 66.750 L 314.238 66.750 314.121 67.438 " stroke="none" fill="#0474bc" fill-rule="evenodd"></path><path id="path3" d="M123.414 108.438 C 123.309 108.607,149.451 108.606,186.250 108.435 C 193.881 108.400,182.891 108.344,161.827 108.310 C 140.763 108.277,123.477 108.334,123.414 108.438 M275.568 112.000 C 275.568 112.619,275.617 112.872,275.676 112.563 C 275.736 112.253,275.736 111.747,275.676 111.438 C 275.617 111.128,275.568 111.381,275.568 112.000 M275.318 116.000 C 275.318 116.619,275.367 116.872,275.426 116.563 C 275.486 116.253,275.486 115.747,275.426 115.438 C 275.367 115.128,275.318 115.381,275.318 116.000 M275.068 120.000 C 275.068 120.619,275.117 120.872,275.176 120.563 C 275.236 120.253,275.236 119.747,275.176 119.438 C 275.117 119.128,275.068 119.381,275.068 120.000 M274.818 124.000 C 274.818 124.619,274.867 124.872,274.926 124.563 C 274.986 124.253,274.986 123.747,274.926 123.438 C 274.867 123.128,274.818 123.381,274.818 124.000 M274.568 128.000 C 274.568 128.619,274.617 128.872,274.676 128.563 C 274.736 128.253,274.736 127.747,274.676 127.438 C 274.617 127.128,274.568 127.381,274.568 128.000 M274.318 132.000 C 274.318 132.619,274.367 132.872,274.426 132.563 C 274.486 132.253,274.486 131.747,274.426 131.438 C 274.367 131.128,274.318 131.381,274.318 132.000 M274.068 136.000 C 274.068 136.619,274.117 136.872,274.176 136.563 C 274.236 136.253,274.236 135.747,274.176 135.438 C 274.117 135.128,274.068 135.381,274.068 136.000 M273.818 140.000 C 273.818 140.619,273.867 140.872,273.926 140.563 C 273.986 140.253,273.986 139.747,273.926 139.438 C 273.867 139.128,273.818 139.381,273.818 140.000 M144.438 141.687 C 154.647 141.724,171.353 141.724,181.563 141.687 C 191.772 141.651,183.419 141.622,163.000 141.622 C 142.581 141.622,134.228 141.651,144.438 141.687 M273.568 144.000 C 273.568 144.619,273.617 144.872,273.676 144.563 C 273.736 144.253,273.736 143.747,273.676 143.438 C 273.617 143.128,273.568 143.381,273.568 144.000 M240.558 144.250 C 240.558 144.731,240.609 144.928,240.672 144.688 C 240.735 144.447,240.735 144.053,240.672 143.813 C 240.609 143.572,240.558 143.769,240.558 144.250 M240.308 147.500 C 240.308 147.981,240.359 148.178,240.422 147.938 C 240.485 147.697,240.485 147.303,240.422 147.063 C 240.359 146.822,240.308 147.019,240.308 147.500 M273.318 148.000 C 273.318 148.619,273.367 148.872,273.426 148.563 C 273.486 148.253,273.486 147.747,273.426 147.438 C 273.367 147.128,273.318 147.381,273.318 148.000 M240.058 151.000 C 240.058 151.481,240.109 151.678,240.172 151.438 C 240.235 151.197,240.235 150.803,240.172 150.563 C 240.109 150.322,240.058 150.519,240.058 151.000 M273.063 151.875 C 273.066 152.425,273.117 152.621,273.177 152.310 C 273.237 151.999,273.234 151.549,273.172 151.310 C 273.109 151.071,273.060 151.325,273.063 151.875 M239.808 154.250 C 239.808 154.731,239.859 154.928,239.922 154.688 C 239.985 154.447,239.985 154.053,239.922 153.813 C 239.859 153.572,239.808 153.769,239.808 154.250 M272.813 155.875 C 272.816 156.425,272.867 156.621,272.927 156.310 C 272.987 155.999,272.984 155.549,272.922 155.310 C 272.859 155.071,272.810 155.325,272.813 155.875 M239.558 157.500 C 239.558 157.981,239.609 158.178,239.672 157.938 C 239.735 157.697,239.735 157.303,239.672 157.063 C 239.609 156.822,239.558 157.019,239.558 157.500 M272.563 159.875 C 272.566 160.425,272.617 160.621,272.677 160.310 C 272.737 159.999,272.734 159.549,272.672 159.310 C 272.609 159.071,272.560 159.325,272.563 159.875 M239.308 161.000 C 239.308 161.481,239.359 161.678,239.422 161.438 C 239.485 161.197,239.485 160.803,239.422 160.563 C 239.359 160.322,239.308 160.519,239.308 161.000 M272.313 163.875 C 272.316 164.425,272.367 164.621,272.427 164.310 C 272.487 163.999,272.484 163.549,272.422 163.310 C 272.359 163.071,272.310 163.325,272.313 163.875 M239.058 164.250 C 239.058 164.731,239.109 164.928,239.172 164.688 C 239.235 164.447,239.235 164.053,239.172 163.813 C 239.109 163.572,239.058 163.769,239.058 164.250 M238.808 167.500 C 238.808 167.981,238.859 168.178,238.922 167.938 C 238.985 167.697,238.985 167.303,238.922 167.063 C 238.859 166.822,238.808 167.019,238.808 167.500 M272.063 167.875 C 272.066 168.425,272.117 168.621,272.177 168.310 C 272.237 167.999,272.234 167.549,272.172 167.310 C 272.109 167.071,272.060 167.325,272.063 167.875 M238.558 171.000 C 238.558 171.481,238.609 171.678,238.672 171.438 C 238.735 171.197,238.735 170.803,238.672 170.563 C 238.609 170.322,238.558 170.519,238.558 171.000 M271.813 171.875 C 271.816 172.425,271.867 172.621,271.927 172.310 C 271.987 171.999,271.984 171.549,271.922 171.310 C 271.859 171.071,271.810 171.325,271.813 171.875 M238.308 174.250 C 238.308 174.731,238.359 174.928,238.422 174.688 C 238.485 174.447,238.485 174.053,238.422 173.813 C 238.359 173.572,238.308 173.769,238.308 174.250 M271.568 176.000 C 271.568 176.619,271.617 176.872,271.676 176.563 C 271.736 176.253,271.736 175.747,271.676 175.438 C 271.617 175.128,271.568 175.381,271.568 176.000 M271.318 180.000 C 271.318 180.619,271.367 180.872,271.426 180.563 C 271.486 180.253,271.486 179.747,271.426 179.438 C 271.367 179.128,271.318 179.381,271.318 180.000 M271.063 184.125 C 271.066 184.675,271.117 184.871,271.177 184.560 C 271.237 184.249,271.234 183.799,271.172 183.560 C 271.109 183.321,271.060 183.575,271.063 184.125 M270.818 188.250 C 270.818 188.869,270.867 189.122,270.926 188.813 C 270.986 188.503,270.986 187.997,270.926 187.688 C 270.867 187.378,270.818 187.631,270.818 188.250 M270.563 192.375 C 270.566 192.925,270.617 193.121,270.677 192.810 C 270.737 192.499,270.734 192.049,270.672 191.810 C 270.609 191.571,270.560 191.825,270.563 192.375 M270.318 196.500 C 270.318 197.119,270.367 197.372,270.426 197.063 C 270.486 196.753,270.486 196.247,270.426 195.938 C 270.367 195.628,270.318 195.881,270.318 196.500 M270.063 200.625 C 270.066 201.175,270.117 201.371,270.177 201.060 C 270.237 200.749,270.234 200.299,270.172 200.060 C 270.109 199.821,270.060 200.075,270.063 200.625 M269.818 204.750 C 269.818 205.369,269.867 205.622,269.926 205.313 C 269.986 205.003,269.986 204.497,269.926 204.188 C 269.867 203.878,269.818 204.131,269.818 204.750 M269.563 208.875 C 269.566 209.425,269.617 209.621,269.677 209.310 C 269.737 208.999,269.734 208.549,269.672 208.310 C 269.609 208.071,269.560 208.325,269.563 208.875 M218.170 208.437 L 236.466 208.503 236.574 209.064 C 236.666 209.543,236.687 209.525,236.716 208.938 L 236.750 208.250 218.313 208.311 L 199.875 208.372 218.170 208.437 M236.313 212.375 C 236.316 212.925,236.367 213.121,236.427 212.810 C 236.487 212.499,236.484 212.049,236.422 211.810 C 236.359 211.571,236.310 211.825,236.313 212.375 M269.318 213.000 C 269.318 213.619,269.367 213.872,269.426 213.563 C 269.486 213.253,269.486 212.747,269.426 212.438 C 269.367 212.128,269.318 212.381,269.318 213.000 M236.063 216.125 C 236.066 216.675,236.117 216.871,236.177 216.560 C 236.237 216.249,236.234 215.799,236.172 215.560 C 236.109 215.321,236.060 215.575,236.063 216.125 M269.068 217.000 C 269.068 217.619,269.117 217.872,269.176 217.563 C 269.236 217.253,269.236 216.747,269.176 216.438 C 269.117 216.128,269.068 216.381,269.068 217.000 M235.813 219.875 C 235.816 220.425,235.867 220.621,235.927 220.310 C 235.987 219.999,235.984 219.549,235.922 219.310 C 235.859 219.071,235.810 219.325,235.813 219.875 M268.813 221.125 C 268.816 221.675,268.867 221.871,268.927 221.560 C 268.987 221.249,268.984 220.799,268.922 220.560 C 268.859 220.321,268.810 220.575,268.813 221.125 M235.563 223.625 C 235.566 224.175,235.617 224.371,235.677 224.060 C 235.737 223.749,235.734 223.299,235.672 223.060 C 235.609 222.821,235.560 223.075,235.563 223.625 M268.568 225.250 C 268.568 225.869,268.617 226.122,268.676 225.813 C 268.736 225.503,268.736 224.997,268.676 224.688 C 268.617 224.378,268.568 224.631,268.568 225.250 M235.313 227.375 C 235.316 227.925,235.367 228.121,235.427 227.810 C 235.487 227.499,235.484 227.049,235.422 226.810 C 235.359 226.571,235.310 226.825,235.313 227.375 M268.313 229.375 C 268.316 229.925,268.367 230.121,268.427 229.810 C 268.487 229.499,268.484 229.049,268.422 228.810 C 268.359 228.571,268.310 228.825,268.313 229.375 M235.063 231.125 C 235.066 231.675,235.117 231.871,235.177 231.560 C 235.237 231.249,235.234 230.799,235.172 230.560 C 235.109 230.321,235.060 230.575,235.063 231.125 M268.068 233.500 C 268.068 234.119,268.117 234.372,268.176 234.063 C 268.236 233.753,268.236 233.247,268.176 232.938 C 268.117 232.628,268.068 232.881,268.068 233.500 M234.813 234.875 C 234.816 235.425,234.867 235.621,234.927 235.310 C 234.987 234.999,234.984 234.549,234.922 234.310 C 234.859 234.071,234.810 234.325,234.813 234.875 M267.813 237.625 C 267.816 238.175,267.867 238.371,267.927 238.060 C 267.987 237.749,267.984 237.299,267.922 237.060 C 267.859 236.821,267.810 237.075,267.813 237.625 M234.563 238.625 C 234.566 239.175,234.617 239.371,234.677 239.060 C 234.737 238.749,234.734 238.299,234.672 238.060 C 234.609 237.821,234.560 238.075,234.563 238.625 M267.568 241.750 C 267.568 242.369,267.617 242.622,267.676 242.313 C 267.736 242.003,267.736 241.497,267.676 241.188 C 267.617 240.878,267.568 241.131,267.568 241.750 M234.313 242.375 C 234.316 242.925,234.367 243.121,234.427 242.810 C 234.487 242.499,234.484 242.049,234.422 241.810 C 234.359 241.571,234.310 241.825,234.313 242.375 M267.313 245.875 C 267.316 246.425,267.367 246.621,267.427 246.310 C 267.487 245.999,267.484 245.549,267.422 245.310 C 267.359 245.071,267.310 245.325,267.313 245.875 M267.068 250.000 C 267.068 250.619,267.117 250.872,267.176 250.563 C 267.236 250.253,267.236 249.747,267.176 249.438 C 267.117 249.128,267.068 249.381,267.068 250.000 M266.818 254.000 C 266.818 254.619,266.867 254.872,266.926 254.563 C 266.986 254.253,266.986 253.747,266.926 253.438 C 266.867 253.128,266.818 253.381,266.818 254.000 M266.563 258.125 C 266.566 258.675,266.617 258.871,266.677 258.560 C 266.737 258.249,266.734 257.799,266.672 257.560 C 266.609 257.321,266.560 257.575,266.563 258.125 M266.318 262.250 C 266.318 262.869,266.367 263.122,266.426 262.813 C 266.486 262.503,266.486 261.997,266.426 261.688 C 266.367 261.378,266.318 261.631,266.318 262.250 M266.063 266.375 C 266.066 266.925,266.117 267.121,266.177 266.810 C 266.237 266.499,266.234 266.049,266.172 265.810 C 266.109 265.571,266.060 265.825,266.063 266.375 M265.720 270.195 C 265.638 270.692,265.675 270.925,265.813 270.787 C 265.939 270.661,266.000 270.292,265.949 269.966 C 265.871 269.466,265.835 269.501,265.720 270.195 " stroke="none" fill="#61c0ee" fill-rule="evenodd"></path><path id="path4" d="M161.813 179.875 C 161.816 180.425,161.867 180.621,161.927 180.310 C 161.987 179.999,161.984 179.549,161.922 179.310 C 161.859 179.071,161.810 179.325,161.813 179.875 M162.063 184.875 C 162.066 185.425,162.117 185.621,162.177 185.310 C 162.237 184.999,162.234 184.549,162.172 184.310 C 162.109 184.071,162.060 184.325,162.063 184.875 M162.313 189.875 C 162.316 190.425,162.367 190.621,162.427 190.310 C 162.487 189.999,162.484 189.549,162.422 189.310 C 162.359 189.071,162.310 189.325,162.313 189.875 M162.563 194.875 C 162.566 195.425,162.617 195.621,162.677 195.310 C 162.737 194.999,162.734 194.549,162.672 194.310 C 162.609 194.071,162.560 194.325,162.563 194.875 M162.813 199.875 C 162.816 200.425,162.867 200.621,162.927 200.310 C 162.987 199.999,162.984 199.549,162.922 199.310 C 162.859 199.071,162.810 199.325,162.813 199.875 M163.063 204.875 C 163.066 205.425,163.117 205.621,163.177 205.310 C 163.237 204.999,163.234 204.549,163.172 204.310 C 163.109 204.071,163.060 204.325,163.063 204.875 M172.294 208.437 C 177.337 208.475,185.662 208.475,190.794 208.437 C 195.926 208.400,191.800 208.369,181.625 208.369 C 171.450 208.369,167.251 208.400,172.294 208.437 M165.072 227.375 C 165.073 228.063,165.122 228.314,165.179 227.934 C 165.237 227.554,165.235 226.992,165.176 226.684 C 165.117 226.377,165.070 226.688,165.072 227.375 M131.808 229.500 C 131.808 229.981,131.859 230.178,131.922 229.938 C 131.985 229.697,131.985 229.303,131.922 229.063 C 131.859 228.822,131.808 229.019,131.808 229.500 M165.318 233.500 C 165.318 234.119,165.367 234.372,165.426 234.063 C 165.486 233.753,165.486 233.247,165.426 232.938 C 165.367 232.628,165.318 232.881,165.318 233.500 M132.058 234.000 C 132.058 234.481,132.109 234.678,132.172 234.438 C 132.235 234.197,132.235 233.803,132.172 233.563 C 132.109 233.322,132.058 233.519,132.058 234.000 M132.313 238.625 C 132.316 239.175,132.367 239.371,132.427 239.060 C 132.487 238.749,132.484 238.299,132.422 238.060 C 132.359 237.821,132.310 238.075,132.313 238.625 M165.568 239.750 C 165.568 240.369,165.617 240.622,165.676 240.313 C 165.736 240.003,165.736 239.497,165.676 239.188 C 165.617 238.878,165.568 239.131,165.568 239.750 M132.558 243.250 C 132.558 243.731,132.609 243.928,132.672 243.688 C 132.735 243.447,132.735 243.053,132.672 242.813 C 132.609 242.572,132.558 242.769,132.558 243.250 M132.808 247.750 C 132.808 248.231,132.859 248.428,132.922 248.188 C 132.985 247.947,132.985 247.553,132.922 247.313 C 132.859 247.072,132.808 247.269,132.808 247.750 M133.063 252.375 C 133.066 252.925,133.117 253.121,133.177 252.810 C 133.237 252.499,133.234 252.049,133.172 251.810 C 133.109 251.571,133.060 251.825,133.063 252.375 M133.308 257.000 C 133.308 257.481,133.359 257.678,133.422 257.438 C 133.485 257.197,133.485 256.803,133.422 256.563 C 133.359 256.322,133.308 256.519,133.308 257.000 M133.558 261.500 C 133.558 261.981,133.609 262.178,133.672 261.938 C 133.735 261.697,133.735 261.303,133.672 261.063 C 133.609 260.822,133.558 261.019,133.558 261.500 M133.813 266.125 C 133.816 266.675,133.867 266.871,133.927 266.560 C 133.987 266.249,133.984 265.799,133.922 265.560 C 133.859 265.321,133.810 265.575,133.813 266.125 " stroke="none" fill="#59a8d2" fill-rule="evenodd"></path></g></svg>