<svg id="svg" version="1.1" xmlns="http://www.w3.org/2000/svg" xmlns:xlink="http://www.w3.org/1999/xlink" width="400" height="400" viewBox="0, 0, 400,400"><g id="svgg"><path id="path0" d="M89.615 75.900 C 89.636 79.132,90.251 86.962,91.807 103.800 C 92.173 107.760,92.625 112.800,92.813 115.000 C 93.117 118.574,93.407 121.818,94.796 137.200 C 96.149 152.179,96.477 155.828,96.790 159.400 C 96.983 161.600,97.435 166.640,97.794 170.600 C 98.153 174.560,98.607 179.600,98.804 181.800 C 99.000 184.000,99.448 188.950,99.798 192.800 C 100.148 196.650,100.539 201.274,100.666 203.076 C 100.832 205.419,101.064 206.416,101.482 206.576 C 101.803 206.699,136.251 206.801,178.033 206.802 L 254.000 206.804 253.993 207.902 C 253.989 208.506,253.802 210.710,253.577 212.800 C 253.352 214.890,253.004 218.310,252.804 220.400 C 252.411 224.510,251.367 235.486,250.787 241.600 C 250.589 243.690,250.146 248.280,249.803 251.800 C 249.460 255.320,249.069 259.488,248.935 261.062 C 248.675 264.104,248.383 264.488,246.000 264.922 C 245.450 265.022,243.965 265.395,242.700 265.752 C 241.435 266.108,239.365 266.678,238.100 267.018 C 235.659 267.675,229.009 269.472,227.000 270.018 C 226.340 270.198,224.000 270.822,221.800 271.405 C 219.600 271.988,217.260 272.623,216.600 272.815 C 215.158 273.235,212.367 273.989,207.000 275.408 C 204.800 275.989,202.370 276.654,201.600 276.885 C 199.442 277.531,198.113 277.419,194.000 276.243 C 191.910 275.645,188.580 274.728,186.600 274.205 C 184.620 273.683,181.290 272.783,179.200 272.205 C 177.110 271.628,173.780 270.728,171.800 270.205 C 169.820 269.683,166.490 268.783,164.400 268.205 C 162.310 267.628,158.980 266.733,157.000 266.216 C 155.020 265.699,153.130 265.184,152.800 265.071 C 152.470 264.959,151.725 264.763,151.144 264.637 C 149.766 264.337,149.600 263.829,149.173 258.600 C 148.976 256.180,148.542 251.050,148.210 247.200 C 147.877 243.350,147.434 238.035,147.224 235.389 C 147.014 232.742,146.724 230.267,146.579 229.889 C 146.333 229.249,144.794 229.200,124.957 229.200 L 103.600 229.200 103.612 230.500 C 103.619 231.215,103.810 234.050,104.038 236.800 C 104.265 239.550,104.607 243.870,104.797 246.400 C 105.123 250.738,105.981 261.709,106.800 272.000 C 107.001 274.530,107.439 280.110,107.774 284.400 C 108.943 299.409,108.771 298.298,109.955 298.530 C 111.117 298.757,111.486 298.857,119.800 301.209 C 120.460 301.395,122.080 301.838,123.400 302.192 C 124.720 302.546,126.340 302.996,127.000 303.192 C 127.660 303.388,129.190 303.811,130.400 304.133 C 131.610 304.455,134.310 305.200,136.400 305.788 C 138.490 306.377,140.830 307.015,141.600 307.207 C 144.389 307.903,153.924 310.576,154.800 310.908 C 155.130 311.033,155.850 311.229,156.400 311.344 C 157.404 311.555,161.158 312.550,163.400 313.200 C 164.060 313.391,165.680 313.838,167.000 314.192 C 168.320 314.546,169.940 315.000,170.600 315.200 C 171.260 315.400,172.880 315.854,174.200 316.208 C 175.520 316.562,177.140 317.009,177.800 317.200 C 178.460 317.391,180.080 317.838,181.400 318.192 C 182.720 318.546,184.340 318.996,185.000 319.192 C 185.660 319.388,187.190 319.811,188.400 320.133 C 189.610 320.455,192.310 321.211,194.400 321.814 C 199.442 323.267,199.645 323.256,206.600 321.192 C 207.260 320.996,208.880 320.546,210.200 320.192 C 211.520 319.838,213.140 319.388,213.800 319.192 C 214.460 318.996,215.990 318.572,217.200 318.250 C 218.410 317.927,220.480 317.360,221.800 316.989 C 223.120 316.618,224.740 316.169,225.400 315.992 C 226.060 315.814,227.680 315.364,229.000 314.992 C 230.320 314.619,231.940 314.169,232.600 313.992 C 233.260 313.814,234.880 313.364,236.200 312.992 C 238.614 312.310,239.006 312.203,243.400 311.027 C 244.720 310.674,246.700 310.120,247.800 309.796 C 248.900 309.473,253.130 308.305,257.200 307.200 C 265.489 304.951,267.839 304.296,271.600 303.192 C 273.030 302.772,274.920 302.252,275.800 302.037 C 276.680 301.822,278.030 301.463,278.800 301.240 C 279.570 301.018,281.190 300.572,282.400 300.250 C 290.312 298.143,289.986 298.326,289.991 296.000 C 289.993 295.230,290.265 291.720,290.596 288.200 C 291.900 274.318,292.515 267.405,293.211 258.800 C 293.398 256.490,293.839 251.360,294.191 247.400 C 294.543 243.440,294.994 238.310,295.194 236.000 C 295.394 233.690,295.844 228.560,296.194 224.600 C 297.305 212.041,297.555 209.120,297.963 204.000 C 298.182 201.250,298.555 196.930,298.792 194.400 C 299.029 191.870,299.401 187.820,299.618 185.400 C 300.595 174.531,300.814 172.498,301.831 164.900 L 302.111 162.800 221.720 162.800 L 141.329 162.800 140.855 158.900 C 140.594 156.755,140.184 152.570,139.945 149.600 C 139.705 146.630,139.363 142.400,139.185 140.200 C 139.007 138.000,138.552 132.690,138.173 128.400 C 137.794 124.110,137.465 119.790,137.442 118.800 L 137.400 117.000 221.437 117.164 C 287.210 117.293,305.539 117.223,305.774 116.842 C 305.940 116.574,306.238 114.565,306.438 112.377 C 306.940 106.863,307.462 101.630,308.212 94.600 C 308.564 91.300,309.007 86.530,309.197 84.000 C 309.387 81.470,309.671 78.095,309.829 76.500 L 310.115 73.600 199.857 73.600 L 89.600 73.600 89.615 75.900 " stroke="none" fill="#f3f3f3" fill-rule="evenodd"></path><path id="path1" d="M200.000 51.000 L 200.000 73.200 255.200 73.200 L 310.400 73.200 310.379 74.500 C 310.315 78.387,307.869 105.190,307.190 109.446 C 306.976 110.791,306.800 113.067,306.800 114.503 C 306.800 116.515,306.655 117.170,306.167 117.357 C 305.819 117.491,281.789 117.600,252.767 117.600 L 200.000 117.600 200.000 139.600 L 200.000 161.600 170.776 161.600 C 151.056 161.600,141.635 161.732,141.804 162.007 C 141.975 162.282,167.895 162.326,221.928 162.143 C 290.446 161.910,301.864 161.951,302.249 162.435 C 302.689 162.990,302.294 167.037,301.195 173.224 C 300.978 174.447,300.799 176.337,300.799 177.424 C 300.798 178.511,300.620 180.930,300.402 182.800 C 300.031 185.993,299.498 192.013,298.808 200.800 C 297.848 213.040,297.539 216.447,297.189 218.646 C 296.975 219.991,296.799 222.061,296.799 223.246 C 296.798 224.431,296.619 226.930,296.401 228.800 C 296.002 232.222,295.382 239.191,294.818 246.600 C 293.991 257.460,293.544 262.415,293.189 264.646 C 292.975 265.991,292.800 268.078,292.800 269.283 C 292.800 270.487,292.619 272.896,292.399 274.636 C 292.178 276.376,291.810 280.140,291.580 283.000 C 290.329 298.615,290.327 298.625,289.078 298.927 C 288.595 299.044,286.490 299.620,284.400 300.206 C 282.310 300.793,278.980 301.719,277.000 302.263 C 275.020 302.808,272.410 303.531,271.200 303.870 C 269.990 304.209,268.460 304.631,267.800 304.808 C 267.140 304.986,265.520 305.436,264.200 305.808 C 262.880 306.181,261.260 306.631,260.600 306.808 C 259.940 306.986,258.320 307.436,257.000 307.808 C 255.680 308.181,254.060 308.631,253.400 308.808 C 252.740 308.986,251.120 309.438,249.800 309.814 C 248.480 310.189,246.950 310.578,246.400 310.678 C 245.850 310.778,245.040 311.011,244.600 311.196 C 243.773 311.543,240.951 312.308,239.200 312.659 C 238.650 312.770,237.840 313.011,237.400 313.196 C 236.643 313.514,234.744 314.037,231.600 314.793 C 228.865 315.451,223.788 316.872,223.000 317.200 C 222.560 317.383,220.760 317.900,219.000 318.349 C 217.240 318.798,214.090 319.639,212.000 320.218 C 209.910 320.797,207.660 321.415,207.000 321.592 C 206.340 321.769,204.720 322.220,203.400 322.595 C 202.080 322.970,200.460 323.402,199.800 323.556 C 198.846 323.778,198.744 323.891,199.300 324.105 C 199.955 324.358,200.000 325.804,200.000 346.630 C 200.000 364.269,200.104 368.846,200.500 368.696 C 200.775 368.592,203.160 367.926,205.800 367.216 C 208.440 366.506,211.410 365.694,212.400 365.411 C 213.390 365.129,215.010 364.674,216.000 364.400 C 216.990 364.126,218.610 363.676,219.600 363.400 C 220.590 363.124,222.120 362.701,223.000 362.460 C 223.880 362.219,225.590 361.743,226.800 361.404 C 232.292 359.862,243.483 356.785,248.600 355.411 C 250.580 354.879,253.910 353.972,256.000 353.395 C 258.090 352.818,260.790 352.085,262.000 351.765 C 263.210 351.446,265.100 350.919,266.200 350.595 C 267.834 350.113,280.034 346.770,292.600 343.361 C 293.920 343.003,295.450 342.569,296.000 342.396 C 296.965 342.093,300.080 341.224,303.400 340.332 C 304.280 340.095,305.810 339.669,306.800 339.384 C 307.790 339.099,310.195 338.459,312.144 337.961 C 316.309 336.897,316.800 336.505,316.800 334.242 C 316.800 333.307,317.067 329.675,317.393 326.171 C 317.719 322.667,318.167 317.730,318.389 315.200 C 318.875 309.660,319.834 299.039,320.394 293.000 C 320.618 290.580,321.073 285.450,321.406 281.600 C 321.738 277.750,322.187 272.710,322.404 270.400 C 322.620 268.090,322.992 263.950,323.229 261.200 C 324.061 251.563,324.362 248.141,325.003 241.000 C 325.918 230.806,326.277 226.767,326.977 218.800 C 327.315 214.950,327.770 209.820,327.987 207.400 C 328.205 204.980,328.563 200.840,328.782 198.200 C 329.002 195.560,329.367 191.420,329.595 189.000 C 330.230 182.258,330.754 176.457,331.400 169.000 C 331.725 165.260,332.170 160.310,332.390 158.000 C 332.610 155.690,333.063 150.560,333.397 146.600 C 333.731 142.640,334.185 137.510,334.406 135.200 C 334.627 132.890,335.080 127.760,335.413 123.800 C 335.745 119.840,336.191 114.800,336.403 112.600 C 336.615 110.400,337.063 105.450,337.399 101.600 C 337.734 97.750,338.183 92.620,338.397 90.200 C 338.610 87.780,339.061 82.650,339.398 78.800 C 339.736 74.950,340.190 69.910,340.408 67.600 C 340.626 65.290,341.071 60.340,341.398 56.600 C 342.568 43.228,342.843 40.129,343.326 34.924 C 343.595 32.021,343.752 29.456,343.675 29.224 C 343.576 28.928,321.911 28.800,271.767 28.800 L 200.000 28.800 200.000 51.000 M370.046 70.467 C 370.021 70.834,369.896 71.464,369.770 71.867 C 369.552 72.562,369.563 72.563,369.997 71.887 C 370.248 71.496,370.373 70.866,370.273 70.487 C 370.111 69.868,370.088 69.866,370.046 70.467 M88.406 74.700 C 88.409 75.525,88.588 76.470,88.802 76.800 C 89.077 77.223,89.163 76.781,89.096 75.303 C 88.987 72.922,88.397 72.406,88.406 74.700 M89.301 85.000 C 89.305 85.880,89.387 86.193,89.483 85.695 C 89.579 85.198,89.575 84.478,89.475 84.095 C 89.375 83.713,89.296 84.120,89.301 85.000 M89.640 89.433 C 89.662 90.955,89.815 92.650,89.980 93.200 C 90.146 93.750,90.194 92.580,90.088 90.600 C 89.856 86.278,89.584 85.571,89.640 89.433 M90.406 99.033 C 90.409 99.895,90.597 100.870,90.823 101.200 C 91.114 101.626,91.155 101.220,90.965 99.800 C 90.631 97.303,90.398 96.984,90.406 99.033 M91.508 110.400 C 91.623 112.710,91.852 114.960,92.017 115.400 C 92.373 116.352,92.029 110.098,91.598 107.800 C 91.432 106.910,91.392 108.064,91.508 110.400 M138.134 120.400 C 138.134 122.050,138.205 122.725,138.291 121.900 C 138.378 121.075,138.378 119.725,138.291 118.900 C 138.205 118.075,138.134 118.750,138.134 120.400 M92.400 121.510 C 92.400 122.413,92.584 123.267,92.809 123.406 C 93.079 123.573,93.128 123.069,92.954 121.929 C 92.603 119.644,92.400 119.490,92.400 121.510 M138.493 124.800 C 138.493 125.570,138.575 125.885,138.676 125.500 C 138.776 125.115,138.776 124.485,138.676 124.100 C 138.575 123.715,138.493 124.030,138.493 124.800 M93.628 134.033 C 93.644 135.665,93.802 137.360,93.980 137.800 C 94.160 138.245,94.213 137.002,94.099 135.000 C 93.847 130.565,93.590 130.038,93.628 134.033 M139.061 133.079 C 139.393 135.610,139.600 135.768,139.600 133.490 C 139.600 132.477,139.422 131.537,139.205 131.403 C 138.953 131.247,138.901 131.855,139.061 133.079 M139.905 142.400 C 140.018 144.490,140.175 146.275,140.255 146.367 C 140.537 146.690,140.316 140.586,140.010 139.600 C 139.839 139.050,139.792 140.310,139.905 142.400 M94.400 143.710 C 94.400 144.723,94.578 145.663,94.795 145.797 C 95.047 145.953,95.099 145.345,94.939 144.121 C 94.607 141.590,94.400 141.432,94.400 143.710 M140.493 148.000 C 140.493 148.770,140.575 149.085,140.676 148.700 C 140.776 148.315,140.776 147.685,140.676 147.300 C 140.575 146.915,140.493 147.230,140.493 148.000 M95.293 152.000 C 95.293 152.770,95.375 153.085,95.476 152.700 C 95.576 152.315,95.576 151.685,95.476 151.300 C 95.375 150.915,95.293 151.230,95.293 152.000 M95.640 156.233 C 95.662 157.755,95.815 159.450,95.980 160.000 C 96.146 160.550,96.194 159.380,96.088 157.400 C 95.856 153.078,95.584 152.371,95.640 156.233 M141.045 156.000 C 141.190 157.210,141.374 158.275,141.454 158.367 C 141.807 158.770,141.546 154.938,141.184 154.400 C 140.903 153.982,140.861 154.467,141.045 156.000 M96.406 165.833 C 96.409 166.695,96.597 167.670,96.823 168.000 C 97.114 168.426,97.155 168.020,96.965 166.600 C 96.631 164.103,96.398 163.784,96.406 165.833 M97.293 174.400 C 97.293 175.170,97.375 175.485,97.476 175.100 C 97.576 174.715,97.576 174.085,97.476 173.700 C 97.375 173.315,97.293 173.630,97.293 174.400 M97.640 178.633 C 97.662 180.155,97.821 181.850,97.994 182.400 C 98.166 182.950,98.213 181.780,98.098 179.800 C 97.847 175.465,97.585 174.798,97.640 178.633 M98.406 188.233 C 98.409 189.095,98.597 190.070,98.823 190.400 C 99.114 190.826,99.155 190.420,98.965 189.000 C 98.631 186.503,98.398 186.184,98.406 188.233 M99.628 200.833 C 99.644 202.465,99.802 204.160,99.980 204.600 C 100.160 205.045,100.213 203.802,100.099 201.800 C 99.847 197.365,99.590 196.838,99.628 200.833 M100.400 207.300 C 100.400 207.465,122.585 207.557,149.700 207.504 C 176.815 207.452,191.080 207.362,181.400 207.305 C 134.978 207.031,100.400 207.029,100.400 207.300 M200.000 242.000 C 200.000 269.228,199.896 276.410,199.500 276.447 C 199.225 276.473,198.730 276.469,198.400 276.437 C 197.927 276.392,197.942 276.468,198.472 276.794 C 198.922 277.072,199.450 277.078,200.072 276.812 C 200.582 276.594,202.440 276.038,204.200 275.575 C 205.960 275.112,208.390 274.469,209.600 274.145 C 210.810 273.821,212.430 273.399,213.200 273.207 C 213.970 273.015,216.310 272.384,218.400 271.804 C 220.490 271.224,223.640 270.391,225.400 269.952 C 227.160 269.513,228.960 268.999,229.400 268.810 C 230.150 268.489,232.453 267.881,240.200 265.961 C 241.960 265.525,243.713 264.995,244.095 264.784 C 244.477 264.573,245.202 264.400,245.706 264.400 C 247.672 264.400,248.297 263.453,248.539 260.107 C 248.914 254.914,249.521 248.292,249.776 246.600 C 249.909 245.720,250.203 242.840,250.430 240.200 C 251.030 233.206,251.496 228.215,252.221 221.000 C 252.575 217.480,252.985 213.025,253.132 211.100 L 253.400 207.600 226.700 207.600 L 200.000 207.600 200.000 242.000 M102.536 229.022 C 102.405 229.364,102.475 230.039,102.691 230.522 C 103.049 231.318,103.102 231.261,103.262 229.900 C 103.439 228.399,102.986 227.851,102.536 229.022 M146.657 228.835 C 146.908 229.146,147.211 229.760,147.329 230.200 C 147.464 230.703,147.517 230.565,147.472 229.831 C 147.432 229.188,147.130 228.574,146.800 228.466 C 146.328 228.312,146.298 228.391,146.657 228.835 M147.895 237.800 C 148.010 239.780,148.240 242.120,148.406 243.000 C 148.583 243.937,148.627 242.942,148.512 240.600 C 148.405 238.400,148.175 236.060,148.001 235.400 C 147.818 234.705,147.774 235.716,147.895 237.800 M103.293 238.000 C 103.293 238.770,103.375 239.085,103.476 238.700 C 103.576 238.315,103.576 237.685,103.476 237.300 C 103.375 236.915,103.293 237.230,103.293 238.000 M103.640 242.833 C 103.662 244.685,103.816 246.650,103.983 247.200 C 104.150 247.750,104.198 246.310,104.090 244.000 C 103.851 238.896,103.585 238.208,103.640 242.833 M149.035 251.000 C 149.182 252.100,149.369 253.075,149.451 253.167 C 149.810 253.568,149.546 250.139,149.177 249.600 C 148.886 249.174,148.845 249.580,149.035 251.000 M104.406 253.833 C 104.409 254.915,104.591 256.070,104.809 256.400 C 105.080 256.811,105.124 256.243,104.947 254.600 C 104.623 251.591,104.398 251.272,104.406 253.833 M149.872 259.800 C 150.113 263.750,150.140 263.839,151.167 264.107 C 151.626 264.227,151.900 264.162,151.777 263.963 C 151.654 263.763,151.293 263.600,150.976 263.600 C 150.540 263.600,150.390 262.992,150.360 261.100 C 150.338 259.725,150.175 258.150,149.998 257.600 C 149.809 257.010,149.757 257.912,149.872 259.800 M352.800 259.000 C 352.800 259.330,352.980 259.600,353.200 259.600 C 353.420 259.600,353.600 259.330,353.600 259.000 C 353.600 258.670,353.420 258.400,353.200 258.400 C 352.980 258.400,352.800 258.670,352.800 259.000 M105.293 263.600 C 105.293 264.370,105.375 264.685,105.476 264.300 C 105.576 263.915,105.576 263.285,105.476 262.900 C 105.375 262.515,105.293 262.830,105.293 263.600 M105.640 268.433 C 105.662 270.285,105.816 272.250,105.983 272.800 C 106.150 273.350,106.198 271.910,106.090 269.600 C 105.851 264.496,105.585 263.808,105.640 268.433 M156.497 265.431 C 156.629 265.562,157.403 265.820,158.217 266.004 C 159.032 266.188,159.541 266.196,159.349 266.022 C 158.943 265.655,156.140 265.074,156.497 265.431 M164.833 267.744 C 164.925 267.823,165.540 268.008,166.200 268.156 C 167.076 268.352,167.238 268.315,166.800 268.018 C 166.260 267.653,164.432 267.398,164.833 267.744 M171.600 269.552 C 171.930 269.738,172.830 270.002,173.600 270.138 C 174.443 270.288,174.761 270.252,174.400 270.048 C 174.070 269.862,173.170 269.598,172.400 269.462 C 171.557 269.312,171.239 269.348,171.600 269.552 M179.000 271.539 C 180.237 272.068,182.310 272.477,181.600 272.051 C 181.270 271.854,180.370 271.580,179.600 271.444 C 178.656 271.277,178.460 271.308,179.000 271.539 M186.400 273.552 C 186.730 273.738,187.630 274.002,188.400 274.138 C 189.243 274.288,189.561 274.252,189.200 274.048 C 188.870 273.862,187.970 273.598,187.200 273.462 C 186.357 273.312,186.039 273.348,186.400 273.552 M194.433 275.744 C 194.905 276.150,196.843 276.393,196.610 276.016 C 196.468 275.787,195.883 275.600,195.310 275.600 C 194.736 275.600,194.342 275.665,194.433 275.744 M106.406 279.233 C 106.409 280.205,106.594 281.270,106.816 281.600 C 107.097 282.018,107.139 281.533,106.955 280.000 C 106.625 277.247,106.398 276.929,106.406 279.233 M107.301 289.000 C 107.305 289.880,107.387 290.193,107.483 289.695 C 107.579 289.198,107.575 288.478,107.475 288.095 C 107.375 287.713,107.296 288.120,107.301 289.000 M107.739 294.280 C 107.781 296.851,107.969 298.118,108.359 298.480 C 108.821 298.910,108.861 298.901,108.588 298.424 C 108.407 298.108,108.128 296.218,107.968 294.224 L 107.677 290.600 107.739 294.280 M112.400 299.941 C 112.730 300.134,113.540 300.409,114.200 300.552 C 114.968 300.718,115.184 300.684,114.800 300.459 C 114.470 300.266,113.660 299.991,113.000 299.848 C 112.232 299.682,112.016 299.716,112.400 299.941 M119.600 301.949 C 119.930 302.146,120.830 302.420,121.600 302.556 C 122.544 302.723,122.740 302.692,122.200 302.461 C 120.963 301.932,118.890 301.523,119.600 301.949 M126.800 303.982 C 127.130 304.205,127.745 304.391,128.167 304.394 C 129.190 304.402,128.871 304.173,127.400 303.844 C 126.524 303.648,126.362 303.685,126.800 303.982 M148.651 309.978 C 149.057 310.345,151.860 310.926,151.503 310.569 C 151.371 310.438,150.597 310.180,149.783 309.996 C 148.968 309.812,148.459 309.804,148.651 309.978 M155.800 311.919 C 156.020 312.125,156.830 312.405,157.600 312.540 C 159.232 312.827,158.435 312.257,156.600 311.826 C 155.847 311.648,155.549 311.683,155.800 311.919 M163.051 313.978 C 163.457 314.345,166.260 314.926,165.903 314.569 C 165.771 314.438,164.997 314.180,164.183 313.996 C 163.368 313.812,162.859 313.804,163.051 313.978 M170.400 315.941 C 170.730 316.134,171.540 316.409,172.200 316.552 C 172.968 316.718,173.184 316.684,172.800 316.459 C 172.470 316.266,171.660 315.991,171.000 315.848 C 170.232 315.682,170.016 315.716,170.400 315.941 M177.400 317.923 C 177.620 318.132,178.520 318.412,179.400 318.545 C 180.417 318.699,180.708 318.665,180.200 318.453 C 178.773 317.857,176.972 317.516,177.400 317.923 M184.800 319.982 C 185.130 320.205,185.745 320.391,186.167 320.394 C 187.190 320.402,186.871 320.173,185.400 319.844 C 184.524 319.648,184.362 319.685,184.800 319.982 M192.000 321.982 C 192.330 322.205,192.945 322.391,193.367 322.394 C 194.390 322.402,194.071 322.173,192.600 321.844 C 191.724 321.648,191.562 321.685,192.000 321.982 " stroke="none" fill="#ec642c" fill-rule="evenodd"></path><path id="path2" d="M23.235 2.900 C 23.281 6.719,23.786 12.395,24.170 13.400 C 24.413 14.037,24.388 14.078,24.044 13.600 C 23.806 13.270,23.609 13.189,23.606 13.420 C 23.603 13.651,23.772 14.012,23.982 14.222 C 24.192 14.432,24.395 16.178,24.433 18.102 C 24.471 20.026,24.640 21.600,24.809 21.600 C 25.100 21.600,25.865 34.387,25.644 35.557 C 25.586 35.864,25.727 36.231,25.957 36.373 C 26.191 36.518,26.400 38.252,26.433 40.321 C 26.466 42.350,26.631 44.096,26.801 44.200 C 27.123 44.400,27.846 55.718,27.669 57.800 C 27.591 58.726,27.661 58.863,27.978 58.400 C 28.271 57.971,28.389 58.911,28.394 61.700 C 28.397 63.845,28.552 65.600,28.739 65.600 C 29.012 65.600,29.524 72.766,29.758 79.862 C 29.781 80.556,29.935 81.040,30.100 80.938 C 30.265 80.836,30.400 82.347,30.400 84.296 C 30.400 86.245,30.559 88.011,30.753 88.220 C 31.030 88.519,31.414 93.986,31.714 101.900 C 31.725 102.175,31.883 102.400,32.067 102.400 C 32.250 102.400,32.397 102.715,32.394 103.100 C 32.389 103.698,32.331 103.713,32.000 103.200 C 31.767 102.839,31.610 102.790,31.606 103.076 C 31.603 103.338,31.780 103.664,32.000 103.800 C 32.220 103.936,32.400 105.397,32.400 107.047 C 32.400 109.341,32.518 109.976,32.900 109.747 C 33.240 109.543,33.224 109.663,32.851 110.123 C 32.468 110.595,32.426 110.952,32.711 111.300 C 33.084 111.756,33.896 123.450,33.645 124.757 C 33.587 125.064,33.719 125.426,33.939 125.563 C 34.160 125.699,34.388 127.484,34.447 129.529 C 34.506 131.575,34.677 133.324,34.826 133.416 C 35.099 133.585,35.804 145.744,35.648 147.600 C 35.581 148.396,35.648 148.478,35.976 148.000 C 36.326 147.490,36.634 151.601,36.508 155.096 C 36.498 155.368,36.650 155.493,36.845 155.372 C 37.040 155.251,37.200 155.343,37.200 155.576 C 37.200 155.809,36.975 156.003,36.700 156.006 C 36.343 156.011,36.329 156.096,36.652 156.306 C 36.940 156.493,37.212 159.111,37.398 163.495 C 37.559 167.288,37.828 170.306,37.996 170.202 C 38.246 170.048,38.564 175.333,38.472 178.109 C 38.459 178.498,38.618 178.713,38.824 178.585 C 39.036 178.454,39.203 179.105,39.206 180.076 C 39.223 184.752,39.751 192.615,40.055 192.733 C 40.245 192.807,40.400 194.637,40.400 196.800 C 40.400 198.963,40.555 200.793,40.744 200.867 C 41.060 200.989,41.770 211.139,41.642 213.700 C 41.612 214.305,41.770 214.800,41.994 214.800 C 42.217 214.800,42.400 215.081,42.400 215.424 C 42.400 215.806,42.207 215.938,41.900 215.765 C 41.500 215.539,41.500 215.590,41.900 216.021 C 42.202 216.347,42.400 217.682,42.400 219.400 C 42.400 220.962,42.560 222.411,42.756 222.620 C 43.033 222.915,43.649 232.194,43.737 237.400 C 43.745 237.840,43.887 238.294,44.053 238.410 C 44.219 238.525,44.387 240.235,44.426 242.210 C 44.465 244.184,44.635 245.980,44.804 246.200 C 44.972 246.420,45.240 249.293,45.397 252.585 C 45.555 255.876,45.845 258.991,46.041 259.507 C 46.273 260.117,46.258 260.359,45.999 260.199 C 45.779 260.064,45.600 260.143,45.600 260.376 C 45.600 260.609,45.780 260.800,46.000 260.800 C 46.236 260.800,46.400 262.208,46.400 264.224 C 46.400 266.404,46.545 267.557,46.800 267.400 C 47.020 267.264,47.200 267.343,47.200 267.576 C 47.200 267.809,46.975 268.003,46.700 268.006 C 46.338 268.011,46.326 268.093,46.658 268.306 C 47.042 268.553,47.961 280.990,47.677 282.100 C 47.635 282.265,47.780 282.400,48.000 282.400 C 48.220 282.400,48.400 282.591,48.400 282.824 C 48.400 283.057,48.175 283.120,47.900 282.965 C 47.500 282.739,47.500 282.790,47.900 283.221 C 48.210 283.556,48.400 284.931,48.400 286.847 C 48.400 288.544,48.562 289.993,48.759 290.067 C 48.957 290.140,49.247 293.440,49.404 297.400 C 49.561 301.360,49.849 304.660,50.044 304.733 C 50.240 304.807,50.400 306.562,50.400 308.633 C 50.400 310.705,50.554 312.400,50.743 312.400 C 50.931 312.400,51.212 315.336,51.367 318.924 C 51.680 326.180,51.724 326.658,52.122 327.055 C 52.275 327.208,52.397 327.528,52.394 327.767 C 52.391 328.005,52.213 327.930,52.000 327.600 C 51.767 327.239,51.610 327.190,51.606 327.476 C 51.603 327.738,51.780 328.064,52.000 328.200 C 52.220 328.336,52.400 329.841,52.400 331.544 C 52.400 333.247,52.562 334.811,52.761 335.020 C 53.048 335.323,53.549 342.411,53.766 349.267 C 53.785 349.853,53.935 350.468,54.100 350.633 C 54.265 350.798,54.400 352.253,54.400 353.867 C 54.400 355.480,54.568 356.800,54.773 356.800 C 54.979 356.800,55.160 357.295,55.178 357.900 C 55.245 360.290,55.249 360.294,57.364 360.545 C 58.481 360.677,59.456 360.969,59.531 361.193 C 59.606 361.417,60.267 361.600,61.000 361.600 C 61.733 361.600,62.393 361.778,62.467 361.996 C 62.540 362.214,63.725 362.510,65.100 362.653 C 66.475 362.797,67.600 363.068,67.600 363.257 C 67.600 363.446,68.104 363.600,68.720 363.600 C 69.336 363.600,70.015 363.775,70.229 363.989 C 70.616 364.376,71.953 364.714,73.324 364.770 C 73.722 364.787,73.936 364.980,73.800 365.200 C 73.653 365.437,74.118 365.600,74.943 365.600 C 75.708 365.600,76.393 365.767,76.467 365.972 C 76.540 366.176,77.680 366.467,79.000 366.618 C 80.320 366.770,81.490 367.016,81.600 367.166 C 81.710 367.316,82.970 367.762,84.400 368.157 C 85.830 368.552,87.313 369.038,87.695 369.238 C 88.077 369.437,89.011 369.600,89.771 369.600 C 90.531 369.600,91.261 369.775,91.393 369.988 C 91.525 370.202,92.522 370.495,93.609 370.639 C 94.696 370.783,95.510 371.022,95.418 371.171 C 95.327 371.319,95.910 371.484,96.714 371.538 C 97.518 371.593,98.283 371.811,98.415 372.025 C 98.547 372.238,99.633 372.516,100.827 372.643 C 102.022 372.770,103.060 373.037,103.133 373.237 C 103.207 373.437,103.702 373.600,104.233 373.600 C 104.765 373.600,105.200 373.762,105.200 373.961 C 105.200 374.159,106.280 374.447,107.600 374.600 C 108.920 374.753,110.000 375.041,110.000 375.239 C 110.000 375.438,110.461 375.600,111.024 375.600 C 111.587 375.600,111.949 375.760,111.828 375.955 C 111.707 376.150,111.832 376.292,112.104 376.271 C 113.196 376.187,116.400 376.913,116.400 377.245 C 116.400 377.440,116.814 377.600,117.320 377.600 C 117.826 377.600,118.482 377.825,118.779 378.100 C 119.217 378.507,119.255 378.488,118.982 378.000 C 118.700 377.496,118.748 377.482,119.281 377.914 C 119.630 378.196,120.834 378.537,121.958 378.670 C 123.081 378.803,124.000 379.066,124.000 379.256 C 124.000 379.445,124.360 379.600,124.800 379.600 C 125.240 379.600,125.600 379.762,125.600 379.959 C 125.600 380.157,126.860 380.445,128.400 380.600 C 129.940 380.755,131.200 381.043,131.200 381.241 C 131.200 381.438,131.751 381.600,132.424 381.600 C 133.137 381.600,133.544 381.767,133.400 382.000 C 133.264 382.220,133.568 382.415,134.076 382.433 C 135.921 382.499,137.392 382.862,137.686 383.326 C 137.899 383.660,137.991 383.623,138.000 383.200 C 138.007 382.847,138.133 382.765,138.306 383.000 C 138.818 383.697,140.544 384.560,140.165 383.930 C 139.917 383.518,139.975 383.500,140.423 383.850 C 140.740 384.097,141.881 384.427,142.959 384.583 C 144.036 384.739,145.251 385.032,145.659 385.233 C 146.066 385.435,146.764 385.784,147.209 386.009 C 147.654 386.234,148.824 386.528,149.809 386.663 C 150.794 386.798,151.600 387.064,151.600 387.254 C 151.600 387.444,152.230 387.600,153.000 387.600 C 153.770 387.600,154.400 387.757,154.400 387.948 C 154.400 388.140,155.456 388.416,156.747 388.562 C 158.038 388.708,159.212 388.945,159.355 389.088 C 159.820 389.554,162.555 390.381,164.500 390.645 C 165.545 390.787,166.400 391.060,166.400 391.252 C 166.400 391.443,167.075 391.603,167.900 391.606 C 168.889 391.610,169.216 391.729,168.859 391.955 C 168.509 392.177,169.251 392.398,170.959 392.581 C 172.412 392.736,173.600 393.029,173.600 393.232 C 173.600 393.434,173.960 393.600,174.400 393.600 C 174.840 393.600,175.200 393.769,175.200 393.975 C 175.200 394.181,175.515 394.339,175.900 394.324 C 176.285 394.310,177.230 394.434,178.000 394.600 C 178.770 394.766,179.715 394.890,180.100 394.876 C 180.485 394.861,180.800 395.019,180.800 395.225 C 180.800 395.431,181.214 395.600,181.720 395.600 C 182.226 395.600,182.814 395.774,183.027 395.987 C 183.241 396.201,184.132 396.478,185.007 396.604 C 185.883 396.730,186.960 396.997,187.400 397.198 C 188.864 397.868,192.530 398.800,193.696 398.800 C 194.329 398.800,194.744 398.967,194.618 399.171 C 194.492 399.374,195.400 399.667,196.635 399.822 C 199.171 400.139,204.062 399.746,204.401 399.199 C 204.622 398.840,207.897 398.149,208.530 398.327 C 208.711 398.378,208.745 398.235,208.606 398.010 C 208.454 397.764,208.843 397.600,209.576 397.600 C 210.249 397.600,210.800 397.429,210.800 397.220 C 210.800 397.011,211.876 396.718,213.192 396.569 C 214.508 396.420,215.487 396.141,215.369 395.949 C 215.250 395.757,215.793 395.600,216.576 395.600 C 217.359 395.600,218.000 395.445,218.000 395.256 C 218.000 395.066,218.919 394.803,220.042 394.670 C 221.166 394.537,222.370 394.196,222.719 393.914 C 223.252 393.482,223.300 393.496,223.018 394.000 C 222.745 394.488,222.783 394.507,223.221 394.100 C 223.518 393.825,224.174 393.600,224.680 393.600 C 225.186 393.600,225.600 393.420,225.600 393.200 C 225.600 392.980,226.196 392.800,226.924 392.800 C 227.651 392.800,228.596 392.536,229.024 392.213 C 229.451 391.890,230.295 391.620,230.900 391.613 C 231.505 391.606,232.000 391.443,232.000 391.252 C 232.000 390.920,235.410 390.244,236.900 390.279 C 237.285 390.288,237.600 390.139,237.600 389.948 C 237.600 389.757,238.061 389.600,238.624 389.600 C 239.204 389.600,239.540 389.427,239.400 389.200 C 239.258 388.970,239.620 388.800,240.250 388.800 C 241.527 388.800,246.106 387.590,246.400 387.176 C 246.588 386.910,249.229 386.473,251.000 386.414 C 251.665 386.392,251.699 386.322,251.200 386.000 C 250.755 385.712,250.993 385.611,252.124 385.606 C 253.036 385.602,253.548 385.440,253.400 385.200 C 253.259 384.972,253.635 384.787,254.276 384.769 C 254.894 384.753,255.760 384.664,256.200 384.573 C 256.640 384.482,257.392 384.368,257.871 384.319 C 258.350 384.270,258.655 384.088,258.548 383.915 C 258.440 383.742,258.903 383.600,259.576 383.600 C 260.249 383.600,260.800 383.429,260.800 383.220 C 260.800 383.011,261.880 382.718,263.200 382.568 C 264.520 382.419,265.600 382.140,265.600 381.948 C 265.600 381.757,266.039 381.600,266.576 381.600 C 267.113 381.600,267.654 381.437,267.777 381.237 C 267.991 380.891,271.844 380.159,272.530 380.335 C 272.711 380.382,272.745 380.235,272.606 380.010 C 272.449 379.756,272.959 379.600,273.943 379.600 C 274.818 379.600,275.599 379.402,275.680 379.161 C 275.760 378.919,276.675 378.626,277.713 378.509 C 278.751 378.392,279.600 378.139,279.600 377.948 C 279.600 377.757,280.230 377.600,281.000 377.600 C 281.770 377.600,282.400 377.444,282.400 377.254 C 282.400 377.064,283.237 376.794,284.260 376.654 C 285.282 376.514,286.397 376.174,286.736 375.899 C 287.232 375.498,287.293 375.500,287.047 375.910 C 286.869 376.207,287.298 376.107,288.077 375.669 C 288.811 375.257,290.261 374.792,291.297 374.636 C 292.333 374.481,293.286 374.184,293.414 373.977 C 293.542 373.770,294.166 373.600,294.800 373.600 C 295.434 373.600,296.056 373.433,296.183 373.228 C 296.309 373.023,297.400 372.733,298.606 372.582 C 299.813 372.431,300.800 372.149,300.800 371.954 C 300.800 371.759,301.430 371.600,302.200 371.600 C 302.970 371.600,303.600 371.420,303.600 371.200 C 303.600 370.980,303.993 370.800,304.474 370.800 C 305.515 370.800,310.030 369.602,310.600 369.175 C 310.820 369.010,311.990 368.752,313.200 368.602 C 314.410 368.451,315.460 368.164,315.533 367.964 C 315.607 367.764,316.292 367.600,317.057 367.600 C 317.882 367.600,318.347 367.437,318.200 367.200 C 318.064 366.980,318.278 366.787,318.676 366.770 C 320.047 366.714,321.384 366.376,321.771 365.989 C 321.985 365.775,322.754 365.600,323.480 365.600 C 324.206 365.600,324.800 365.429,324.800 365.220 C 324.800 365.011,325.880 364.718,327.200 364.568 C 328.520 364.419,329.600 364.140,329.600 363.948 C 329.600 363.757,330.230 363.600,331.000 363.600 C 331.770 363.600,332.400 363.444,332.400 363.253 C 332.400 362.961,334.367 362.487,336.300 362.312 C 336.575 362.287,336.800 362.117,336.800 361.933 C 336.800 361.750,337.415 361.600,338.167 361.600 C 338.918 361.600,339.602 361.393,339.687 361.140 C 339.771 360.886,340.842 360.596,342.065 360.495 L 344.290 360.310 344.545 357.295 C 344.685 355.636,344.800 353.237,344.800 351.963 C 344.800 350.689,344.980 349.536,345.200 349.400 C 345.420 349.264,345.600 347.554,345.600 345.600 C 345.600 343.646,345.780 341.936,346.000 341.800 C 346.220 341.664,346.400 341.373,346.400 341.153 C 346.400 340.933,346.192 340.881,345.938 341.038 C 345.622 341.234,345.587 341.147,345.827 340.762 C 346.305 339.996,346.310 339.944,346.619 332.643 C 346.769 329.099,347.051 326.029,347.246 325.820 C 347.441 325.611,347.600 324.137,347.600 322.544 C 347.600 320.951,347.780 319.536,348.000 319.400 C 348.220 319.264,348.397 318.938,348.394 318.676 C 348.390 318.390,348.233 318.439,348.000 318.800 C 347.787 319.130,347.609 319.205,347.606 318.967 C 347.603 318.728,347.724 318.410,347.875 318.259 C 348.214 317.919,348.250 317.548,348.610 310.600 C 348.770 307.520,349.037 304.820,349.203 304.600 C 349.369 304.380,349.538 302.404,349.578 300.208 C 349.618 298.012,349.806 296.120,349.997 296.002 C 350.187 295.885,350.316 295.521,350.283 295.194 C 350.130 293.670,350.927 282.369,351.199 282.200 C 351.369 282.096,351.534 280.350,351.567 278.321 C 351.600 276.252,351.809 274.518,352.043 274.373 C 352.273 274.231,352.416 273.864,352.361 273.557 C 352.122 272.237,352.935 258.400,353.251 258.400 C 353.443 258.400,353.600 257.061,353.600 255.424 C 353.600 253.787,353.780 252.336,354.000 252.200 C 354.220 252.064,354.397 251.738,354.394 251.476 C 354.390 251.182,354.223 251.229,353.956 251.600 C 353.612 252.078,353.587 252.037,353.830 251.400 C 354.231 250.350,354.721 244.647,354.765 240.524 C 354.784 238.722,354.957 237.150,355.149 237.032 C 355.341 236.913,355.528 235.243,355.566 233.321 C 355.604 231.398,355.762 229.730,355.918 229.613 C 356.284 229.337,356.304 229.087,356.629 220.600 C 356.781 216.640,357.062 213.340,357.253 213.267 C 357.444 213.193,357.600 211.900,357.600 210.393 C 357.600 208.885,357.763 207.223,357.962 206.699 C 358.161 206.175,358.454 202.519,358.612 198.573 C 358.771 194.628,359.058 191.340,359.250 191.267 C 359.443 191.193,359.600 189.453,359.600 187.400 C 359.600 185.347,359.763 183.607,359.962 183.533 C 360.241 183.431,360.832 175.081,360.956 169.500 C 360.964 169.115,361.113 168.800,361.286 168.800 C 361.459 168.800,361.600 167.195,361.600 165.233 C 361.600 163.272,361.762 161.607,361.961 161.533 C 362.159 161.460,362.449 158.070,362.604 154.000 C 362.759 149.930,363.046 146.429,363.243 146.220 C 363.439 146.011,363.600 144.245,363.600 142.296 C 363.600 139.858,363.735 138.836,364.033 139.020 C 364.293 139.181,364.425 138.992,364.364 138.544 C 364.093 136.540,364.936 124.800,365.351 124.794 C 365.598 124.791,365.530 124.613,365.200 124.400 C 364.870 124.187,364.801 124.009,365.046 124.006 C 365.333 124.002,365.519 122.758,365.568 120.510 C 365.610 118.590,365.807 116.919,366.004 116.797 C 366.202 116.675,366.349 116.221,366.331 115.788 C 366.229 113.340,366.973 102.740,367.260 102.563 C 367.447 102.447,367.600 102.173,367.600 101.953 C 367.600 101.733,367.420 101.664,367.200 101.800 C 366.980 101.936,366.800 101.857,366.800 101.624 C 366.800 101.391,366.980 101.200,367.200 101.200 C 367.433 101.200,367.600 99.889,367.600 98.067 C 367.600 96.343,367.735 94.798,367.900 94.633 C 368.065 94.468,368.211 93.853,368.225 93.267 C 368.351 87.882,368.975 80.490,369.344 80.023 C 369.695 79.580,369.684 79.516,369.300 79.747 C 369.025 79.912,368.800 79.867,368.800 79.647 C 368.800 79.427,368.980 79.136,369.200 79.000 C 369.420 78.864,369.600 77.443,369.600 75.843 C 369.600 74.243,369.733 72.801,369.895 72.639 C 370.057 72.476,370.207 71.771,370.229 71.072 C 370.430 64.593,370.982 56.974,371.258 56.867 C 371.446 56.793,371.600 55.319,371.600 53.590 C 371.600 51.862,371.780 50.336,372.000 50.200 C 372.220 50.064,372.397 49.738,372.394 49.476 C 372.390 49.190,372.233 49.239,372.000 49.600 C 371.767 49.961,371.610 50.010,371.606 49.724 C 371.603 49.462,371.755 49.151,371.945 49.034 C 372.135 48.916,372.325 47.252,372.368 45.336 C 372.410 43.420,372.514 41.738,372.600 41.600 C 372.686 41.462,372.790 39.785,372.832 37.874 C 372.874 35.963,373.064 34.400,373.254 34.400 C 373.444 34.400,373.600 32.769,373.600 30.776 C 373.600 28.556,373.749 27.245,373.985 27.391 C 374.201 27.524,374.346 27.138,374.314 26.514 C 374.183 23.884,374.929 12.988,375.249 12.867 C 375.442 12.793,375.600 11.139,375.600 9.190 C 375.600 7.242,375.743 5.559,375.917 5.451 C 376.091 5.344,376.277 4.073,376.330 2.628 L 376.427 0.000 199.814 0.000 L 23.200 0.000 23.235 2.900 M343.675 29.224 C 343.752 29.456,343.595 32.021,343.326 34.924 C 342.843 40.129,342.568 43.228,341.398 56.600 C 341.071 60.340,340.626 65.290,340.408 67.600 C 340.190 69.910,339.736 74.950,339.398 78.800 C 339.061 82.650,338.610 87.780,338.397 90.200 C 338.183 92.620,337.734 97.750,337.399 101.600 C 337.063 105.450,336.615 110.400,336.403 112.600 C 336.191 114.800,335.745 119.840,335.413 123.800 C 335.080 127.760,334.627 132.890,334.406 135.200 C 334.185 137.510,333.731 142.640,333.397 146.600 C 333.063 150.560,332.610 155.690,332.390 158.000 C 332.170 160.310,331.725 165.260,331.400 169.000 C 330.754 176.457,330.230 182.258,329.595 189.000 C 329.367 191.420,329.002 195.560,328.782 198.200 C 328.563 200.840,328.205 204.980,327.987 207.400 C 327.770 209.820,327.315 214.950,326.977 218.800 C 326.277 226.767,325.918 230.806,325.003 241.000 C 324.362 248.141,324.061 251.563,323.229 261.200 C 322.992 263.950,322.620 268.090,322.404 270.400 C 322.187 272.710,321.738 277.750,321.406 281.600 C 321.073 285.450,320.618 290.580,320.394 293.000 C 319.834 299.039,318.875 309.660,318.389 315.200 C 318.167 317.730,317.719 322.667,317.393 326.171 C 317.067 329.675,316.800 333.307,316.800 334.242 C 316.800 336.505,316.309 336.897,312.144 337.961 C 310.195 338.459,307.790 339.099,306.800 339.384 C 305.810 339.669,304.280 340.095,303.400 340.332 C 300.080 341.224,296.965 342.093,296.000 342.396 C 295.450 342.569,293.920 343.003,292.600 343.361 C 280.034 346.770,267.834 350.113,266.200 350.595 C 265.100 350.919,263.210 351.446,262.000 351.765 C 260.790 352.085,258.090 352.818,256.000 353.395 C 253.910 353.972,250.580 354.879,248.600 355.411 C 243.483 356.785,232.292 359.862,226.800 361.404 C 225.590 361.743,223.880 362.219,223.000 362.460 C 222.120 362.701,220.590 363.124,219.600 363.400 C 218.610 363.676,216.990 364.126,216.000 364.400 C 215.010 364.674,213.390 365.129,212.400 365.411 C 211.410 365.694,208.440 366.506,205.800 367.216 C 203.160 367.926,200.777 368.592,200.503 368.695 C 200.112 368.843,199.985 364.136,199.903 346.551 L 199.800 324.219 198.600 323.856 C 197.940 323.657,197.040 323.348,196.600 323.170 C 196.160 322.992,195.170 322.731,194.400 322.590 C 192.900 322.316,190.701 321.690,189.400 321.168 C 188.960 320.991,187.970 320.731,187.200 320.590 C 185.549 320.288,183.252 319.625,182.384 319.200 C 182.045 319.034,180.830 318.769,179.684 318.612 C 178.539 318.454,177.500 318.162,177.377 317.963 C 177.254 317.763,176.743 317.600,176.243 317.600 C 175.743 317.600,175.201 317.468,175.040 317.306 C 174.772 317.038,172.024 316.323,169.000 315.733 C 168.340 315.605,167.620 315.359,167.400 315.187 C 167.180 315.015,166.143 314.747,165.095 314.591 C 164.047 314.435,163.092 314.148,162.971 313.954 C 162.851 313.759,162.223 313.600,161.576 313.600 C 160.929 313.600,160.400 313.441,160.400 313.246 C 160.400 313.051,159.413 312.769,158.206 312.618 C 157.000 312.467,155.909 312.177,155.783 311.972 C 155.656 311.767,155.023 311.600,154.376 311.600 C 153.729 311.600,153.200 311.441,153.200 311.246 C 153.200 311.051,152.213 310.769,151.006 310.618 C 149.800 310.467,148.709 310.177,148.583 309.972 C 148.456 309.767,147.834 309.600,147.200 309.600 C 146.566 309.600,145.946 309.437,145.823 309.237 C 145.700 309.038,144.700 308.751,143.600 308.600 C 142.500 308.449,141.500 308.162,141.377 307.963 C 141.254 307.763,140.634 307.600,140.000 307.600 C 139.366 307.600,138.746 307.437,138.623 307.237 C 138.500 307.038,137.500 306.751,136.400 306.600 C 135.300 306.449,134.300 306.162,134.177 305.963 C 134.054 305.763,133.434 305.600,132.800 305.600 C 132.166 305.600,131.551 305.444,131.432 305.253 C 131.314 305.061,130.449 304.784,129.509 304.637 C 127.644 304.344,125.397 303.702,124.305 303.151 C 123.923 302.958,123.269 302.800,122.851 302.800 C 121.983 302.800,118.145 301.706,117.105 301.163 C 116.723 300.963,116.069 300.800,115.651 300.800 C 114.757 300.800,111.147 299.739,109.316 298.939 C 107.756 298.257,107.746 298.208,107.191 288.600 C 106.963 284.640,106.612 279.600,106.413 277.400 C 106.213 275.200,105.761 269.530,105.408 264.800 C 105.055 260.070,104.605 254.310,104.409 252.000 C 104.213 249.690,103.777 244.020,103.440 239.400 C 103.103 234.780,102.776 230.460,102.713 229.800 L 102.600 228.600 125.000 228.600 L 147.400 228.600 147.660 231.600 C 147.802 233.250,148.110 236.850,148.343 239.600 C 148.576 242.350,148.867 245.770,148.989 247.200 C 149.111 248.630,149.375 251.420,149.575 253.400 C 149.776 255.380,150.065 258.446,150.217 260.212 C 150.518 263.724,151.077 264.400,153.680 264.400 C 154.296 264.400,154.800 264.559,154.800 264.754 C 154.800 264.949,155.787 265.231,156.994 265.382 C 158.200 265.533,159.291 265.823,159.417 266.028 C 159.544 266.233,160.089 266.400,160.629 266.400 C 161.169 266.400,161.923 266.573,162.305 266.784 C 162.948 267.139,165.299 267.737,168.200 268.284 C 168.860 268.409,169.490 268.632,169.600 268.781 C 169.710 268.929,170.880 269.272,172.200 269.543 C 173.520 269.813,175.095 270.137,175.700 270.263 C 176.305 270.388,176.800 270.650,176.800 270.845 C 176.800 271.040,177.319 271.200,177.954 271.200 C 179.028 271.200,182.361 272.062,184.200 272.815 C 184.640 272.995,185.720 273.256,186.600 273.395 C 188.345 273.671,190.630 274.315,191.641 274.816 C 191.994 274.990,193.164 275.261,194.241 275.417 C 195.319 275.573,196.380 275.841,196.600 276.012 C 196.987 276.313,198.477 276.535,199.500 276.444 C 199.896 276.409,200.000 269.230,200.000 242.000 L 200.000 207.600 150.244 207.600 L 100.488 207.600 100.231 206.100 C 100.090 205.275,99.704 201.360,99.374 197.400 C 99.043 193.440,98.617 188.580,98.427 186.600 C 98.237 184.620,97.890 180.750,97.657 178.000 C 97.424 175.250,97.133 171.830,97.011 170.400 C 96.889 168.970,96.623 166.180,96.420 164.200 C 96.216 162.220,95.842 157.450,95.587 153.600 C 95.332 149.750,94.966 146.240,94.774 145.800 C 94.581 145.360,94.339 143.470,94.234 141.600 C 93.747 132.854,92.971 123.634,92.700 123.365 C 92.535 123.201,92.400 121.659,92.400 119.939 C 92.400 118.219,92.215 116.044,91.990 115.106 C 91.764 114.168,91.400 110.610,91.181 107.200 C 90.730 100.189,90.195 94.165,89.813 91.800 C 89.670 90.920,89.389 87.230,89.187 83.600 C 88.985 79.970,88.707 76.145,88.569 75.100 L 88.319 73.200 144.160 73.200 L 200.000 73.200 200.000 51.000 L 200.000 28.800 271.767 28.800 C 321.911 28.800,343.576 28.928,343.675 29.224 M138.613 124.300 C 138.770 127.985,139.042 131.182,139.218 131.404 C 139.394 131.626,139.626 133.426,139.734 135.404 C 139.841 137.382,140.227 142.510,140.590 146.800 C 140.953 151.090,141.342 156.175,141.454 158.100 L 141.657 161.600 170.828 161.600 L 200.000 161.600 200.000 139.600 L 200.000 117.600 169.164 117.600 L 138.329 117.600 138.613 124.300 " stroke="none" fill="#e44c24" fill-rule="evenodd"></path><path id="path3" d="M310.120 75.200 C 310.120 76.410,310.195 76.905,310.287 76.300 C 310.378 75.695,310.378 74.705,310.287 74.100 C 310.195 73.495,310.120 73.990,310.120 75.200 M89.320 81.600 C 89.320 82.810,89.395 83.305,89.487 82.700 C 89.578 82.095,89.578 81.105,89.487 80.500 C 89.395 79.895,89.320 80.390,89.320 81.600 M309.701 82.200 C 309.705 83.080,309.787 83.393,309.883 82.895 C 309.979 82.398,309.975 81.678,309.875 81.295 C 309.775 80.913,309.696 81.320,309.701 82.200 M89.701 85.400 C 89.705 86.280,89.787 86.593,89.883 86.095 C 89.979 85.598,89.975 84.878,89.875 84.495 C 89.775 84.113,89.696 84.520,89.701 85.400 M309.314 87.400 C 309.317 88.500,309.395 88.903,309.487 88.295 C 309.579 87.686,309.577 86.786,309.482 86.295 C 309.387 85.803,309.311 86.300,309.314 87.400 M90.093 91.200 C 90.093 91.970,90.175 92.285,90.276 91.900 C 90.376 91.515,90.376 90.885,90.276 90.500 C 90.175 90.115,90.093 90.430,90.093 91.200 M90.524 95.400 C 90.526 96.720,90.601 97.212,90.690 96.493 C 90.779 95.774,90.777 94.694,90.686 94.093 C 90.595 93.492,90.522 94.080,90.524 95.400 M308.200 96.800 C 308.044 98.147,308.001 99.334,308.105 99.438 C 308.209 99.542,308.419 98.522,308.571 97.171 C 308.724 95.821,308.767 94.634,308.667 94.533 C 308.566 94.433,308.356 95.453,308.200 96.800 M91.223 104.433 C 91.236 105.185,91.405 106.520,91.598 107.400 C 91.869 108.630,91.898 108.352,91.726 106.200 C 91.487 103.220,91.185 102.158,91.223 104.433 M307.314 107.000 C 307.317 108.100,307.395 108.503,307.487 107.895 C 307.579 107.286,307.577 106.386,307.482 105.895 C 307.387 105.403,307.311 105.900,307.314 107.000 M92.093 113.200 C 92.093 113.970,92.175 114.285,92.276 113.900 C 92.376 113.515,92.376 112.885,92.276 112.500 C 92.175 112.115,92.093 112.430,92.093 113.200 M306.378 115.800 L 306.200 117.000 221.900 117.101 L 137.600 117.202 137.664 118.701 C 137.727 120.178,137.730 120.181,137.889 118.900 L 138.051 117.600 221.925 117.594 C 268.056 117.591,306.039 117.436,306.332 117.250 C 306.643 117.053,306.800 116.433,306.710 115.757 L 306.557 114.600 306.378 115.800 M92.524 117.800 C 92.526 119.120,92.601 119.612,92.690 118.893 C 92.779 118.174,92.777 117.094,92.686 116.493 C 92.595 115.892,92.522 116.480,92.524 117.800 M138.093 124.400 C 138.093 125.170,138.175 125.485,138.276 125.100 C 138.376 124.715,138.376 124.085,138.276 123.700 C 138.175 123.315,138.093 123.630,138.093 124.400 M93.223 126.833 C 93.236 127.585,93.405 128.920,93.598 129.800 C 93.869 131.030,93.898 130.752,93.726 128.600 C 93.487 125.620,93.185 124.558,93.223 126.833 M138.509 127.600 C 138.509 128.590,138.587 128.995,138.682 128.500 C 138.778 128.005,138.778 127.195,138.682 126.700 C 138.587 126.205,138.509 126.610,138.509 127.600 M94.093 135.600 C 94.093 136.370,94.175 136.685,94.276 136.300 C 94.376 135.915,94.376 135.285,94.276 134.900 C 94.175 134.515,94.093 134.830,94.093 135.600 M139.324 137.400 C 139.326 138.720,139.401 139.212,139.490 138.493 C 139.579 137.774,139.577 136.694,139.486 136.093 C 139.395 135.492,139.322 136.080,139.324 137.400 M94.520 140.000 C 94.520 141.210,94.595 141.705,94.687 141.100 C 94.778 140.495,94.778 139.505,94.687 138.900 C 94.595 138.295,94.520 138.790,94.520 140.000 M139.693 142.000 C 139.693 142.770,139.775 143.085,139.876 142.700 C 139.976 142.315,139.976 141.685,139.876 141.300 C 139.775 140.915,139.693 141.230,139.693 142.000 M140.093 147.600 C 140.093 148.370,140.175 148.685,140.276 148.300 C 140.376 147.915,140.376 147.285,140.276 146.900 C 140.175 146.515,140.093 146.830,140.093 147.600 M95.301 149.400 C 95.305 150.280,95.387 150.593,95.483 150.095 C 95.579 149.598,95.575 148.878,95.475 148.495 C 95.375 148.113,95.296 148.520,95.301 149.400 M140.509 150.800 C 140.509 151.790,140.587 152.195,140.682 151.700 C 140.778 151.205,140.778 150.395,140.682 149.900 C 140.587 149.405,140.509 149.810,140.509 150.800 M95.693 152.400 C 95.693 153.170,95.775 153.485,95.876 153.100 C 95.976 152.715,95.976 152.085,95.876 151.700 C 95.775 151.315,95.693 151.630,95.693 152.400 M96.093 158.000 C 96.093 158.770,96.175 159.085,96.276 158.700 C 96.376 158.315,96.376 157.685,96.276 157.300 C 96.175 156.915,96.093 157.230,96.093 158.000 M141.246 160.076 C 141.221 161.108,141.342 162.041,141.516 162.148 C 141.690 162.256,141.770 161.682,141.693 160.872 C 141.459 158.398,141.295 158.107,141.246 160.076 M96.524 162.200 C 96.526 163.520,96.601 164.012,96.690 163.293 C 96.779 162.574,96.777 161.494,96.686 160.893 C 96.595 160.292,96.522 160.880,96.524 162.200 M250.000 162.298 C 298.136 162.391,301.835 162.446,302.300 163.076 C 302.575 163.448,302.800 163.575,302.800 163.356 C 302.800 162.004,302.592 161.999,250.020 162.098 L 198.200 162.197 250.000 162.298 M97.309 171.600 C 97.309 172.590,97.387 172.995,97.482 172.500 C 97.578 172.005,97.578 171.195,97.482 170.700 C 97.387 170.205,97.309 170.610,97.309 171.600 M301.301 171.400 C 301.305 172.280,301.387 172.593,301.483 172.095 C 301.579 171.598,301.575 170.878,301.475 170.495 C 301.375 170.113,301.296 170.520,301.301 171.400 M97.693 174.800 C 97.693 175.570,97.775 175.885,97.876 175.500 C 97.976 175.115,97.976 174.485,97.876 174.100 C 97.775 173.715,97.693 174.030,97.693 174.800 M300.501 179.400 C 300.505 180.280,300.587 180.593,300.683 180.095 C 300.779 179.598,300.775 178.878,300.675 178.495 C 300.575 178.113,300.496 178.520,300.501 179.400 M300.109 182.800 C 300.109 183.790,300.187 184.195,300.282 183.700 C 300.378 183.205,300.378 182.395,300.282 181.900 C 300.187 181.405,300.109 181.810,300.109 182.800 M98.524 184.600 C 98.526 185.920,98.601 186.412,98.690 185.693 C 98.779 184.974,98.777 183.894,98.686 183.293 C 98.595 182.692,98.522 183.280,98.524 184.600 M299.324 193.000 C 299.326 194.320,299.401 194.812,299.490 194.093 C 299.579 193.374,299.577 192.294,299.486 191.693 C 299.395 191.092,299.322 191.680,299.324 193.000 M99.223 193.633 C 99.236 194.385,99.405 195.720,99.598 196.600 C 99.869 197.830,99.898 197.552,99.726 195.400 C 99.487 192.420,99.185 191.358,99.223 193.633 M100.093 202.400 C 100.093 203.170,100.175 203.485,100.276 203.100 C 100.376 202.715,100.376 202.085,100.276 201.700 C 100.175 201.315,100.093 201.630,100.093 202.400 M298.501 202.600 C 298.505 203.480,298.587 203.793,298.683 203.295 C 298.779 202.798,298.775 202.078,298.675 201.695 C 298.575 201.313,298.496 201.720,298.501 202.600 M298.101 205.800 C 298.105 206.680,298.187 206.993,298.283 206.495 C 298.379 205.998,298.375 205.278,298.275 204.895 C 298.175 204.513,298.096 204.920,298.101 205.800 M100.400 205.776 C 100.400 206.313,100.547 206.844,100.728 206.955 C 100.908 207.067,100.977 206.627,100.882 205.979 C 100.672 204.549,100.400 204.435,100.400 205.776 M212.529 207.500 C 220.190 207.561,232.610 207.561,240.129 207.500 C 247.648 207.439,241.380 207.389,226.200 207.389 C 211.020 207.389,204.868 207.439,212.529 207.500 M253.293 209.200 C 253.293 209.970,253.375 210.285,253.476 209.900 C 253.576 209.515,253.576 208.885,253.476 208.500 C 253.375 208.115,253.293 208.430,253.293 209.200 M297.320 216.000 C 297.320 217.210,297.395 217.705,297.487 217.100 C 297.578 216.495,297.578 215.505,297.487 214.900 C 297.395 214.295,297.320 214.790,297.320 216.000 M252.514 217.800 C 252.517 218.900,252.595 219.303,252.687 218.695 C 252.779 218.086,252.777 217.186,252.682 216.695 C 252.587 216.203,252.511 216.700,252.514 217.800 M296.501 225.400 C 296.505 226.280,296.587 226.593,296.683 226.095 C 296.779 225.598,296.775 224.878,296.675 224.495 C 296.575 224.113,296.496 224.520,296.501 225.400 M251.701 227.000 C 251.705 227.880,251.787 228.193,251.883 227.695 C 251.979 227.198,251.975 226.478,251.875 226.095 C 251.775 225.713,251.696 226.120,251.701 227.000 M296.109 228.800 C 296.109 229.790,296.187 230.195,296.282 229.700 C 296.378 229.205,296.378 228.395,296.282 227.900 C 296.187 227.405,296.109 227.810,296.109 228.800 M103.462 228.700 C 103.293 228.972,119.473 228.968,139.000 228.690 C 143.180 228.630,136.936 228.541,125.124 228.491 C 113.312 228.441,103.564 228.535,103.462 228.700 M251.293 230.000 C 251.293 230.770,251.375 231.085,251.476 230.700 C 251.576 230.315,251.576 229.685,251.476 229.300 C 251.375 228.915,251.293 229.230,251.293 230.000 M147.324 233.000 C 147.326 234.320,147.401 234.812,147.490 234.093 C 147.579 233.374,147.577 232.294,147.486 231.693 C 147.395 231.092,147.322 231.680,147.324 233.000 M295.693 234.000 C 295.693 234.770,295.775 235.085,295.876 234.700 C 295.976 234.315,295.976 233.685,295.876 233.300 C 295.775 232.915,295.693 233.230,295.693 234.000 M103.314 235.000 C 103.317 236.100,103.395 236.503,103.487 235.895 C 103.579 235.286,103.577 234.386,103.482 233.895 C 103.387 233.403,103.311 233.900,103.314 235.000 M250.514 238.600 C 250.517 239.700,250.595 240.103,250.687 239.495 C 250.779 238.886,250.777 237.986,250.682 237.495 C 250.587 237.003,250.511 237.500,250.514 238.600 M295.272 238.450 C 295.232 239.468,295.111 240.907,295.001 241.650 L 294.803 243.000 295.222 241.665 C 295.452 240.931,295.574 239.491,295.493 238.465 L 295.344 236.600 295.272 238.450 M103.693 238.400 C 103.693 239.170,103.775 239.485,103.876 239.100 C 103.976 238.715,103.976 238.085,103.876 237.700 C 103.775 237.315,103.693 237.630,103.693 238.400 M104.101 244.600 C 104.105 245.480,104.187 245.793,104.283 245.295 C 104.379 244.798,104.375 244.078,104.275 243.695 C 104.175 243.313,104.096 243.720,104.101 244.600 M148.509 246.000 C 148.509 246.990,148.587 247.395,148.682 246.900 C 148.778 246.405,148.778 245.595,148.682 245.100 C 148.587 244.605,148.509 245.010,148.509 246.000 M249.693 248.000 C 249.693 248.770,249.775 249.085,249.876 248.700 C 249.976 248.315,249.976 247.685,249.876 247.300 C 249.775 246.915,249.693 247.230,249.693 248.000 M294.212 249.812 C 294.055 251.488,294.011 252.944,294.114 253.048 C 294.218 253.151,294.431 251.864,294.588 250.188 C 294.745 248.512,294.789 247.056,294.686 246.952 C 294.582 246.849,294.369 248.136,294.212 249.812 M104.528 249.600 C 104.528 251.030,104.601 251.615,104.689 250.900 C 104.778 250.185,104.778 249.015,104.689 248.300 C 104.601 247.585,104.528 248.170,104.528 249.600 M249.301 251.000 C 249.305 251.880,249.387 252.193,249.483 251.695 C 249.579 251.198,249.575 250.478,249.475 250.095 C 249.375 249.713,249.296 250.120,249.301 251.000 M104.893 254.000 C 104.893 254.770,104.975 255.085,105.076 254.700 C 105.176 254.315,105.176 253.685,105.076 253.300 C 104.975 252.915,104.893 253.230,104.893 254.000 M149.324 255.400 C 149.326 256.720,149.401 257.212,149.490 256.493 C 149.579 255.774,149.577 254.694,149.486 254.093 C 149.395 253.492,149.322 254.080,149.324 255.400 M248.520 259.600 C 248.520 260.810,248.595 261.305,248.687 260.700 C 248.778 260.095,248.778 259.105,248.687 258.500 C 248.595 257.895,248.520 258.390,248.520 259.600 M105.230 260.233 C 105.246 261.095,105.413 262.610,105.601 263.600 C 105.858 264.953,105.888 264.606,105.723 262.200 C 105.490 258.822,105.179 257.582,105.230 260.233 M149.693 260.000 C 149.693 260.770,149.775 261.085,149.876 260.700 C 149.976 260.315,149.976 259.685,149.876 259.300 C 149.775 258.915,149.693 259.230,149.693 260.000 M293.324 261.800 C 293.326 263.120,293.401 263.612,293.490 262.893 C 293.579 262.174,293.577 261.094,293.486 260.493 C 293.395 259.892,293.322 260.480,293.324 261.800 M152.033 264.544 C 152.125 264.623,152.740 264.808,153.400 264.956 C 154.276 265.152,154.438 265.115,154.000 264.818 C 153.460 264.453,151.632 264.198,152.033 264.544 M166.833 268.544 C 166.925 268.623,167.540 268.808,168.200 268.956 C 169.076 269.152,169.238 269.115,168.800 268.818 C 168.260 268.453,166.432 268.198,166.833 268.544 M106.101 270.200 C 106.105 271.080,106.187 271.393,106.283 270.895 C 106.379 270.398,106.375 269.678,106.275 269.295 C 106.175 268.913,106.096 269.320,106.101 270.200 M292.501 271.400 C 292.505 272.280,292.587 272.593,292.683 272.095 C 292.779 271.598,292.775 270.878,292.675 270.495 C 292.575 270.113,292.496 270.520,292.501 271.400 M181.633 272.544 C 181.725 272.623,182.340 272.808,183.000 272.956 C 183.876 273.152,184.038 273.115,183.600 272.818 C 183.060 272.453,181.232 272.198,181.633 272.544 M106.528 275.200 C 106.528 276.630,106.601 277.215,106.689 276.500 C 106.778 275.785,106.778 274.615,106.689 273.900 C 106.601 273.185,106.528 273.770,106.528 275.200 M292.101 274.600 C 292.105 275.480,292.187 275.793,292.283 275.295 C 292.379 274.798,292.375 274.078,292.275 273.695 C 292.175 273.313,292.096 273.720,292.101 274.600 M196.433 276.544 C 196.525 276.623,197.140 276.808,197.800 276.956 C 198.676 277.152,198.838 277.115,198.400 276.818 C 197.860 276.453,196.032 276.198,196.433 276.544 M291.320 284.800 C 291.320 286.010,291.395 286.505,291.487 285.900 C 291.578 285.295,291.578 284.305,291.487 283.700 C 291.395 283.095,291.320 283.590,291.320 284.800 M107.314 285.800 C 107.317 286.900,107.395 287.303,107.487 286.695 C 107.579 286.086,107.577 285.186,107.482 284.695 C 107.387 284.203,107.311 284.700,107.314 285.800 M107.701 289.400 C 107.705 290.280,107.787 290.593,107.883 290.095 C 107.979 289.598,107.975 288.878,107.875 288.495 C 107.775 288.113,107.696 288.520,107.701 289.400 M290.493 293.600 C 290.493 294.370,290.575 294.685,290.676 294.300 C 290.776 293.915,290.776 293.285,290.676 292.900 C 290.575 292.515,290.493 292.830,290.493 293.600 M108.093 295.600 C 108.093 296.370,108.175 296.685,108.276 296.300 C 108.376 295.915,108.376 295.285,108.276 294.900 C 108.175 294.515,108.093 294.830,108.093 295.600 M290.093 296.400 C 290.093 297.170,290.175 297.485,290.276 297.100 C 290.376 296.715,290.376 296.085,290.276 295.700 C 290.175 295.315,290.093 295.630,290.093 296.400 M253.800 308.400 C 253.296 308.617,253.222 308.744,253.600 308.744 C 253.930 308.744,254.560 308.589,255.000 308.400 C 255.504 308.183,255.578 308.056,255.200 308.056 C 254.870 308.056,254.240 308.211,253.800 308.400 M154.000 311.182 C 154.330 311.405,154.945 311.591,155.367 311.594 C 156.390 311.602,156.071 311.373,154.600 311.044 C 153.724 310.848,153.562 310.885,154.000 311.182 M161.200 313.141 C 161.530 313.334,162.340 313.609,163.000 313.752 C 163.768 313.918,163.984 313.884,163.600 313.659 C 163.270 313.466,162.460 313.191,161.800 313.048 C 161.032 312.882,160.816 312.916,161.200 313.141 M168.400 315.182 C 168.730 315.405,169.345 315.591,169.767 315.594 C 170.790 315.602,170.471 315.373,169.000 315.044 C 168.124 314.848,167.962 314.885,168.400 315.182 " stroke="none" fill="#ea9272" fill-rule="evenodd"></path><path id="path4" d="M89.368 73.740 C 89.254 74.037,89.224 75.522,89.302 77.040 L 89.443 79.800 89.522 76.701 L 89.600 73.601 199.900 73.500 L 310.200 73.399 199.887 73.299 C 107.612 73.216,89.541 73.288,89.368 73.740 M309.394 80.938 C 309.238 83.024,309.191 84.971,309.290 85.265 C 309.389 85.559,309.598 83.935,309.756 81.655 C 309.914 79.375,309.961 77.428,309.861 77.327 C 309.761 77.227,309.551 78.852,309.394 80.938 M89.720 82.000 C 89.720 83.210,89.795 83.705,89.887 83.100 C 89.978 82.495,89.978 81.505,89.887 80.900 C 89.795 80.295,89.720 80.790,89.720 82.000 M90.085 88.000 C 90.077 88.770,90.210 90.300,90.382 91.400 C 90.685 93.348,90.694 93.359,90.717 91.800 C 90.730 90.920,90.597 89.390,90.420 88.400 C 90.125 86.742,90.099 86.711,90.085 88.000 M308.280 93.366 C 308.126 95.108,308.073 96.607,308.164 96.698 C 308.411 96.944,308.906 91.836,308.721 90.958 C 308.633 90.541,308.435 91.625,308.280 93.366 M91.097 99.400 C 91.215 101.380,91.376 103.075,91.456 103.167 C 91.735 103.490,91.550 98.980,91.218 97.400 C 90.990 96.312,90.951 96.952,91.097 99.400 M307.392 101.738 C 307.239 103.169,307.193 104.578,307.290 104.870 C 307.387 105.161,307.590 104.068,307.742 102.441 C 307.893 100.814,307.939 99.405,307.843 99.310 C 307.748 99.215,307.545 100.308,307.392 101.738 M91.701 105.000 C 91.705 105.880,91.787 106.193,91.883 105.695 C 91.979 105.198,91.975 104.478,91.875 104.095 C 91.775 103.713,91.696 104.120,91.701 105.000 M306.893 108.000 C 306.893 108.770,306.975 109.085,307.076 108.700 C 307.176 108.315,307.176 107.685,307.076 107.300 C 306.975 106.915,306.893 107.230,306.893 108.000 M92.273 112.200 C 92.396 113.960,92.565 115.475,92.649 115.567 C 92.936 115.884,92.753 112.194,92.401 110.600 C 92.142 109.425,92.108 109.850,92.273 112.200 M306.528 112.400 C 306.528 113.830,306.601 114.415,306.689 113.700 C 306.778 112.985,306.778 111.815,306.689 111.100 C 306.601 110.385,306.528 110.970,306.528 112.400 M137.335 117.425 C 137.203 117.769,137.285 119.164,137.517 120.525 L 137.939 123.000 137.729 120.102 L 137.519 117.205 168.460 117.100 L 199.400 116.995 168.487 116.897 C 140.771 116.810,137.550 116.865,137.335 117.425 M93.109 121.800 C 93.220 123.780,93.376 125.475,93.455 125.567 C 93.722 125.873,93.509 120.616,93.206 119.400 C 93.042 118.740,92.998 119.820,93.109 121.800 M138.109 127.200 C 138.109 128.190,138.187 128.595,138.282 128.100 C 138.378 127.605,138.378 126.795,138.282 126.300 C 138.187 125.805,138.109 126.210,138.109 127.200 M93.701 127.400 C 93.705 128.280,93.787 128.593,93.883 128.095 C 93.979 127.598,93.975 126.878,93.875 126.495 C 93.775 126.113,93.696 126.520,93.701 127.400 M138.423 131.433 C 138.436 132.735,138.596 134.520,138.778 135.400 C 138.999 136.462,139.040 135.723,138.900 133.200 C 138.660 128.890,138.388 127.883,138.423 131.433 M94.273 134.600 C 94.396 136.360,94.565 137.875,94.649 137.967 C 94.936 138.284,94.753 134.594,94.401 133.000 C 94.142 131.825,94.108 132.250,94.273 134.600 M139.286 141.200 C 139.271 142.190,139.403 143.810,139.580 144.800 C 140.024 147.299,140.054 144.761,139.617 141.600 L 139.313 139.400 139.286 141.200 M95.100 144.000 C 95.217 146.090,95.376 147.875,95.456 147.967 C 95.736 148.290,95.549 143.378,95.222 141.800 C 95.001 140.738,94.960 141.477,95.100 144.000 M95.701 149.800 C 95.705 150.680,95.787 150.993,95.883 150.495 C 95.979 149.998,95.975 149.278,95.875 148.895 C 95.775 148.513,95.696 148.920,95.701 149.800 M140.109 150.400 C 140.109 151.390,140.187 151.795,140.282 151.300 C 140.378 150.805,140.378 149.995,140.282 149.500 C 140.187 149.005,140.109 149.410,140.109 150.400 M140.423 154.633 C 140.436 155.935,140.596 157.720,140.778 158.600 C 140.999 159.662,141.040 158.923,140.900 156.400 C 140.660 152.090,140.388 151.083,140.423 154.633 M96.085 154.800 C 96.077 155.570,96.210 157.100,96.382 158.200 C 96.685 160.148,96.694 160.159,96.717 158.600 C 96.730 157.720,96.597 156.190,96.420 155.200 C 96.125 153.542,96.099 153.511,96.085 154.800 M141.200 162.500 C 141.200 162.665,177.367 162.800,221.571 162.800 C 285.511 162.800,301.976 162.902,302.109 163.300 C 302.206 163.587,302.258 163.545,302.233 163.200 C 302.185 162.547,141.200 161.847,141.200 162.500 M97.097 166.200 C 97.215 168.180,97.376 169.875,97.456 169.967 C 97.735 170.290,97.550 165.780,97.218 164.200 C 96.990 163.112,96.951 163.752,97.097 166.200 M301.400 167.600 C 301.245 168.728,301.202 169.736,301.306 169.839 C 301.409 169.942,301.616 169.100,301.767 167.967 C 301.917 166.834,301.959 165.826,301.861 165.728 C 301.763 165.629,301.555 166.472,301.400 167.600 M97.709 172.000 C 97.709 172.990,97.787 173.395,97.882 172.900 C 97.978 172.405,97.978 171.595,97.882 171.100 C 97.787 170.605,97.709 171.010,97.709 172.000 M300.520 176.000 C 300.520 177.210,300.595 177.705,300.687 177.100 C 300.778 176.495,300.778 175.505,300.687 174.900 C 300.595 174.295,300.520 174.790,300.520 176.000 M98.085 177.200 C 98.077 177.970,98.210 179.500,98.382 180.600 C 98.685 182.548,98.694 182.559,98.717 181.000 C 98.730 180.120,98.597 178.590,98.420 177.600 C 98.125 175.942,98.099 175.911,98.085 177.200 M300.101 179.800 C 300.105 180.680,300.187 180.993,300.283 180.495 C 300.379 179.998,300.375 179.278,300.275 178.895 C 300.175 178.513,300.096 178.920,300.101 179.800 M299.393 186.938 C 299.238 188.587,299.193 190.175,299.293 190.468 C 299.392 190.761,299.606 189.499,299.767 187.664 C 299.929 185.829,299.974 184.241,299.868 184.134 C 299.761 184.028,299.547 185.289,299.393 186.938 M99.109 188.600 C 99.220 190.580,99.376 192.275,99.455 192.367 C 99.722 192.673,99.509 187.416,99.206 186.200 C 99.042 185.540,98.998 186.620,99.109 188.600 M99.701 194.200 C 99.705 195.080,99.787 195.393,99.883 194.895 C 99.979 194.398,99.975 193.678,99.875 193.295 C 99.775 192.913,99.696 193.320,99.701 194.200 M298.893 194.400 C 298.893 195.170,298.975 195.485,299.076 195.100 C 299.176 194.715,299.176 194.085,299.076 193.700 C 298.975 193.315,298.893 193.630,298.893 194.400 M298.268 200.155 C 298.108 202.330,298.054 204.188,298.150 204.283 C 298.397 204.530,298.917 197.886,298.722 196.965 C 298.633 196.544,298.429 197.980,298.268 200.155 M100.273 201.400 C 100.396 203.160,100.565 204.675,100.649 204.767 C 100.936 205.084,100.753 201.394,100.401 199.800 C 100.142 198.625,100.108 199.050,100.273 201.400 M101.062 206.900 C 101.164 207.065,123.422 207.157,150.524 207.105 C 177.626 207.053,193.590 206.964,186.000 206.906 C 150.180 206.634,100.895 206.631,101.062 206.900 M226.724 207.100 L 253.648 207.206 253.371 211.103 C 253.219 213.246,253.187 214.910,253.300 214.800 C 253.412 214.690,253.633 212.845,253.790 210.700 L 254.075 206.800 226.937 206.897 L 199.800 206.994 226.724 207.100 M297.393 210.138 C 297.238 211.787,297.192 213.375,297.290 213.668 C 297.388 213.961,297.594 212.691,297.748 210.847 C 297.902 209.003,297.948 207.415,297.851 207.317 C 297.753 207.220,297.547 208.489,297.393 210.138 M252.893 216.800 C 252.893 217.570,252.975 217.885,253.076 217.500 C 253.176 217.115,253.176 216.485,253.076 216.100 C 252.975 215.715,252.893 216.030,252.893 216.800 M296.893 217.200 C 296.893 217.970,296.975 218.285,297.076 217.900 C 297.176 217.515,297.176 216.885,297.076 216.500 C 296.975 216.115,296.893 216.430,296.893 217.200 M252.235 222.635 C 252.083 224.316,252.041 225.774,252.142 225.876 C 252.243 225.977,252.455 224.688,252.612 223.012 C 252.769 221.336,252.811 219.877,252.705 219.771 C 252.599 219.666,252.388 220.954,252.235 222.635 M296.524 221.800 C 296.526 223.120,296.601 223.612,296.690 222.893 C 296.779 222.174,296.777 221.094,296.686 220.493 C 296.595 219.892,296.522 220.480,296.524 221.800 M296.101 225.800 C 296.105 226.680,296.187 226.993,296.283 226.495 C 296.379 225.998,296.375 225.278,296.275 224.895 C 296.175 224.513,296.096 224.920,296.101 225.800 M251.484 230.400 C 251.332 231.610,251.229 233.320,251.257 234.200 C 251.286 235.140,251.449 234.480,251.653 232.600 C 252.049 228.944,251.905 227.064,251.484 230.400 M103.362 229.354 C 103.245 229.659,103.219 230.694,103.305 231.654 C 103.458 233.380,103.461 233.376,103.530 231.300 L 103.600 229.200 124.957 229.200 C 148.369 229.200,146.757 229.028,146.832 231.533 C 146.849 232.120,146.957 232.365,147.072 232.079 C 147.187 231.792,147.165 230.937,147.022 230.179 L 146.764 228.800 125.169 228.800 C 107.136 228.800,103.540 228.891,103.362 229.354 M295.393 232.938 C 295.238 234.587,295.192 236.175,295.290 236.468 C 295.388 236.761,295.594 235.491,295.748 233.647 C 295.902 231.803,295.948 230.215,295.851 230.117 C 295.753 230.020,295.547 231.289,295.393 232.938 M103.714 235.400 C 103.717 236.500,103.795 236.903,103.887 236.295 C 103.979 235.686,103.977 234.786,103.882 234.295 C 103.787 233.803,103.711 234.300,103.714 235.400 M147.283 236.600 C 147.270 237.480,147.403 239.010,147.580 240.000 C 148.030 242.531,148.065 239.864,147.618 237.000 C 147.315 235.052,147.306 235.041,147.283 236.600 M250.893 237.600 C 250.893 238.370,250.975 238.685,251.076 238.300 C 251.176 237.915,251.176 237.285,251.076 236.900 C 250.975 236.515,250.893 236.830,250.893 237.600 M294.893 240.000 C 294.893 240.770,294.975 241.085,295.076 240.700 C 295.176 240.315,295.176 239.685,295.076 239.300 C 294.975 238.915,294.893 239.230,294.893 240.000 M104.276 243.400 C 104.397 245.380,104.565 247.075,104.648 247.167 C 104.927 247.473,104.745 243.424,104.398 241.600 C 104.152 240.303,104.118 240.807,104.276 243.400 M250.258 243.346 C 250.093 245.076,250.042 246.575,250.144 246.677 C 250.406 246.939,250.915 241.876,250.720 240.958 C 250.631 240.541,250.423 241.616,250.258 243.346 M294.524 244.600 C 294.526 245.920,294.601 246.412,294.690 245.693 C 294.779 244.974,294.777 243.894,294.686 243.293 C 294.595 242.692,294.522 243.280,294.524 244.600 M148.109 245.600 C 148.109 246.590,148.187 246.995,148.282 246.500 C 148.378 246.005,148.378 245.195,148.282 244.700 C 148.187 244.205,148.109 244.610,148.109 245.600 M294.101 248.600 C 294.105 249.480,294.187 249.793,294.283 249.295 C 294.379 248.798,294.375 248.078,294.275 247.695 C 294.175 247.313,294.096 247.720,294.101 248.600 M148.423 249.833 C 148.436 251.135,148.596 252.920,148.778 253.800 C 148.999 254.862,149.040 254.123,148.900 251.600 C 148.660 247.290,148.388 246.283,148.423 249.833 M249.701 250.600 C 249.705 251.480,249.787 251.793,249.883 251.295 C 249.979 250.798,249.975 250.078,249.875 249.695 C 249.775 249.313,249.696 249.720,249.701 250.600 M105.107 254.400 C 105.219 256.710,105.376 258.675,105.455 258.767 C 105.736 259.090,105.550 253.379,105.228 251.800 C 105.021 250.782,104.977 251.729,105.107 254.400 M249.320 254.400 C 249.320 255.610,249.395 256.105,249.487 255.500 C 249.578 254.895,249.578 253.905,249.487 253.300 C 249.395 252.695,249.320 253.190,249.320 254.400 M293.393 255.738 C 293.238 257.387,293.193 258.975,293.293 259.268 C 293.392 259.561,293.606 258.299,293.767 256.464 C 293.929 254.629,293.974 253.041,293.868 252.934 C 293.761 252.828,293.547 254.089,293.393 255.738 M248.893 258.400 C 248.893 259.170,248.975 259.485,249.076 259.100 C 249.176 258.715,249.176 258.085,249.076 257.700 C 248.975 257.315,248.893 257.630,248.893 258.400 M149.247 259.433 C 149.273 260.515,149.440 261.940,149.617 262.600 C 149.814 263.332,149.853 262.631,149.718 260.800 C 149.463 257.355,149.177 256.525,149.247 259.433 M105.709 260.800 C 105.709 261.790,105.787 262.195,105.882 261.700 C 105.978 261.205,105.978 260.395,105.882 259.900 C 105.787 259.405,105.709 259.810,105.709 260.800 M248.493 262.800 C 248.493 263.570,248.575 263.885,248.676 263.500 C 248.776 263.115,248.776 262.485,248.676 262.100 C 248.575 261.715,248.493 262.030,248.493 262.800 M292.893 263.200 C 292.893 263.970,292.975 264.285,293.076 263.900 C 293.176 263.515,293.176 262.885,293.076 262.500 C 292.975 262.115,292.893 262.430,292.893 263.200 M153.200 265.182 C 153.530 265.405,154.145 265.591,154.567 265.594 C 155.590 265.602,155.271 265.373,153.800 265.044 C 152.924 264.848,152.762 264.885,153.200 265.182 M242.200 265.600 C 241.696 265.817,241.622 265.944,242.000 265.944 C 242.330 265.944,242.960 265.789,243.400 265.600 C 243.904 265.383,243.978 265.256,243.600 265.256 C 243.270 265.256,242.640 265.411,242.200 265.600 M292.268 268.955 C 292.108 271.130,292.054 272.988,292.150 273.083 C 292.397 273.330,292.917 266.686,292.722 265.765 C 292.633 265.344,292.429 266.780,292.268 268.955 M106.276 269.000 C 106.397 270.980,106.565 272.675,106.648 272.767 C 106.927 273.073,106.745 269.024,106.398 267.200 C 106.152 265.903,106.118 266.407,106.276 269.000 M157.800 266.400 C 158.240 266.589,158.870 266.744,159.200 266.744 C 159.578 266.744,159.504 266.617,159.000 266.400 C 158.560 266.211,157.930 266.056,157.600 266.056 C 157.222 266.056,157.296 266.183,157.800 266.400 M239.200 266.400 C 238.376 266.664,238.341 266.726,239.000 266.754 C 239.440 266.773,240.070 266.613,240.400 266.400 C 241.101 265.947,240.614 265.947,239.200 266.400 M160.800 267.141 C 161.130 267.334,161.940 267.609,162.600 267.752 C 163.368 267.918,163.584 267.884,163.200 267.659 C 162.870 267.466,162.060 267.191,161.400 267.048 C 160.632 266.882,160.416 266.916,160.800 267.141 M234.800 267.618 C 234.362 267.915,234.524 267.952,235.400 267.756 C 236.871 267.427,237.190 267.198,236.167 267.206 C 235.745 267.209,235.130 267.395,234.800 267.618 M165.000 268.400 C 165.440 268.589,166.070 268.744,166.400 268.744 C 166.778 268.744,166.704 268.617,166.200 268.400 C 165.760 268.211,165.130 268.056,164.800 268.056 C 164.422 268.056,164.496 268.183,165.000 268.400 M231.800 268.400 C 231.296 268.617,231.222 268.744,231.600 268.744 C 231.930 268.744,232.560 268.589,233.000 268.400 C 233.504 268.183,233.578 268.056,233.200 268.056 C 232.870 268.056,232.240 268.211,231.800 268.400 M168.000 269.182 C 168.330 269.405,168.945 269.591,169.367 269.594 C 170.390 269.602,170.071 269.373,168.600 269.044 C 167.724 268.848,167.562 268.885,168.000 269.182 M227.400 269.600 C 226.896 269.817,226.822 269.944,227.200 269.944 C 227.530 269.944,228.160 269.789,228.600 269.600 C 229.104 269.383,229.178 269.256,228.800 269.256 C 228.470 269.256,227.840 269.411,227.400 269.600 M172.600 270.400 C 173.040 270.589,173.670 270.744,174.000 270.744 C 174.378 270.744,174.304 270.617,173.800 270.400 C 173.360 270.211,172.730 270.056,172.400 270.056 C 172.022 270.056,172.096 270.183,172.600 270.400 M224.400 270.400 C 223.576 270.664,223.541 270.726,224.200 270.754 C 224.640 270.773,225.270 270.613,225.600 270.400 C 226.301 269.947,225.814 269.947,224.400 270.400 M175.600 271.149 C 175.930 271.346,176.830 271.620,177.600 271.756 C 178.544 271.923,178.740 271.892,178.200 271.661 C 176.963 271.132,174.890 270.723,175.600 271.149 M220.000 271.618 C 219.562 271.915,219.724 271.952,220.600 271.756 C 222.071 271.427,222.390 271.198,221.367 271.206 C 220.945 271.209,220.330 271.395,220.000 271.618 M179.800 272.400 C 180.240 272.589,180.870 272.744,181.200 272.744 C 181.578 272.744,181.504 272.617,181.000 272.400 C 180.560 272.211,179.930 272.056,179.600 272.056 C 179.222 272.056,179.296 272.183,179.800 272.400 M182.800 273.152 C 183.130 273.338,184.030 273.602,184.800 273.738 C 185.643 273.888,185.961 273.852,185.600 273.648 C 185.270 273.462,184.370 273.198,183.600 273.062 C 182.757 272.912,182.439 272.948,182.800 273.152 M213.400 273.415 C 211.816 273.963,211.814 273.966,213.200 273.738 C 213.970 273.612,214.870 273.354,215.200 273.166 C 216.081 272.664,215.230 272.782,213.400 273.415 M187.400 274.400 C 187.840 274.589,188.470 274.744,188.800 274.744 C 189.178 274.744,189.104 274.617,188.600 274.400 C 188.160 274.211,187.530 274.056,187.200 274.056 C 186.822 274.056,186.896 274.183,187.400 274.400 M209.600 274.400 C 208.776 274.664,208.741 274.726,209.400 274.754 C 209.840 274.773,210.470 274.613,210.800 274.400 C 211.501 273.947,211.014 273.947,209.600 274.400 M190.400 275.149 C 190.730 275.346,191.630 275.620,192.400 275.756 C 193.344 275.923,193.540 275.892,193.000 275.661 C 191.763 275.132,189.690 274.723,190.400 275.149 M205.200 275.618 C 204.762 275.915,204.924 275.952,205.800 275.756 C 207.271 275.427,207.590 275.198,206.567 275.206 C 206.145 275.209,205.530 275.395,205.200 275.618 M107.101 279.600 C 107.217 281.910,107.376 283.875,107.456 283.967 C 107.728 284.281,107.541 279.002,107.216 277.200 C 107.004 276.025,106.965 276.858,107.101 279.600 M194.600 276.400 C 195.040 276.589,195.670 276.744,196.000 276.744 C 196.378 276.744,196.304 276.617,195.800 276.400 C 195.360 276.211,194.730 276.056,194.400 276.056 C 194.022 276.056,194.096 276.183,194.600 276.400 M291.393 278.938 C 291.238 280.587,291.192 282.175,291.290 282.468 C 291.388 282.761,291.594 281.491,291.748 279.647 C 291.902 277.803,291.948 276.215,291.851 276.117 C 291.753 276.020,291.547 277.289,291.393 278.938 M197.738 277.294 C 197.992 277.456,198.560 277.588,199.000 277.588 C 199.440 277.588,200.008 277.456,200.262 277.294 C 200.516 277.132,199.948 277.000,199.000 277.000 C 198.052 277.000,197.484 277.132,197.738 277.294 M107.714 286.200 C 107.717 287.300,107.795 287.703,107.887 287.095 C 107.979 286.486,107.977 285.586,107.882 285.095 C 107.787 284.603,107.711 285.100,107.714 286.200 M290.893 286.000 C 290.893 286.770,290.975 287.085,291.076 286.700 C 291.176 286.315,291.176 285.685,291.076 285.300 C 290.975 284.915,290.893 285.230,290.893 286.000 M290.520 290.400 C 290.520 291.610,290.595 292.105,290.687 291.500 C 290.778 290.895,290.778 289.905,290.687 289.300 C 290.595 288.695,290.520 289.190,290.520 290.400 M108.093 292.200 C 108.085 293.080,108.216 294.790,108.383 296.000 L 108.687 298.200 108.709 296.400 C 108.720 295.410,108.590 293.700,108.418 292.600 C 108.118 290.669,108.106 290.655,108.093 292.200 M290.093 294.000 C 290.093 294.770,290.175 295.085,290.276 294.700 C 290.376 294.315,290.376 293.685,290.276 293.300 C 290.175 292.915,290.093 293.230,290.093 294.000 M108.833 298.543 C 108.925 298.621,109.630 298.801,110.400 298.942 C 111.385 299.123,111.622 299.082,111.200 298.806 C 110.658 298.450,108.437 298.203,108.833 298.543 M113.000 299.600 C 113.440 299.789,114.070 299.944,114.400 299.944 C 114.778 299.944,114.704 299.817,114.200 299.600 C 113.760 299.411,113.130 299.256,112.800 299.256 C 112.422 299.256,112.496 299.383,113.000 299.600 M281.256 300.459 C 280.517 300.672,279.990 300.923,280.085 301.018 C 280.180 301.113,281.054 300.940,282.029 300.635 C 284.018 300.011,283.345 299.858,281.256 300.459 M116.433 300.544 C 116.525 300.623,117.140 300.808,117.800 300.956 C 118.676 301.152,118.838 301.115,118.400 300.818 C 117.860 300.453,116.032 300.198,116.433 300.544 M123.000 302.339 C 124.237 302.868,126.310 303.277,125.600 302.851 C 125.270 302.654,124.370 302.380,123.600 302.244 C 122.656 302.077,122.460 302.108,123.000 302.339 M274.400 302.400 C 273.576 302.664,273.541 302.726,274.200 302.754 C 274.640 302.773,275.270 302.613,275.600 302.400 C 276.301 301.947,275.814 301.947,274.400 302.400 M130.400 304.341 C 130.730 304.534,131.540 304.809,132.200 304.952 C 132.968 305.118,133.184 305.084,132.800 304.859 C 132.470 304.666,131.660 304.391,131.000 304.248 C 130.232 304.082,130.016 304.116,130.400 304.341 M267.200 304.400 C 266.376 304.664,266.341 304.726,267.000 304.754 C 267.440 304.773,268.070 304.613,268.400 304.400 C 269.101 303.947,268.614 303.947,267.200 304.400 M134.600 305.600 C 135.040 305.789,135.670 305.944,136.000 305.944 C 136.378 305.944,136.304 305.817,135.800 305.600 C 135.360 305.411,134.730 305.256,134.400 305.256 C 134.022 305.256,134.096 305.383,134.600 305.600 M263.000 305.600 C 262.496 305.817,262.422 305.944,262.800 305.944 C 263.130 305.944,263.760 305.789,264.200 305.600 C 264.704 305.383,264.778 305.256,264.400 305.256 C 264.070 305.256,263.440 305.411,263.000 305.600 M137.600 306.341 C 137.930 306.534,138.740 306.809,139.400 306.952 C 140.168 307.118,140.384 307.084,140.000 306.859 C 139.670 306.666,138.860 306.391,138.200 306.248 C 137.432 306.082,137.216 306.116,137.600 306.341 M260.000 306.400 C 259.176 306.664,259.141 306.726,259.800 306.754 C 260.240 306.773,260.870 306.613,261.200 306.400 C 261.901 305.947,261.414 305.947,260.000 306.400 M141.800 307.600 C 142.996 308.114,143.995 308.114,143.200 307.600 C 142.870 307.387,142.240 307.222,141.800 307.234 L 141.000 307.256 141.800 307.600 M255.800 307.600 C 255.296 307.817,255.222 307.944,255.600 307.944 C 255.930 307.944,256.560 307.789,257.000 307.600 C 257.504 307.383,257.578 307.256,257.200 307.256 C 256.870 307.256,256.240 307.411,255.800 307.600 M144.800 308.352 C 145.130 308.538,146.030 308.802,146.800 308.938 C 147.643 309.088,147.961 309.052,147.600 308.848 C 147.270 308.662,146.370 308.398,145.600 308.262 C 144.757 308.112,144.439 308.148,144.800 308.352 M149.000 309.600 C 149.440 309.789,150.070 309.944,150.400 309.944 C 150.778 309.944,150.704 309.817,150.200 309.600 C 149.760 309.411,149.130 309.256,148.800 309.256 C 148.422 309.256,148.496 309.383,149.000 309.600 M248.400 309.618 C 247.962 309.915,248.124 309.952,249.000 309.756 C 250.471 309.427,250.790 309.198,249.767 309.206 C 249.345 309.209,248.730 309.395,248.400 309.618 M245.600 310.400 C 244.776 310.664,244.741 310.726,245.400 310.754 C 245.840 310.773,246.470 310.613,246.800 310.400 C 247.501 309.947,247.014 309.947,245.600 310.400 M241.200 311.618 C 240.762 311.915,240.924 311.952,241.800 311.756 C 243.271 311.427,243.590 311.198,242.567 311.206 C 242.145 311.209,241.530 311.395,241.200 311.618 M238.200 312.400 C 237.696 312.617,237.622 312.744,238.000 312.744 C 238.330 312.744,238.960 312.589,239.400 312.400 C 239.904 312.183,239.978 312.056,239.600 312.056 C 239.270 312.056,238.640 312.211,238.200 312.400 M160.033 312.544 C 160.125 312.623,160.740 312.808,161.400 312.956 C 162.276 313.152,162.438 313.115,162.000 312.818 C 161.460 312.453,159.632 312.198,160.033 312.544 M163.600 313.600 C 163.930 313.813,164.470 313.988,164.800 313.988 C 165.333 313.988,165.333 313.945,164.800 313.600 C 164.470 313.387,163.930 313.212,163.600 313.212 C 163.067 313.212,163.067 313.255,163.600 313.600 M234.000 313.618 C 233.562 313.915,233.724 313.952,234.600 313.756 C 236.071 313.427,236.390 313.198,235.367 313.206 C 234.945 313.209,234.330 313.395,234.000 313.618 M166.600 314.339 C 167.837 314.868,169.910 315.277,169.200 314.851 C 168.870 314.654,167.970 314.380,167.200 314.244 C 166.256 314.077,166.060 314.108,166.600 314.339 M231.000 314.400 C 230.496 314.617,230.422 314.744,230.800 314.744 C 231.130 314.744,231.760 314.589,232.200 314.400 C 232.704 314.183,232.778 314.056,232.400 314.056 C 232.070 314.056,231.440 314.211,231.000 314.400 M226.800 315.618 C 226.362 315.915,226.524 315.952,227.400 315.756 C 228.871 315.427,229.190 315.198,228.167 315.206 C 227.745 315.209,227.130 315.395,226.800 315.618 M223.800 316.400 C 223.296 316.617,223.222 316.744,223.600 316.744 C 223.930 316.744,224.560 316.589,225.000 316.400 C 225.504 316.183,225.578 316.056,225.200 316.056 C 224.870 316.056,224.240 316.211,223.800 316.400 M174.433 316.544 C 174.525 316.623,175.140 316.808,175.800 316.956 C 176.676 317.152,176.838 317.115,176.400 316.818 C 175.860 316.453,174.032 316.198,174.433 316.544 M181.000 318.339 C 182.237 318.868,184.310 319.277,183.600 318.851 C 183.270 318.654,182.370 318.380,181.600 318.244 C 180.656 318.077,180.460 318.108,181.000 318.339 M216.400 318.400 C 215.596 318.657,215.557 318.723,216.200 318.732 C 216.640 318.738,217.360 318.589,217.800 318.400 C 218.819 317.962,217.768 317.962,216.400 318.400 M188.200 320.339 C 189.437 320.868,191.510 321.277,190.800 320.851 C 190.470 320.654,189.570 320.380,188.800 320.244 C 187.856 320.077,187.660 320.108,188.200 320.339 M209.200 320.400 C 208.376 320.664,208.341 320.726,209.000 320.754 C 209.440 320.773,210.070 320.613,210.400 320.400 C 211.101 319.947,210.614 319.947,209.200 320.400 M192.600 321.600 C 193.040 321.789,193.670 321.944,194.000 321.944 C 194.378 321.944,194.304 321.817,193.800 321.600 C 193.360 321.411,192.730 321.256,192.400 321.256 C 192.022 321.256,192.096 321.383,192.600 321.600 M195.600 322.341 C 195.930 322.534,196.740 322.809,197.400 322.952 C 198.168 323.118,198.384 323.084,198.000 322.859 C 197.670 322.666,196.860 322.391,196.200 322.248 C 195.432 322.082,195.216 322.116,195.600 322.341 M202.000 322.400 C 201.176 322.664,201.141 322.726,201.800 322.754 C 202.240 322.773,202.870 322.613,203.200 322.400 C 203.901 321.947,203.414 321.947,202.000 322.400 " stroke="none" fill="#f4ac8c" fill-rule="evenodd"></path></g></svg>