<svg id="svg" version="1.1" xmlns="http://www.w3.org/2000/svg" xmlns:xlink="http://www.w3.org/1999/xlink" width="400" height="400" viewBox="0, 0, 400,400"><g id="svgg"><path id="path0" d="M-0.000 200.200 L 0.000 400.001 199.700 399.900 L 399.400 399.800 399.400 200.200 L 399.400 0.600 199.700 0.500 L -0.000 0.399 -0.000 200.200 M311.691 181.608 C 329.414 183.288,342.012 190.017,351.892 203.078 C 354.447 206.456,357.200 210.777,357.199 211.408 C 357.199 211.624,353.554 214.130,349.099 216.978 C 338.314 223.873,330.842 228.703,329.516 229.637 C 327.993 230.710,328.018 230.726,325.800 227.312 C 319.371 217.420,311.085 213.292,300.656 214.788 C 284.957 217.039,280.710 235.070,293.600 244.748 C 295.631 246.273,305.272 251.359,309.000 252.872 C 354.416 271.307,368.220 285.982,368.193 315.800 C 368.164 349.232,343.685 369.138,303.644 368.290 C 274.558 367.674,253.082 356.200,239.686 334.120 C 236.966 329.636,236.523 330.288,246.000 324.824 C 250.510 322.223,257.189 318.364,260.842 316.248 C 268.247 311.958,268.348 311.926,269.324 313.580 C 277.747 327.838,291.143 335.376,306.800 334.665 C 322.709 333.944,332.003 325.480,330.043 313.500 C 328.714 305.378,322.848 300.369,306.400 293.310 C 279.885 281.931,272.984 278.103,264.052 269.821 C 246.589 253.627,243.473 222.895,257.271 202.935 C 268.005 187.408,288.433 179.402,311.691 181.608 M217.166 183.759 C 217.812 184.538,217.519 319.305,216.862 323.400 C 212.166 352.693,194.458 367.533,163.303 368.282 C 138.088 368.888,119.304 359.233,107.736 339.722 C 104.056 333.516,103.729 334.404,111.400 329.785 C 114.260 328.063,120.711 324.167,125.737 321.127 C 130.762 318.087,135.082 315.602,135.337 315.605 C 135.755 315.609,137.600 318.064,137.600 318.615 C 137.600 319.355,142.583 326.177,144.614 328.218 C 149.083 332.708,153.370 334.400,160.274 334.400 C 170.743 334.400,175.954 330.598,178.495 321.103 L 179.379 317.800 179.493 251.000 C 179.555 214.260,179.690 183.975,179.791 183.700 C 180.078 182.919,216.517 182.977,217.166 183.759 " stroke="none" fill="#f3db4c" fill-rule="evenodd"></path><path id="path1" d="M293.000 182.599 C 260.521 187.876,242.912 214.617,250.999 246.381 C 255.911 265.671,267.788 276.245,300.000 290.006 C 325.686 300.979,330.600 305.218,330.600 316.400 C 330.600 328.007,320.877 335.177,305.114 335.195 C 289.813 335.212,276.640 327.350,268.565 313.380 C 268.162 312.682,267.704 312.873,262.165 316.052 C 249.630 323.247,238.588 329.677,238.307 329.946 C 237.889 330.346,241.207 336.066,244.031 339.813 C 257.360 357.499,277.321 367.095,302.400 367.873 C 344.854 369.190,370.826 346.198,367.635 310.122 C 365.973 291.335,357.740 279.069,339.226 267.794 C 332.830 263.898,325.866 260.567,309.400 253.523 C 290.454 245.418,284.745 239.519,285.722 229.054 C 287.499 210.025,315.116 208.572,326.200 226.923 C 328.161 230.169,327.661 230.191,333.200 226.611 C 335.730 224.976,338.970 222.899,340.400 221.997 C 341.830 221.094,344.350 219.480,346.000 218.409 C 347.650 217.338,350.758 215.354,352.907 214.001 L 356.813 211.541 355.707 209.552 C 347.352 194.528,332.202 184.533,314.600 182.432 C 309.767 181.855,296.969 181.954,293.000 182.599 M179.998 249.500 C 179.997 320.859,180.043 319.286,177.753 325.007 C 175.850 329.762,171.665 333.256,166.600 334.320 C 153.806 337.008,145.471 332.781,137.636 319.631 C 136.447 317.634,135.422 316.000,135.359 316.000 C 135.185 316.000,110.817 330.675,107.307 332.893 L 105.213 334.216 107.184 337.732 C 118.393 357.728,136.899 368.030,161.542 367.993 C 189.567 367.951,208.320 355.077,214.633 331.547 C 217.035 322.595,216.965 324.865,217.101 251.300 L 217.226 184.000 198.613 184.000 L 180.000 184.000 179.998 249.500 " stroke="none" fill="#343433" fill-rule="evenodd"></path><path id="path2" d="M199.600 0.399 L 399.400 0.600 399.400 200.300 C 399.400 310.135,399.535 400.000,399.700 400.000 C 399.865 400.000,400.000 310.000,400.000 200.000 L 400.000 0.000 199.900 0.099 L -0.200 0.199 199.600 0.399 " stroke="none" fill="#fcf4c4" fill-rule="evenodd"></path><path id="path3" d="M301.717 181.497 C 303.211 181.574,305.551 181.574,306.917 181.496 C 308.282 181.418,307.060 181.355,304.200 181.355 C 301.340 181.356,300.222 181.420,301.717 181.497 M295.105 181.883 C 295.602 181.979,296.322 181.975,296.705 181.875 C 297.087 181.775,296.680 181.696,295.800 181.701 C 294.920 181.705,294.607 181.787,295.105 181.883 M312.100 181.876 C 312.485 181.976,313.115 181.976,313.500 181.876 C 313.885 181.775,313.570 181.693,312.800 181.693 C 312.030 181.693,311.715 181.775,312.100 181.876 M179.861 183.500 C 179.693 183.773,193.512 183.767,210.400 183.488 C 214.030 183.428,208.686 183.339,198.524 183.290 C 188.362 183.240,179.964 183.335,179.861 183.500 M285.400 183.600 C 284.896 183.817,284.822 183.944,285.200 183.944 C 285.530 183.944,286.160 183.789,286.600 183.600 C 287.104 183.383,287.178 183.256,286.800 183.256 C 286.470 183.256,285.840 183.411,285.400 183.600 M217.395 249.800 C 217.395 286.100,217.442 300.891,217.500 282.668 C 217.558 264.446,217.558 234.746,217.500 216.668 C 217.442 198.591,217.395 213.500,217.395 249.800 M331.233 186.552 C 331.641 186.924,335.600 188.793,335.600 188.613 C 335.600 188.388,331.780 186.400,331.347 186.400 C 331.193 186.400,331.142 186.468,331.233 186.552 M269.324 190.991 C 268.188 191.756,267.136 192.579,266.987 192.820 C 266.754 193.198,270.303 190.862,271.380 189.929 C 272.247 189.178,271.256 189.690,269.324 190.991 M340.400 191.718 C 340.400 191.820,341.247 192.597,342.281 193.445 C 343.316 194.293,344.034 194.778,343.876 194.523 C 343.540 193.979,340.400 191.445,340.400 191.718 M346.200 196.800 C 347.059 197.680,347.852 198.400,347.962 198.400 C 348.072 198.400,347.459 197.680,346.600 196.800 C 345.741 195.920,344.948 195.200,344.838 195.200 C 344.728 195.200,345.341 195.920,346.200 196.800 M262.175 196.900 L 261.000 198.200 262.300 197.025 C 263.015 196.379,263.600 195.794,263.600 195.725 C 263.600 195.416,263.270 195.688,262.175 196.900 M348.400 199.325 C 348.400 199.394,348.985 199.979,349.700 200.625 L 351.000 201.800 349.825 200.500 C 348.730 199.288,348.400 199.016,348.400 199.325 M352.500 214.446 C 351.137 215.319,350.695 215.906,351.900 215.243 C 352.818 214.739,354.256 213.627,354.000 213.619 C 353.890 213.616,353.215 213.988,352.500 214.446 M300.100 214.676 C 300.485 214.776,301.115 214.776,301.500 214.676 C 301.885 214.575,301.570 214.493,300.800 214.493 C 300.030 214.493,299.715 214.575,300.100 214.676 M306.705 214.683 C 307.202 214.779,307.922 214.775,308.305 214.675 C 308.687 214.575,308.280 214.496,307.400 214.501 C 306.520 214.505,306.207 214.587,306.705 214.683 M316.200 217.407 C 316.640 217.766,317.360 218.235,317.800 218.451 L 318.600 218.844 317.800 218.193 C 317.360 217.834,316.640 217.365,316.200 217.149 L 315.400 216.756 316.200 217.407 M321.000 221.200 C 322.083 222.300,323.060 223.200,323.170 223.200 C 323.280 223.200,322.483 222.300,321.400 221.200 C 320.317 220.100,319.340 219.200,319.230 219.200 C 319.120 219.200,319.917 220.100,321.000 221.200 M248.909 226.000 C 248.909 226.990,248.987 227.395,249.082 226.900 C 249.178 226.405,249.178 225.595,249.082 225.100 C 248.987 224.605,248.909 225.010,248.909 226.000 M325.385 226.700 C 326.002 227.635,326.583 228.400,326.676 228.400 C 326.964 228.400,325.433 225.966,324.832 225.469 C 324.520 225.211,324.768 225.765,325.385 226.700 M286.448 235.200 C 286.442 235.530,286.683 236.340,286.986 237.000 C 287.693 238.545,287.703 237.826,287.000 236.000 C 286.703 235.230,286.455 234.870,286.448 235.200 M248.914 237.000 C 248.917 238.100,248.995 238.503,249.087 237.895 C 249.179 237.286,249.177 236.386,249.082 235.895 C 248.987 235.403,248.911 235.900,248.914 237.000 M249.293 240.400 C 249.293 241.170,249.375 241.485,249.476 241.100 C 249.576 240.715,249.576 240.085,249.476 239.700 C 249.375 239.315,249.293 239.630,249.293 240.400 M288.730 240.300 C 289.161 240.905,289.928 241.760,290.434 242.200 C 290.940 242.640,290.651 242.145,289.792 241.100 C 288.073 239.008,287.503 238.579,288.730 240.300 M253.600 255.353 C 253.600 255.782,254.790 258.000,255.021 258.000 C 255.131 258.000,254.923 257.415,254.559 256.700 C 253.817 255.240,253.600 254.936,253.600 255.353 M320.800 258.200 C 321.350 258.514,321.980 258.772,322.200 258.772 C 322.420 258.772,322.150 258.514,321.600 258.200 C 321.050 257.886,320.420 257.628,320.200 257.628 C 319.980 257.628,320.250 257.886,320.800 258.200 M257.564 262.333 C 257.780 262.736,258.271 263.321,258.655 263.633 C 259.087 263.984,258.990 263.704,258.401 262.900 C 257.351 261.465,256.957 261.198,257.564 262.333 M333.600 264.179 C 333.600 264.289,334.140 264.659,334.800 265.000 C 335.460 265.341,336.000 265.531,336.000 265.421 C 336.000 265.311,335.460 264.941,334.800 264.600 C 334.140 264.259,333.600 264.069,333.600 264.179 M262.800 268.600 C 263.995 269.810,265.063 270.800,265.173 270.800 C 265.283 270.800,264.395 269.810,263.200 268.600 C 262.005 267.390,260.937 266.400,260.827 266.400 C 260.717 266.400,261.605 267.390,262.800 268.600 M266.524 271.877 C 266.860 272.421,270.000 274.955,270.000 274.682 C 270.000 274.580,269.153 273.803,268.119 272.955 C 267.084 272.107,266.366 271.622,266.524 271.877 M353.200 277.800 C 353.946 278.570,354.647 279.200,354.757 279.200 C 354.867 279.200,354.346 278.570,353.600 277.800 C 352.854 277.030,352.153 276.400,352.043 276.400 C 351.933 276.400,352.454 277.030,353.200 277.800 M355.600 280.258 C 355.600 280.474,356.185 281.179,356.900 281.825 L 358.200 283.000 357.000 281.602 C 356.340 280.833,355.755 280.128,355.700 280.035 C 355.645 279.943,355.600 280.043,355.600 280.258 M283.600 282.996 C 283.600 283.270,286.049 284.484,286.232 284.301 C 286.319 284.214,285.762 283.844,284.995 283.478 C 284.228 283.112,283.600 282.895,283.600 282.996 M290.800 286.600 C 291.350 286.914,291.980 287.172,292.200 287.172 C 292.420 287.172,292.150 286.914,291.600 286.600 C 291.050 286.286,290.420 286.028,290.200 286.028 C 289.980 286.028,290.250 286.286,290.800 286.600 M302.800 291.800 C 303.350 292.114,303.980 292.372,304.200 292.372 C 304.420 292.372,304.150 292.114,303.600 291.800 C 303.050 291.486,302.420 291.228,302.200 291.228 C 301.980 291.228,302.250 291.486,302.800 291.800 M366.056 299.200 C 366.056 299.530,366.211 300.160,366.400 300.600 C 366.617 301.104,366.744 301.178,366.744 300.800 C 366.744 300.470,366.589 299.840,366.400 299.400 C 366.183 298.896,366.056 298.822,366.056 299.200 M325.200 304.200 C 326.395 305.410,327.463 306.400,327.573 306.400 C 327.683 306.400,326.795 305.410,325.600 304.200 C 324.405 302.990,323.337 302.000,323.227 302.000 C 323.117 302.000,324.005 302.990,325.200 304.200 M367.701 307.800 C 367.705 308.680,367.787 308.993,367.883 308.495 C 367.979 307.998,367.975 307.278,367.875 306.895 C 367.775 306.513,367.696 306.920,367.701 307.800 M328.200 308.000 C 328.541 308.660,328.911 309.200,329.021 309.200 C 329.131 309.200,328.941 308.660,328.600 308.000 C 328.259 307.340,327.889 306.800,327.779 306.800 C 327.669 306.800,327.859 307.340,328.200 308.000 M368.161 315.600 C 368.161 319.010,368.222 320.405,368.297 318.700 C 368.372 316.995,368.372 314.205,368.297 312.500 C 368.222 310.795,368.161 312.190,368.161 315.600 M179.301 316.200 C 179.305 317.080,179.387 317.393,179.483 316.895 C 179.579 316.398,179.575 315.678,179.475 315.295 C 179.375 314.913,179.296 315.320,179.301 316.200 M330.493 316.400 C 330.493 317.170,330.575 317.485,330.676 317.100 C 330.776 316.715,330.776 316.085,330.676 315.700 C 330.575 315.315,330.493 315.630,330.493 316.400 M136.360 317.000 C 137.034 318.305,137.588 319.028,137.585 318.600 C 137.583 318.380,137.214 317.750,136.764 317.200 C 136.221 316.536,136.085 316.469,136.360 317.000 M257.900 317.829 C 256.405 318.640,256.496 318.978,258.000 318.200 C 258.660 317.859,259.200 317.494,259.200 317.390 C 259.200 317.132,259.157 317.147,257.900 317.829 M273.600 320.125 C 273.600 320.194,274.185 320.779,274.900 321.425 L 276.200 322.600 275.025 321.300 C 273.930 320.088,273.600 319.816,273.600 320.125 M178.250 321.650 C 177.917 323.317,178.240 323.640,178.600 322.000 C 178.752 321.309,178.793 320.659,178.691 320.558 C 178.589 320.456,178.391 320.947,178.250 321.650 M140.400 323.600 C 140.870 324.260,141.344 324.800,141.454 324.800 C 141.564 324.800,141.270 324.260,140.800 323.600 C 140.330 322.940,139.856 322.400,139.746 322.400 C 139.636 322.400,139.930 322.940,140.400 323.600 M367.693 323.600 C 367.693 324.370,367.775 324.685,367.876 324.300 C 367.976 323.915,367.976 323.285,367.876 322.900 C 367.775 322.515,367.693 322.830,367.693 323.600 M278.800 325.350 C 279.350 325.971,280.340 326.850,281.000 327.304 C 282.426 328.285,282.043 327.864,279.600 325.768 C 278.404 324.741,278.136 324.601,278.800 325.350 M325.600 327.800 C 324.628 328.790,323.923 329.600,324.033 329.600 C 324.143 329.600,325.028 328.790,326.000 327.800 C 326.972 326.810,327.677 326.000,327.567 326.000 C 327.457 326.000,326.572 326.810,325.600 327.800 M143.200 327.325 C 143.200 327.394,143.785 327.979,144.500 328.625 L 145.800 329.800 144.625 328.500 C 143.530 327.288,143.200 327.016,143.200 327.325 M238.300 329.232 C 237.915 329.456,237.614 329.946,237.632 330.320 C 237.657 330.874,237.706 330.889,237.896 330.400 C 238.025 330.070,238.416 329.581,238.765 329.313 C 239.537 328.720,239.261 328.672,238.300 329.232 M110.900 330.046 C 109.537 330.919,109.095 331.506,110.300 330.843 C 111.218 330.339,112.656 329.227,112.400 329.219 C 112.290 329.216,111.615 329.588,110.900 330.046 M284.800 329.779 C 284.800 329.889,285.340 330.259,286.000 330.600 C 286.660 330.941,287.200 331.131,287.200 331.021 C 287.200 330.911,286.660 330.541,286.000 330.200 C 285.340 329.859,284.800 329.669,284.800 329.779 M366.229 330.629 C 366.081 331.215,366.038 331.772,366.132 331.866 C 366.227 331.960,366.424 331.558,366.571 330.971 C 366.719 330.385,366.762 329.828,366.668 329.734 C 366.573 329.640,366.376 330.042,366.229 330.629 M153.400 334.000 C 153.840 334.189,154.560 334.338,155.000 334.332 C 155.643 334.323,155.604 334.257,154.800 334.000 C 153.432 333.562,152.381 333.562,153.400 334.000 M158.300 334.693 C 159.235 334.777,160.765 334.777,161.700 334.693 C 162.635 334.609,161.870 334.540,160.000 334.540 C 158.130 334.540,157.365 334.609,158.300 334.693 M105.200 334.953 C 105.200 335.382,106.390 337.600,106.621 337.600 C 106.731 337.600,106.523 337.015,106.159 336.300 C 105.417 334.840,105.200 334.536,105.200 334.953 M304.500 335.076 C 304.885 335.176,305.515 335.176,305.900 335.076 C 306.285 334.975,305.970 334.893,305.200 334.893 C 304.430 334.893,304.115 334.975,304.500 335.076 M362.678 339.805 C 362.312 340.572,362.095 341.200,362.196 341.200 C 362.470 341.200,363.684 338.751,363.501 338.568 C 363.414 338.481,363.044 339.038,362.678 339.805 M109.077 342.031 C 109.475 342.708,110.056 343.473,110.368 343.731 C 110.680 343.989,110.432 343.435,109.815 342.500 C 108.520 340.537,108.009 340.212,109.077 342.031 M250.000 347.400 C 252.081 349.490,253.874 351.200,253.984 351.200 C 254.094 351.200,252.481 349.490,250.400 347.400 C 248.319 345.310,246.526 343.600,246.416 343.600 C 246.306 343.600,247.919 345.310,250.000 347.400 M359.200 345.600 C 358.730 346.260,358.436 346.800,358.546 346.800 C 358.656 346.800,359.130 346.260,359.600 345.600 C 360.070 344.940,360.364 344.400,360.254 344.400 C 360.144 344.400,359.670 344.940,359.200 345.600 M206.750 348.900 C 206.252 349.615,204.399 351.730,202.632 353.600 L 199.419 357.000 202.498 354.021 C 205.238 351.371,208.382 347.600,207.852 347.600 C 207.743 347.600,207.247 348.185,206.750 348.900 M115.200 349.800 C 115.946 350.570,116.647 351.200,116.757 351.200 C 116.867 351.200,116.346 350.570,115.600 349.800 C 114.854 349.030,114.153 348.400,114.043 348.400 C 113.933 348.400,114.454 349.030,115.200 349.800 M118.800 353.400 C 119.546 354.170,120.247 354.800,120.357 354.800 C 120.467 354.800,119.946 354.170,119.200 353.400 C 118.454 352.630,117.753 352.000,117.643 352.000 C 117.533 352.000,118.054 352.630,118.800 353.400 M256.800 353.346 C 256.800 353.456,257.340 353.930,258.000 354.400 C 258.660 354.870,259.200 355.164,259.200 355.054 C 259.200 354.944,258.660 354.470,258.000 354.000 C 257.340 353.530,256.800 353.236,256.800 353.346 M197.400 358.053 C 195.034 359.824,194.722 360.306,196.880 358.854 C 197.913 358.159,198.869 357.412,199.003 357.195 C 199.355 356.626,199.183 356.718,197.400 358.053 M264.800 358.579 C 264.800 358.689,265.340 359.059,266.000 359.400 C 266.660 359.741,267.200 359.931,267.200 359.821 C 267.200 359.711,266.660 359.341,266.000 359.000 C 265.340 358.659,264.800 358.469,264.800 358.579 M343.500 359.429 C 342.005 360.240,342.096 360.578,343.600 359.800 C 344.260 359.459,344.800 359.094,344.800 358.990 C 344.800 358.732,344.757 358.747,343.500 359.429 M269.200 361.000 C 269.750 361.314,270.380 361.572,270.600 361.572 C 270.820 361.572,270.550 361.314,270.000 361.000 C 269.450 360.686,268.820 360.428,268.600 360.428 C 268.380 360.428,268.650 360.686,269.200 361.000 M132.400 362.600 C 132.950 362.914,133.580 363.172,133.800 363.172 C 134.020 363.172,133.750 362.914,133.200 362.600 C 132.650 362.286,132.020 362.028,131.800 362.028 C 131.580 362.028,131.850 362.286,132.400 362.600 M185.000 364.614 C 184.000 365.096,183.966 365.151,184.800 364.948 C 185.933 364.671,187.207 364.021,186.600 364.030 C 186.380 364.033,185.660 364.296,185.000 364.614 M277.800 364.400 C 278.240 364.589,278.870 364.744,279.200 364.744 C 279.578 364.744,279.504 364.617,279.000 364.400 C 278.560 364.211,277.930 364.056,277.600 364.056 C 277.222 364.056,277.296 364.183,277.800 364.400 M141.400 365.946 C 141.840 366.139,142.830 366.410,143.600 366.550 C 144.561 366.724,144.749 366.694,144.200 366.454 C 143.760 366.261,142.770 365.990,142.000 365.850 C 141.039 365.676,140.851 365.706,141.400 365.946 M150.500 367.876 C 150.885 367.976,151.515 367.976,151.900 367.876 C 152.285 367.775,151.970 367.693,151.200 367.693 C 150.430 367.693,150.115 367.775,150.500 367.876 M170.900 367.876 C 171.285 367.976,171.915 367.976,172.300 367.876 C 172.685 367.775,172.370 367.693,171.600 367.693 C 170.830 367.693,170.515 367.775,170.900 367.876 M293.905 367.883 C 294.402 367.979,295.122 367.975,295.505 367.875 C 295.887 367.775,295.480 367.696,294.600 367.701 C 293.720 367.705,293.407 367.787,293.905 367.883 M316.305 367.883 C 316.802 367.979,317.522 367.975,317.905 367.875 C 318.287 367.775,317.880 367.696,317.000 367.701 C 316.120 367.705,315.807 367.787,316.305 367.883 M153.907 368.290 C 154.626 368.379,155.706 368.377,156.307 368.286 C 156.908 368.195,156.320 368.122,155.000 368.124 C 153.680 368.126,153.188 368.201,153.907 368.290 M166.500 368.287 C 167.105 368.378,168.095 368.378,168.700 368.287 C 169.305 368.195,168.810 368.120,167.600 368.120 C 166.390 368.120,165.895 368.195,166.500 368.287 M297.907 368.290 C 298.626 368.379,299.706 368.377,300.307 368.286 C 300.908 368.195,300.320 368.122,299.000 368.124 C 297.680 368.126,297.188 368.201,297.907 368.290 M311.500 368.289 C 312.215 368.378,313.385 368.378,314.100 368.289 C 314.815 368.201,314.230 368.128,312.800 368.128 C 311.370 368.128,310.785 368.201,311.500 368.289 " stroke="none" fill="#a19542" fill-rule="evenodd"></path><path id="path4" d="M300.700 181.898 C 302.735 181.971,306.065 181.971,308.100 181.898 C 310.135 181.825,308.470 181.766,304.400 181.766 C 300.330 181.766,298.665 181.825,300.700 181.898 M312.900 182.276 C 313.285 182.376,313.915 182.376,314.300 182.276 C 314.685 182.175,314.370 182.093,313.600 182.093 C 312.830 182.093,312.515 182.175,312.900 182.276 M286.600 183.600 C 285.581 184.038,286.632 184.038,288.000 183.600 C 288.804 183.343,288.843 183.277,288.200 183.268 C 287.760 183.262,287.040 183.411,286.600 183.600 M179.785 184.100 C 179.680 184.375,179.641 214.210,179.699 250.400 L 179.802 316.200 179.901 250.104 L 180.000 184.008 198.700 183.900 L 217.400 183.792 198.687 183.696 C 184.014 183.621,179.934 183.708,179.785 184.100 M274.300 188.229 C 272.805 189.040,272.896 189.378,274.400 188.600 C 275.060 188.259,275.600 187.894,275.600 187.790 C 275.600 187.532,275.557 187.547,274.300 188.229 M346.000 197.000 C 347.195 198.210,348.263 199.200,348.373 199.200 C 348.483 199.200,347.595 198.210,346.400 197.000 C 345.205 195.790,344.137 194.800,344.027 194.800 C 343.917 194.800,344.805 195.790,346.000 197.000 M262.400 197.000 C 261.428 197.990,260.723 198.800,260.833 198.800 C 260.943 198.800,261.828 197.990,262.800 197.000 C 263.772 196.010,264.477 195.200,264.367 195.200 C 264.257 195.200,263.372 196.010,262.400 197.000 M350.155 201.719 C 351.003 202.753,351.780 203.600,351.882 203.600 C 352.155 203.600,349.621 200.460,349.077 200.124 C 348.822 199.966,349.307 200.684,350.155 201.719 M301.105 214.283 C 301.602 214.379,302.322 214.375,302.705 214.275 C 303.087 214.175,302.680 214.096,301.800 214.101 C 300.920 214.105,300.607 214.187,301.105 214.283 M305.100 214.282 C 305.595 214.378,306.405 214.378,306.900 214.282 C 307.395 214.187,306.990 214.109,306.000 214.109 C 305.010 214.109,304.605 214.187,305.100 214.282 M297.400 214.800 C 296.381 215.238,297.432 215.238,298.800 214.800 C 299.604 214.543,299.643 214.477,299.000 214.468 C 298.560 214.462,297.840 214.611,297.400 214.800 M293.900 216.229 C 292.349 217.070,292.525 217.361,294.100 216.559 C 295.608 215.793,295.875 215.594,295.367 215.616 C 295.165 215.625,294.505 215.901,293.900 216.229 M250.629 217.429 C 250.481 218.015,250.438 218.572,250.532 218.666 C 250.627 218.760,250.824 218.358,250.971 217.771 C 251.119 217.185,251.162 216.628,251.068 216.534 C 250.973 216.440,250.776 216.842,250.629 217.429 M321.183 220.900 C 322.164 221.945,323.019 222.800,323.083 222.800 C 323.384 222.800,323.066 222.441,321.300 220.783 L 319.400 219.000 321.183 220.900 M287.381 222.837 C 287.029 223.518,286.812 224.145,286.899 224.232 C 286.986 224.319,287.356 223.762,287.722 222.995 C 288.544 221.270,288.259 221.138,287.381 222.837 M324.175 224.532 C 324.791 225.339,325.376 226.000,325.475 226.000 C 325.753 226.000,324.021 223.660,323.509 223.344 C 323.259 223.189,323.559 223.724,324.175 224.532 M330.900 228.046 C 329.537 228.919,329.095 229.506,330.300 228.843 C 331.218 228.339,332.656 227.227,332.400 227.219 C 332.290 227.216,331.615 227.588,330.900 228.046 M248.946 231.400 C 248.947 233.600,249.014 234.449,249.095 233.287 C 249.176 232.124,249.176 230.324,249.093 229.287 C 249.011 228.249,248.945 229.200,248.946 231.400 M285.731 230.600 C 285.733 232.140,285.805 232.721,285.892 231.891 C 285.979 231.061,285.977 229.801,285.889 229.091 C 285.800 228.381,285.729 229.060,285.731 230.600 M249.293 238.000 C 249.293 238.770,249.375 239.085,249.476 238.700 C 249.576 238.315,249.576 237.685,249.476 237.300 C 249.375 236.915,249.293 237.230,249.293 238.000 M288.316 240.200 C 288.549 240.640,289.693 241.900,290.858 243.000 L 292.976 245.000 290.608 242.400 C 289.306 240.970,288.162 239.710,288.066 239.600 C 287.970 239.490,288.082 239.760,288.316 240.200 M250.468 245.400 C 250.462 245.840,250.611 246.560,250.800 247.000 C 251.238 248.019,251.238 246.968,250.800 245.600 C 250.543 244.796,250.477 244.757,250.468 245.400 M298.400 248.179 C 298.400 248.289,298.940 248.659,299.600 249.000 C 300.260 249.341,300.800 249.531,300.800 249.421 C 300.800 249.311,300.260 248.941,299.600 248.600 C 298.940 248.259,298.400 248.069,298.400 248.179 M303.200 250.800 C 303.970 251.222,304.780 251.566,305.000 251.566 C 305.220 251.566,304.770 251.222,304.000 250.800 C 303.230 250.378,302.420 250.034,302.200 250.034 C 301.980 250.034,302.430 250.378,303.200 250.800 M307.200 252.600 C 307.750 252.914,308.380 253.172,308.600 253.172 C 308.820 253.172,308.550 252.914,308.000 252.600 C 307.450 252.286,306.820 252.028,306.600 252.028 C 306.380 252.028,306.650 252.286,307.200 252.600 M326.800 261.200 C 327.570 261.622,328.380 261.966,328.600 261.966 C 328.820 261.966,328.370 261.622,327.600 261.200 C 326.830 260.778,326.020 260.434,325.800 260.434 C 325.580 260.434,326.030 260.778,326.800 261.200 M329.200 262.196 C 329.200 262.470,331.649 263.684,331.832 263.501 C 331.919 263.414,331.362 263.044,330.595 262.678 C 329.828 262.312,329.200 262.095,329.200 262.196 M262.600 267.941 C 263.700 269.109,265.500 270.802,266.600 271.703 C 268.908 273.593,268.277 272.935,263.800 268.784 C 261.557 266.704,261.198 266.452,262.600 267.941 M339.400 267.807 C 339.840 268.166,340.560 268.635,341.000 268.851 L 341.800 269.244 341.000 268.593 C 340.560 268.234,339.840 267.765,339.400 267.549 L 338.600 267.156 339.400 267.807 M344.400 270.946 C 344.400 271.056,344.940 271.530,345.600 272.000 C 346.260 272.470,346.800 272.764,346.800 272.654 C 346.800 272.544,346.260 272.070,345.600 271.600 C 344.940 271.130,344.400 270.836,344.400 270.946 M353.400 278.400 C 354.483 279.500,355.460 280.400,355.570 280.400 C 355.680 280.400,354.883 279.500,353.800 278.400 C 352.717 277.300,351.740 276.400,351.630 276.400 C 351.520 276.400,352.317 277.300,353.400 278.400 M357.355 282.919 C 358.203 283.953,358.980 284.800,359.082 284.800 C 359.355 284.800,356.821 281.660,356.277 281.324 C 356.022 281.166,356.507 281.884,357.355 282.919 M288.800 285.400 C 289.350 285.714,289.980 285.972,290.200 285.972 C 290.420 285.972,290.150 285.714,289.600 285.400 C 289.050 285.086,288.420 284.828,288.200 284.828 C 287.980 284.828,288.250 285.086,288.800 285.400 M362.434 290.600 C 362.434 290.820,362.778 291.630,363.200 292.400 C 363.622 293.170,363.966 293.620,363.966 293.400 C 363.966 293.180,363.622 292.370,363.200 291.600 C 362.778 290.830,362.434 290.380,362.434 290.600 M304.400 292.200 C 304.950 292.514,305.580 292.772,305.800 292.772 C 306.020 292.772,305.750 292.514,305.200 292.200 C 304.650 291.886,304.020 291.628,303.800 291.628 C 303.580 291.628,303.850 291.886,304.400 292.200 M308.000 293.800 C 308.550 294.114,309.180 294.372,309.400 294.372 C 309.620 294.372,309.350 294.114,308.800 293.800 C 308.250 293.486,307.620 293.228,307.400 293.228 C 307.180 293.228,307.450 293.486,308.000 293.800 M312.800 296.000 C 313.570 296.422,314.380 296.766,314.600 296.766 C 314.820 296.766,314.370 296.422,313.600 296.000 C 312.830 295.578,312.020 295.234,311.800 295.234 C 311.580 295.234,312.030 295.578,312.800 296.000 M315.200 296.979 C 315.200 297.089,315.740 297.459,316.400 297.800 C 317.060 298.141,317.600 298.331,317.600 298.221 C 317.600 298.111,317.060 297.741,316.400 297.400 C 315.740 297.059,315.200 296.869,315.200 296.979 M325.400 304.000 C 326.483 305.100,327.460 306.000,327.570 306.000 C 327.680 306.000,326.883 305.100,325.800 304.000 C 324.717 302.900,323.740 302.000,323.630 302.000 C 323.520 302.000,324.317 302.900,325.400 304.000 M367.709 310.800 C 367.709 311.790,367.787 312.195,367.882 311.700 C 367.978 311.205,367.978 310.395,367.882 309.900 C 367.787 309.405,367.709 309.810,367.709 310.800 M266.976 313.022 C 266.232 313.618,266.238 313.626,267.108 313.204 C 267.608 312.961,268.221 312.889,268.470 313.043 C 268.748 313.215,268.813 313.145,268.638 312.862 C 268.257 312.245,267.903 312.279,266.976 313.022 M330.493 314.000 C 330.493 314.770,330.575 315.085,330.676 314.700 C 330.776 314.315,330.776 313.685,330.676 313.300 C 330.575 312.915,330.493 313.230,330.493 314.000 M216.928 316.800 C 216.928 318.230,217.001 318.815,217.089 318.100 C 217.178 317.385,217.178 316.215,217.089 315.500 C 217.001 314.785,216.928 315.370,216.928 316.800 M270.000 315.600 C 270.470 316.260,270.944 316.800,271.054 316.800 C 271.164 316.800,270.870 316.260,270.400 315.600 C 269.930 314.940,269.456 314.400,269.346 314.400 C 269.236 314.400,269.530 314.940,270.000 315.600 M134.000 316.456 L 133.000 317.295 134.111 316.631 C 134.723 316.266,135.425 316.092,135.673 316.245 C 135.948 316.415,136.012 316.344,135.838 316.062 C 135.445 315.425,135.155 315.488,134.000 316.456 M136.749 318.200 C 136.965 318.640,137.434 319.360,137.793 319.800 L 138.444 320.600 138.051 319.800 C 137.835 319.360,137.366 318.640,137.007 318.200 L 136.356 317.400 136.749 318.200 M367.709 320.800 C 367.709 321.790,367.787 322.195,367.882 321.700 C 367.978 321.205,367.978 320.395,367.882 319.900 C 367.787 319.405,367.709 319.810,367.709 320.800 M216.501 321.400 C 216.505 322.280,216.587 322.593,216.683 322.095 C 216.779 321.598,216.775 320.878,216.675 320.495 C 216.575 320.113,216.496 320.520,216.501 321.400 M277.000 324.000 C 278.750 325.760,280.271 327.200,280.381 327.200 C 280.491 327.200,279.150 325.760,277.400 324.000 C 275.650 322.240,274.129 320.800,274.019 320.800 C 273.909 320.800,275.250 322.240,277.000 324.000 M216.093 324.400 C 216.093 325.170,216.175 325.485,216.276 325.100 C 216.376 324.715,216.376 324.085,216.276 323.700 C 216.175 323.315,216.093 323.630,216.093 324.400 M325.781 328.100 L 324.200 329.800 325.900 328.219 C 327.481 326.748,327.784 326.400,327.481 326.400 C 327.416 326.400,326.651 327.165,325.781 328.100 M280.800 327.346 C 280.800 327.456,281.340 327.930,282.000 328.400 C 282.660 328.870,283.200 329.164,283.200 329.054 C 283.200 328.944,282.660 328.470,282.000 328.000 C 281.340 327.530,280.800 327.236,280.800 327.346 M173.600 330.482 C 172.390 331.611,171.760 332.338,172.200 332.099 C 172.969 331.680,176.353 328.384,175.981 328.415 C 175.882 328.424,174.810 329.354,173.600 330.482 M106.200 333.200 C 105.540 333.637,105.180 333.992,105.400 333.988 C 105.801 333.982,107.976 332.423,107.600 332.412 C 107.490 332.408,106.860 332.763,106.200 333.200 M316.400 333.400 C 315.630 333.697,315.270 333.945,315.600 333.952 C 315.930 333.958,316.740 333.717,317.400 333.414 C 318.945 332.707,318.226 332.697,316.400 333.400 M292.600 333.600 C 293.040 333.789,293.670 333.944,294.000 333.944 C 294.378 333.944,294.304 333.817,293.800 333.600 C 293.360 333.411,292.730 333.256,292.400 333.256 C 292.022 333.256,292.096 333.383,292.600 333.600 M158.900 335.087 C 159.505 335.178,160.495 335.178,161.100 335.087 C 161.705 334.995,161.210 334.920,160.000 334.920 C 158.790 334.920,158.295 334.995,158.900 335.087 M300.707 335.090 C 301.426 335.179,302.506 335.177,303.107 335.086 C 303.708 334.995,303.120 334.922,301.800 334.924 C 300.480 334.926,299.988 335.001,300.707 335.090 M307.300 335.087 C 307.905 335.178,308.895 335.178,309.500 335.087 C 310.105 334.995,309.610 334.920,308.400 334.920 C 307.190 334.920,306.695 334.995,307.300 335.087 M211.665 339.817 C 210.995 341.288,211.123 341.602,211.847 340.265 C 212.186 339.640,212.388 339.054,212.296 338.963 C 212.205 338.871,211.921 339.256,211.665 339.817 M244.400 340.800 C 245.097 341.680,245.757 342.400,245.867 342.400 C 245.977 342.400,245.497 341.680,244.800 340.800 C 244.103 339.920,243.443 339.200,243.333 339.200 C 243.223 339.200,243.703 339.920,244.400 340.800 M247.800 344.800 C 248.659 345.680,249.452 346.400,249.562 346.400 C 249.672 346.400,249.059 345.680,248.200 344.800 C 247.341 343.920,246.548 343.200,246.438 343.200 C 246.328 343.200,246.941 343.920,247.800 344.800 M355.198 350.100 C 353.573 351.915,352.747 352.950,353.362 352.400 C 354.598 351.295,358.575 346.800,358.316 346.800 C 358.226 346.800,356.823 348.285,355.198 350.100 M113.200 347.325 C 113.200 347.394,113.785 347.979,114.500 348.625 L 115.800 349.800 114.625 348.500 C 113.530 347.288,113.200 347.016,113.200 347.325 M252.000 348.925 C 252.000 348.994,252.585 349.579,253.300 350.225 L 254.600 351.400 253.425 350.100 C 252.330 348.888,252.000 348.616,252.000 348.925 M202.191 353.700 L 199.000 357.000 202.300 353.809 C 205.365 350.846,205.782 350.400,205.491 350.400 C 205.430 350.400,203.945 351.885,202.191 353.700 M340.400 360.800 C 339.190 361.439,338.341 361.971,338.513 361.981 C 338.938 362.007,342.800 360.036,342.800 359.793 C 342.800 359.526,342.855 359.503,340.400 360.800 M189.200 362.600 C 188.650 362.914,188.380 363.172,188.600 363.172 C 188.820 363.172,189.450 362.914,190.000 362.600 C 190.550 362.286,190.820 362.028,190.600 362.028 C 190.380 362.028,189.750 362.286,189.200 362.600 M153.105 367.883 C 153.602 367.979,154.322 367.975,154.705 367.875 C 155.087 367.775,154.680 367.696,153.800 367.701 C 152.920 367.705,152.607 367.787,153.105 367.883 M168.305 367.883 C 168.802 367.979,169.522 367.975,169.905 367.875 C 170.287 367.775,169.880 367.696,169.000 367.701 C 168.120 367.705,167.807 367.787,168.305 367.883 M296.705 367.883 C 297.202 367.979,297.922 367.975,298.305 367.875 C 298.687 367.775,298.280 367.696,297.400 367.701 C 296.520 367.705,296.207 367.787,296.705 367.883 M313.505 367.883 C 314.002 367.979,314.722 367.975,315.105 367.875 C 315.487 367.775,315.080 367.696,314.200 367.701 C 313.320 367.705,313.007 367.787,313.505 367.883 M159.315 368.296 C 160.588 368.376,162.568 368.375,163.715 368.294 C 164.862 368.214,163.820 368.149,161.400 368.150 C 158.980 368.151,158.042 368.216,159.315 368.296 M303.516 368.297 C 304.899 368.375,307.059 368.374,308.316 368.295 C 309.572 368.216,308.440 368.152,305.800 368.153 C 303.160 368.153,302.132 368.218,303.516 368.297 " stroke="none" fill="#847c3c" fill-rule="evenodd"></path></g></svg>