<svg id="svg" version="1.1" xmlns="http://www.w3.org/2000/svg" xmlns:xlink="http://www.w3.org/1999/xlink" width="400" height="731.6666666666666" viewBox="0, 0, 400,731.6666666666666"><g id="svgg"><path id="path0" d="M337.103 272.986 C 328.115 274.021,321.372 276.453,317.876 279.921 C 315.494 282.284,315.415 282.800,317.562 281.971 C 334.996 275.243,352.580 281.171,360.195 296.345 C 368.299 312.492,357.503 333.626,331.667 352.195 C 327.935 354.877,326.306 355.976,322.333 358.492 C 318.437 360.960,312.941 364.139,309.122 366.133 C 307.145 367.166,304.667 369.383,304.667 370.120 C 304.667 370.484,317.029 366.779,323.667 364.426 C 361.600 350.978,383.314 330.361,383.331 307.779 C 383.347 286.270,361.902 270.130,337.103 272.986 M136.333 277.557 C 114.883 278.734,90.589 285.111,69.719 295.044 C 61.850 298.789,59.000 301.270,59.000 304.375 C 59.000 320.410,166.214 326.665,246.500 315.314 C 263.586 312.899,283.276 308.739,285.833 307.005 C 288.572 305.147,294.695 301.788,300.774 298.807 C 307.971 295.277,307.864 295.344,305.757 295.698 C 252.878 304.572,207.648 308.462,157.333 308.460 C 90.227 308.458,75.891 299.491,120.000 285.108 C 124.680 283.582,139.851 279.223,143.083 278.475 C 144.504 278.147,145.667 277.756,145.667 277.606 C 145.667 277.352,140.552 277.326,136.333 277.557 M120.013 335.212 C 95.925 344.191,91.429 354.174,107.806 362.317 C 139.529 378.090,223.364 377.246,282.333 360.561 C 283.892 360.120,285.887 359.566,286.768 359.331 C 288.706 358.813,288.675 358.781,284.522 356.978 C 279.443 354.773,272.608 350.422,269.003 347.098 C 267.997 346.170,267.714 346.164,263.493 346.984 C 221.959 355.048,187.209 356.979,146.667 353.476 C 129.972 352.034,125.589 351.183,121.577 348.609 C 116.908 345.613,117.202 341.580,122.490 336.100 C 123.855 334.685,124.941 333.502,124.903 333.471 C 124.865 333.440,122.664 334.223,120.013 335.212 M131.442 389.165 C 105.140 398.121,106.839 411.471,135.473 420.838 C 174.179 433.499,231.912 430.500,274.284 413.627 C 280.287 411.236,280.121 411.366,278.148 410.600 C 273.267 408.703,261.203 402.983,257.167 400.652 C 256.433 400.228,255.041 399.444,254.073 398.910 L 252.312 397.938 244.573 399.293 C 207.956 405.701,187.687 406.452,153.833 402.656 C 131.844 400.190,126.101 395.649,135.836 388.427 C 137.317 387.329,136.364 387.489,131.442 389.165 M80.667 423.533 C 80.025 423.611,78.225 423.829,76.667 424.018 C 52.273 426.976,22.289 440.643,19.664 450.000 C 17.403 458.059,25.431 462.373,49.771 466.177 C 133.528 479.269,225.012 479.452,294.132 466.666 C 311.770 463.403,327.663 459.238,338.667 454.994 C 339.675 454.605,341.039 454.087,341.699 453.843 C 342.358 453.599,344.678 452.543,346.854 451.497 C 363.651 443.422,366.496 434.998,354.571 428.642 C 352.288 427.426,351.892 427.547,353.177 429.069 C 367.208 445.692,317.113 457.890,217.667 462.066 C 204.577 462.616,157.280 462.620,145.833 462.072 C 84.647 459.145,45.473 450.746,51.511 441.849 C 55.936 435.329,77.108 427.927,95.639 426.422 L 98.777 426.167 97.302 425.433 C 94.149 423.866,85.811 422.913,80.667 423.533 M382.812 453.583 C 367.738 476.691,257.679 495.116,157.333 491.331 C 131.412 490.353,92.132 486.777,85.583 484.798 C 84.095 484.348,85.245 485.368,87.417 486.423 C 107.745 496.299,180.663 502.280,241.000 499.020 C 331.604 494.124,379.664 478.969,383.507 454.083 C 383.762 452.427,383.629 452.331,382.812 453.583 M32.994 597.750 C 32.991 634.096,32.911 665.783,32.815 668.167 C 32.069 686.746,30.434 692.567,23.848 700.094 C 20.008 704.481,14.114 709.235,9.750 711.464 C 8.573 712.065,8.441 712.383,9.088 713.060 C 9.320 713.302,10.707 714.924,12.171 716.664 C 13.635 718.404,14.988 719.994,15.176 720.197 C 15.365 720.400,16.536 721.772,17.779 723.244 L 20.038 725.922 21.720 725.282 C 37.434 719.312,50.676 706.239,54.590 692.833 C 57.579 682.597,57.436 686.822,57.570 604.417 L 57.688 531.667 45.344 531.667 L 33.000 531.667 32.994 597.750 M114.500 570.024 C 103.720 571.023,90.357 574.439,81.800 578.383 L 80.100 579.167 80.837 582.167 C 81.243 583.817,81.979 586.892,82.474 589.000 C 82.969 591.108,83.430 593.008,83.499 593.222 C 83.585 593.488,84.760 593.240,87.229 592.434 C 108.871 585.367,127.126 585.238,134.569 592.099 C 138.811 596.009,139.748 599.007,139.931 609.250 L 140.070 617.000 136.118 617.005 C 94.705 617.052,74.333 629.944,74.333 656.104 C 74.333 676.210,86.099 687.112,107.833 687.144 C 120.825 687.163,129.923 683.834,140.750 675.098 C 142.171 673.952,143.333 673.048,143.333 673.090 C 143.333 673.132,143.706 675.642,144.162 678.667 C 144.617 681.692,144.992 684.354,144.995 684.583 C 144.999 684.907,147.094 685.000,154.347 685.000 L 163.695 685.000 163.572 641.583 C 163.436 593.111,163.575 596.015,161.077 589.588 C 155.317 574.767,138.688 567.782,114.500 570.024 M327.167 569.901 C 318.323 570.509,308.080 572.723,299.000 575.990 C 291.096 578.834,291.014 578.888,291.638 580.867 C 291.806 581.398,292.569 584.496,293.334 587.750 C 294.099 591.004,294.768 593.667,294.821 593.667 C 294.873 593.667,295.573 593.430,296.375 593.141 C 318.144 585.297,338.378 585.023,346.060 592.469 C 349.911 596.202,351.001 599.901,351.252 610.083 L 351.422 617.000 347.295 617.005 C 305.082 617.051,284.155 630.815,285.470 657.667 C 286.331 675.253,295.606 685.027,313.333 687.029 C 327.413 688.619,340.385 684.574,352.022 674.964 C 354.476 672.938,354.376 672.810,355.323 679.167 L 356.167 684.833 365.427 684.922 L 374.688 685.011 374.578 641.255 C 374.455 592.567,374.609 595.934,372.212 589.584 C 366.762 575.142,351.019 568.263,327.167 569.901 M177.000 572.046 C 177.000 572.254,177.587 574.317,178.304 576.629 C 179.021 578.941,180.063 582.333,180.620 584.167 C 181.177 586.000,183.804 594.550,186.459 603.167 C 191.303 618.893,195.869 633.762,197.666 639.667 C 198.197 641.408,201.126 650.933,204.176 660.833 C 207.226 670.733,210.136 680.183,210.643 681.833 L 211.564 684.833 226.216 684.920 L 240.869 685.007 241.489 683.587 C 241.831 682.806,242.536 681.242,243.056 680.111 C 252.601 659.362,261.849 632.331,268.469 605.833 C 271.226 594.797,275.667 574.020,275.667 572.155 C 275.667 571.735,273.941 571.667,263.340 571.667 L 251.013 571.667 250.849 572.417 C 250.758 572.829,250.445 574.892,250.153 577.000 C 247.675 594.860,242.671 617.256,236.786 636.833 C 234.389 644.808,228.964 661.000,228.690 661.000 C 228.552 661.000,228.251 660.137,228.020 659.083 C 226.560 652.408,223.921 641.034,223.670 640.333 C 223.506 639.875,222.822 637.700,222.150 635.500 C 220.102 628.797,219.299 626.205,218.999 625.333 C 218.841 624.875,218.167 622.700,217.501 620.500 C 216.835 618.300,215.860 615.150,215.336 613.500 C 214.811 611.850,213.686 608.250,212.836 605.500 C 211.987 602.750,210.640 598.400,209.844 595.833 C 209.047 593.267,207.544 588.392,206.504 585.000 C 205.463 581.608,204.087 577.221,203.445 575.250 L 202.278 571.667 189.639 571.667 C 180.421 571.667,177.000 571.769,177.000 572.046 M376.667 572.833 C 376.667 573.583,376.800 573.667,378.000 573.667 L 379.333 573.667 379.333 577.500 L 379.333 581.333 380.333 581.333 L 381.333 581.333 381.333 577.500 L 381.333 573.667 382.667 573.667 C 383.867 573.667,384.000 573.583,384.000 572.833 L 384.000 572.000 380.333 572.000 L 376.667 572.000 376.667 572.833 M385.333 576.648 L 385.333 581.333 386.333 581.333 L 387.333 581.333 387.350 577.917 L 387.367 574.500 388.506 577.640 C 390.272 582.503,390.895 582.612,392.462 578.333 L 393.500 575.500 393.596 578.417 L 393.693 581.333 394.846 581.333 L 396.000 581.333 396.000 576.667 L 396.000 572.000 394.412 572.000 L 392.823 572.000 392.208 573.750 C 391.870 574.712,391.374 576.025,391.107 576.667 L 390.621 577.833 389.526 575.000 L 388.431 572.167 386.882 572.065 L 385.333 571.963 385.333 576.648 M140.000 645.641 L 140.000 658.948 136.762 661.335 C 116.384 676.356,96.421 671.013,97.821 650.912 C 98.526 640.795,104.641 635.240,117.333 633.188 C 121.892 632.451,121.994 632.445,131.417 632.387 L 140.000 632.333 140.000 645.641 M351.333 645.486 L 351.333 658.638 348.988 660.510 C 329.314 676.207,308.983 671.953,308.966 652.137 C 308.955 638.081,318.509 632.462,342.583 632.368 L 351.333 632.333 351.333 645.486 " stroke="none" fill="#5484a4" fill-rule="evenodd"></path><path id="path1" d="M250.810 6.333 C 260.301 47.709,247.327 73.250,196.465 113.321 C 163.618 139.199,153.325 148.804,144.512 161.804 C 126.725 188.038,138.186 216.505,184.167 260.297 C 194.315 269.962,202.066 277.045,202.271 276.840 C 203.098 276.013,195.236 263.168,184.294 247.467 C 178.382 238.984,174.597 233.155,171.717 228.102 C 153.052 195.345,161.984 168.713,202.583 136.065 C 232.160 112.282,250.157 90.751,258.779 68.833 C 266.883 48.233,265.514 26.831,255.081 11.000 C 252.945 7.760,250.533 5.123,250.810 6.333 M307.667 107.866 C 271.576 118.518,240.406 134.642,222.717 151.809 C 195.429 178.289,195.592 207.605,223.211 240.874 C 237.565 258.165,236.673 275.019,220.537 291.410 C 217.494 294.500,217.429 294.701,219.917 293.313 C 237.715 283.386,252.297 268.159,256.608 255.000 C 260.629 242.725,258.339 233.879,247.037 218.043 C 234.000 199.775,230.663 192.675,230.669 183.228 C 230.682 163.654,252.475 142.739,306.083 110.852 C 314.293 105.969,314.330 105.900,307.667 107.866 " stroke="none" fill="#fb9c14" fill-rule="evenodd"></path><path id="path2" d="" stroke="none" fill="#7c90a8" fill-rule="evenodd"></path><path id="path3" d="" stroke="none" fill="#7c90a8" fill-rule="evenodd"></path><path id="path4" d="" stroke="none" fill="#7c90a8" fill-rule="evenodd"></path></g></svg>