<svg id="svg" version="1.1" xmlns="http://www.w3.org/2000/svg" xmlns:xlink="http://www.w3.org/1999/xlink" width="400" height="400" viewBox="0, 0, 400,400"><g id="svgg"><path id="path0" d="M326.563 214.887 C 289.717 253.356,257.226 287.277,254.362 290.267 L 249.153 295.703 293.034 295.801 C 345.218 295.917,344.285 295.931,348.978 294.951 C 367.173 291.152,380.980 279.923,390.036 261.563 C 394.740 252.025,397.965 241.180,399.633 229.297 C 400.381 223.965,399.880 168.853,399.048 165.039 C 398.674 163.320,398.324 161.650,398.272 161.328 C 398.023 159.791,397.183 155.930,396.870 154.883 C 396.678 154.238,396.443 153.271,396.348 152.734 C 396.253 152.197,395.819 150.708,395.384 149.424 C 394.949 148.141,394.678 146.954,394.781 146.787 C 394.884 146.621,394.774 146.484,394.537 146.484 C 394.300 146.484,394.158 146.195,394.221 145.841 C 394.284 145.488,394.160 145.141,393.945 145.071 C 393.730 145.001,363.408 176.418,326.563 214.887 M200.552 302.539 C 200.552 306.406,200.611 307.935,200.682 305.937 C 200.753 303.939,200.753 300.775,200.681 298.906 C 200.610 297.037,200.552 298.672,200.552 302.539 M236.669 309.650 C 235.679 309.803,155.136 393.325,154.736 394.615 C 154.651 394.891,154.716 394.992,154.881 394.838 C 155.046 394.684,155.481 394.720,155.849 394.916 C 156.216 395.113,158.962 395.718,161.950 396.260 C 169.847 397.694,170.098 397.730,175.586 398.247 C 177.090 398.388,178.760 398.573,179.297 398.658 C 184.681 399.510,213.567 399.664,223.438 398.894 C 266.806 395.511,292.046 382.935,297.319 362.081 C 297.982 359.459,298.324 311.217,297.692 309.473 C 297.632 309.308,237.763 309.482,236.669 309.650 M260.352 334.515 C 275.601 338.589,277.661 359.404,263.522 366.547 C 249.960 373.399,235.028 360.563,239.417 345.825 C 240.501 342.184,244.664 336.719,246.354 336.719 C 246.605 336.719,246.868 336.546,246.940 336.335 C 247.511 334.652,256.366 333.451,260.352 334.515 " stroke="none" fill="#fccc3b" fill-rule="evenodd"></path><path id="path1" d="M310.547 125.519 C 310.547 139.961,310.376 151.996,310.138 154.353 C 307.660 178.848,295.460 195.722,275.443 202.341 C 266.191 205.401,270.159 205.217,207.422 205.490 C 147.012 205.753,150.209 205.641,141.797 207.805 C 121.179 213.109,108.088 226.791,104.707 246.569 C 103.825 251.723,103.413 351.071,104.255 355.331 C 106.112 364.727,112.264 373.909,121.216 380.647 C 124.225 382.912,132.637 387.886,133.464 387.889 C 133.715 387.890,134.802 388.333,135.879 388.875 C 138.369 390.125,145.357 392.664,145.610 392.411 C 145.716 392.305,146.312 392.483,146.936 392.805 C 147.560 393.127,148.235 393.289,148.438 393.164 C 148.640 393.039,149.207 393.185,149.696 393.490 C 150.185 393.794,151.411 394.241,152.419 394.482 L 154.253 394.922 156.325 392.704 C 176.388 371.237,235.846 309.778,236.674 309.650 C 237.236 309.563,229.302 309.466,219.043 309.434 L 200.391 309.375 200.391 302.539 L 200.391 295.703 224.748 295.703 L 249.106 295.703 257.290 287.207 C 261.792 282.534,293.738 249.180,328.282 213.086 C 362.826 176.992,391.806 146.768,392.681 145.920 C 393.564 145.066,394.069 144.312,393.816 144.228 C 393.565 144.144,393.359 143.680,393.359 143.197 C 393.359 142.713,393.228 142.186,393.066 142.025 C 392.905 141.864,392.759 141.615,392.742 141.471 C 392.634 140.589,392.061 139.063,391.838 139.063 C 391.692 139.063,391.543 138.670,391.507 138.189 C 391.471 137.709,391.256 137.255,391.031 137.179 C 390.805 137.104,390.719 136.882,390.841 136.685 C 390.962 136.489,390.876 136.328,390.648 136.328 C 390.421 136.328,390.234 136.061,390.234 135.734 C 390.234 134.463,384.818 124.760,382.430 121.754 C 374.029 111.175,365.224 104.981,354.429 102.056 L 350.586 101.015 330.566 100.872 L 310.547 100.730 310.547 125.519 M297.747 313.281 C 297.747 314.033,297.827 314.341,297.926 313.965 C 298.024 313.589,298.024 312.974,297.926 312.598 C 297.827 312.222,297.747 312.529,297.747 313.281 " stroke="none" fill="#fcd646" fill-rule="evenodd"></path><path id="path2" d="M181.445 0.250 C 136.970 2.979,109.646 15.998,104.269 37.021 C 103.563 39.783,103.516 41.552,103.516 65.102 L 103.516 90.234 152.148 90.234 L 200.781 90.234 200.781 96.867 L 200.781 103.500 127.832 103.625 C 47.013 103.763,54.261 103.528,45.739 106.287 C 24.254 113.242,9.116 133.304,3.176 162.695 C -3.685 196.644,0.120 241.210,11.964 265.619 C 15.488 272.882,23.229 283.987,24.560 283.691 C 24.802 283.638,24.957 283.726,24.905 283.887 C 24.780 284.274,27.027 286.775,27.276 286.526 C 27.382 286.420,27.142 285.971,26.742 285.529 C 25.917 284.617,25.902 284.632,204.297 106.877 L 286.914 24.556 284.435 22.239 C 283.071 20.965,281.770 20.037,281.543 20.178 C 281.310 20.321,281.243 20.249,281.390 20.012 C 281.542 19.765,280.009 18.501,277.682 16.957 C 264.784 8.399,248.949 3.617,224.609 0.930 C 219.228 0.336,188.051 -0.155,181.445 0.250 M289.453 28.200 C 289.453 28.308,289.805 28.801,290.234 29.297 C 290.664 29.792,291.016 30.022,291.016 29.808 C 291.016 29.593,290.664 29.100,290.234 28.711 C 289.805 28.322,289.453 28.092,289.453 28.200 M148.242 31.245 C 162.166 33.507,167.759 50.661,157.771 60.466 C 146.393 71.635,127.749 63.122,128.588 47.142 C 129.110 37.207,138.449 29.653,148.242 31.245 M111.035 204.383 C 110.552 204.616,110.156 204.960,110.156 205.147 C 110.156 205.334,110.596 205.199,111.133 204.847 C 112.565 203.908,112.515 203.669,111.035 204.383 M29.309 288.184 C 29.325 288.554,31.250 289.974,31.250 289.615 C 31.250 289.357,29.704 287.891,29.432 287.891 C 29.358 287.891,29.302 288.022,29.309 288.184 " stroke="none" fill="#377cae" fill-rule="evenodd"></path><path id="path3" d="M262.109 49.210 C 248.682 62.668,190.072 121.144,131.865 179.156 L 26.035 284.632 26.787 285.663 C 27.201 286.230,27.738 286.700,27.982 286.706 C 28.225 286.713,28.521 287.088,28.639 287.539 C 28.757 287.991,29.030 288.251,29.245 288.118 C 29.461 287.985,30.069 288.308,30.597 288.836 C 31.126 289.364,31.664 289.690,31.795 289.560 C 31.925 289.429,32.031 289.626,32.031 289.997 C 32.031 290.368,32.175 290.582,32.351 290.474 C 32.526 290.365,33.181 290.750,33.806 291.329 C 34.431 291.909,34.946 292.309,34.952 292.219 C 34.957 292.128,35.705 292.524,36.613 293.098 C 37.522 293.671,38.374 294.141,38.507 294.141 C 38.640 294.141,39.303 294.393,39.980 294.702 C 47.496 298.132,49.977 298.423,71.752 298.431 L 90.964 298.437 91.164 270.605 C 91.343 245.747,91.445 240.876,91.798 240.527 C 91.852 240.474,91.937 240.063,91.986 239.615 C 92.195 237.701,93.053 233.336,93.361 232.617 C 93.754 231.700,94.576 229.063,94.678 228.395 C 94.717 228.139,94.915 227.666,95.118 227.344 C 95.322 227.021,95.434 226.431,95.369 226.032 C 95.296 225.590,95.415 225.408,95.671 225.566 C 95.924 225.723,96.094 225.490,96.094 224.986 C 96.094 224.523,96.464 223.623,96.918 222.987 C 97.371 222.351,97.643 221.731,97.522 221.611 C 97.402 221.490,97.560 221.134,97.874 220.820 C 98.188 220.506,98.344 220.087,98.221 219.888 C 98.098 219.689,98.271 219.421,98.606 219.292 C 98.940 219.164,99.117 218.901,98.998 218.709 C 98.879 218.517,98.968 218.359,99.196 218.359 C 99.423 218.359,99.609 218.008,99.609 217.578 C 99.609 217.148,99.831 216.797,100.101 216.797 C 100.372 216.797,100.824 216.427,101.107 215.975 C 101.532 215.294,101.531 215.198,101.103 215.418 C 100.819 215.564,100.927 215.406,101.344 215.068 C 101.761 214.730,101.974 214.453,101.817 214.453 C 101.536 214.453,101.912 213.920,103.190 212.505 C 103.548 212.108,103.739 211.681,103.613 211.556 C 103.488 211.431,103.667 211.328,104.010 211.328 C 104.354 211.328,104.747 210.974,104.885 210.541 C 105.022 210.108,105.280 209.845,105.459 209.955 C 105.637 210.065,105.967 209.628,106.192 208.984 C 106.416 208.340,106.707 207.813,106.839 207.813 C 106.970 207.813,106.959 208.032,106.814 208.301 C 106.669 208.569,107.177 208.130,107.943 207.324 C 108.708 206.519,109.520 205.859,109.746 205.859 C 109.972 205.859,110.156 205.624,110.156 205.336 C 110.156 205.048,110.632 204.596,111.214 204.331 C 111.795 204.066,112.510 203.508,112.803 203.090 C 113.095 202.672,113.503 202.435,113.710 202.562 C 113.916 202.690,114.444 202.385,114.884 201.885 C 115.324 201.385,115.570 201.240,115.430 201.563 C 115.265 201.945,115.371 201.911,115.737 201.465 C 116.045 201.089,116.591 200.781,116.950 200.781 C 117.309 200.781,117.703 200.519,117.827 200.198 C 117.950 199.877,118.192 199.701,118.365 199.808 C 118.879 200.126,119.939 199.562,119.664 199.117 C 119.522 198.887,119.597 198.822,119.835 198.969 C 120.068 199.114,120.364 199.061,120.493 198.852 C 120.622 198.643,121.015 198.582,121.366 198.716 C 121.792 198.880,121.910 198.809,121.721 198.504 C 121.553 198.233,121.676 198.047,122.022 198.047 C 122.343 198.047,123.100 197.844,123.705 197.597 C 124.310 197.349,125.156 197.083,125.586 197.006 C 126.016 196.929,126.631 196.754,126.953 196.616 C 127.713 196.292,128.095 196.182,129.384 195.913 C 129.970 195.791,130.874 195.530,131.395 195.332 C 131.916 195.134,132.436 195.066,132.551 195.181 C 132.666 195.296,132.992 195.244,133.275 195.065 C 133.558 194.887,134.229 194.713,134.766 194.680 C 135.303 194.647,136.533 194.486,137.500 194.322 C 138.467 194.159,157.363 193.964,179.492 193.889 C 247.475 193.658,251.154 193.599,255.528 192.662 C 279.773 187.469,294.482 172.470,297.233 150.133 C 297.649 146.758,297.863 47.637,297.460 45.508 C 297.337 44.863,296.960 43.281,296.620 41.992 C 296.281 40.703,295.915 39.253,295.808 38.770 C 295.700 38.286,295.457 37.891,295.267 37.891 C 295.077 37.891,294.966 37.748,295.020 37.574 C 295.154 37.137,292.929 32.802,292.090 31.866 C 291.714 31.446,291.406 30.937,291.406 30.734 C 291.406 30.531,291.039 30.046,290.589 29.656 C 290.140 29.267,289.881 28.771,290.014 28.556 C 290.147 28.340,289.900 27.973,289.464 27.740 C 289.028 27.507,288.672 27.156,288.672 26.960 C 288.672 26.572,286.920 24.568,286.674 24.675 C 286.591 24.711,275.537 35.752,262.109 49.210 " stroke="none" fill="#346c94" fill-rule="evenodd"></path></g></svg>